<?xml version="1.0" encoding="utf-8"?>
<!-- Generator: Adobe Illustrator 16.0.0, SVG Export Plug-In . SVG Version: 6.00 Build 0)  -->
<!DOCTYPE svg PUBLIC "-//W3C//DTD SVG 1.1//EN" "http://www.w3.org/Graphics/SVG/1.1/DTD/svg11.dtd">
<svg version="1.1" id="Layer_1" xmlns="http://www.w3.org/2000/svg" xmlns:xlink="http://www.w3.org/1999/xlink" x="0px" y="0px"
	 width="1440px" height="864px" viewBox="0 0 1440 864" enable-background="new 0 0 1440 864" xml:space="preserve">
<circle opacity="0.8" fill="#273675" enable-background="new    " cx="748.9" cy="627.1" r="9.1"/>
<circle opacity="0.8" fill="#273675" enable-background="new    " cx="855.7" cy="425" r="5.6"/>
<circle opacity="0.4" fill="#273675" enable-background="new    " cx="466.3" cy="716.8" r="6.6"/>
<circle opacity="0.4" fill="#273675" enable-background="new    " cx="466.3" cy="716.8" r="12.6"/>
<path opacity="0.4" fill="#273675" enable-background="new    " d="M1375,717.1c0,5-4.1,9.101-9.1,9.101s-9.101-4.101-9.101-9.101
	s4.101-9.1,9.101-9.1S1375,712.1,1375,717.1z"/>
<circle opacity="0.4" fill="#273675" enable-background="new    " cx="624.8" cy="257.9" r="5.1"/>
<path opacity="0.6" fill="#273675" enable-background="new    " d="M65.7,580.5c0,2.801-2.3,5.101-5.1,5.101
	c-2.8,0-5.1-2.3-5.1-5.101c0-2.799,2.3-5.1,5.1-5.1C63.4,575.4,65.7,577.701,65.7,580.5z"/>
<circle opacity="0.6" fill="#273675" enable-background="new    " cx="319.4" cy="507.9" r="7.5"/>
<path opacity="0.8" fill="#273675" enable-background="new    " d="M322.5,507.9c0,1.7-1.4,3.1-3.1,3.1
	c-1.7,0-3.101-1.399-3.101-3.1c0-1.699,1.4-3.1,3.101-3.1C321.1,504.801,322.5,506.201,322.5,507.9z"/>
<path opacity="0.4" fill="#273675" enable-background="new    " d="M704.1,182.8c0,11.1-9,20.1-20.1,20.1s-20.1-9-20.1-20.1
	c0-11.1,9-20.1,20.1-20.1S704.1,171.7,704.1,182.8z"/>
<path opacity="0.8" fill="#273675" enable-background="new    " d="M692.3,182.8c0,4.6-3.7,8.4-8.399,8.4c-4.601,0-8.4-3.7-8.4-8.4
	c0-4.6,3.7-8.4,8.4-8.4C688.6,174.5,692.3,178.2,692.3,182.8z"/>
<path opacity="0.8" fill="#273675" enable-background="new    " d="M827.8,24.7c0,4-3.2,7.2-7.2,7.2s-7.199-3.2-7.199-7.2
	s3.199-7.2,7.199-7.2C824.5,17.5,827.8,20.7,827.8,24.7z"/>
<polygon fill="#273675" points="855,425.5 682.2,181.8 684.1,182 1056.4,234.2 1056.2,235.8 685.7,183.9 856.4,424.5 "/>
<linearGradient id="SVGID_1_" gradientUnits="userSpaceOnUse" x1="1258.3027" y1="1226.5664" x2="1211.8794" y2="1260.5081" gradientTransform="matrix(1 0 0 -1 -298.2939 1724.0391)">
	<stop  offset="0" style="stop-color:#342874"/>
	<stop  offset="1" style="stop-color:#5952A3"/>
</linearGradient>
<path fill="url(#SVGID_1_)" d="M996.8,504.7c0,0-2,2.1-4,4.5c-2,2.399-7.8,5.8-10.2,7.3c-2.399,1.5-13.5,9.9-15.8,18.2
	s5.601,9.4,13.7,7.9c8.1-1.4,15.7-8.9,17.9-11.601c2.199-2.7,9.899-8.8,19.8-14c9.899-5.1,3.899-12.1,3.899-12.1L996.8,504.7z"/>
<linearGradient id="SVGID_2_" gradientUnits="userSpaceOnUse" x1="1333.7178" y1="1188.8994" x2="1254.5393" y2="1227.0762" gradientTransform="matrix(1 0 0 -1 -298.2939 1724.0391)">
	<stop  offset="0" style="stop-color:#342874"/>
	<stop  offset="1" style="stop-color:#5952A3"/>
</linearGradient>
<path fill="url(#SVGID_2_)" d="M1071.3,522.7c0,0,1.601,3.7,2.101,8.5s1.1,15.1,1.399,18.2c0.2,3,0.3,10.5-5,17.6s-8.1,9.9-15.2,7.1
	c-7.1-2.8-6.899-14.7-5.699-20.8c1.3-6.1,2.399-19.8,2.3-21.3c-0.1-1.4,0.6-4.6,0.6-4.6L1071.3,522.7z"/>
<linearGradient id="SVGID_3_" gradientUnits="userSpaceOnUse" x1="1402.9688" y1="1261.7715" x2="1236.0542" y2="1309.7454" gradientTransform="matrix(1 0 0 -1 -298.2939 1724.0391)">
	<stop  offset="0" style="stop-color:#1F295A"/>
	<stop  offset="0.455" style="stop-color:#1D4377"/>
	<stop  offset="1" style="stop-color:#0067A4"/>
</linearGradient>
<path fill="url(#SVGID_3_)" d="M972.3,364.3c0,0,1.5,54.6,14.2,83.601c0,0,9.1,25.5,10.3,55.899c0,0-2.1,5.2,0.9,9.5
	s21.7,8.1,24.8-5.8c3.1-14,1.9-40.1-1.5-51s1.2-40.9,1.2-40.9s5.1,3.3,11.8,24.8c6.7,21.6,11.6,29.8,13.9,35.8
	c1.899,5,3.699,31.399,3.399,50.3c-0.1,6.3,5.8,11.1,11.9,9.5c3-0.7,5.7-2.1,7.2-4.6c4.399-7.2,5.8-44.601,4.699-56.601
	c-1.1-11.899-6.1-50.1-5.399-62c0.7-11.8,3.1-21.4,0.399-33.2c-2.699-11.8-82.5-38-82.5-38L972.3,364.3z"/>
<path opacity="0.6" fill="#11122E" enable-background="new    " d="M1069.7,412.8c0.7-11.8,3.1-21.4,0.399-33.2
	c-1-4.4-12.899-10.9-27.399-17.3c-24.4-2.2-55.4-4.8-57.5-4.5c-1.9,0.3-7,2.2-11.2,3.9l-1.7,2.5c0,0,0.101,3.3,0.4,8.7
	c5.7,1.7,16.7-0.1,16.7-0.1c1.5,3.8,11.1,17.4,22.899,23.3s46.5,3.9,48.5,6.1c2,2.2,2.4,32.1,2.2,35.899s3.3,27.7,6.5,48.9
	c3.2,20.8-1.7,46.1-1.8,46.899c1.1-0.699,2.1-1.6,2.8-2.699c4.4-7.2,5.8-44.601,4.7-56.601C1074,462.9,1069,424.7,1069.7,412.8z"/>
<radialGradient id="SVGID_4_" cx="1255.6826" cy="1546.8496" r="345.9015" gradientTransform="matrix(1 0 0 -1 -298.2939 1724.0391)" gradientUnits="userSpaceOnUse">
	<stop  offset="0" style="stop-color:#28A3DD"/>
	<stop  offset="0.1678" style="stop-color:#4396C8"/>
	<stop  offset="0.1697" style="stop-color:#4395C8"/>
	<stop  offset="0.379" style="stop-color:#2162AC"/>
	<stop  offset="0.4735" style="stop-color:#134FA3"/>
	<stop  offset="1" style="stop-color:#233C7A"/>
</radialGradient>
<path fill="url(#SVGID_4_)" d="M999,185.7c0,0-17.7,4-23.7,5.4c-1,0.2-1.8,0.9-2.2,1.9c-1.699,4.4-6,17.9-2.8,37.6
	c4,24.3,2.7,40.6,2.7,40.6l-8.2,42.6c0,0-10.3,40.6-9.399,41.7c0.899,1.1,23.699,18.5,30.8,16c7.1-2.4,4.8-6.5,4.8-6.5
	s5.8,29.4,31.4,29.1c25.6-0.3,46.5-0.2,50.8-10.5c4.3-10.3-1.2-53.8-5.7-71c-4.5-17.2-15.2-51.5-15.2-51.5l37.5-41.5l-32-24.5
	c0,0-7.7-14.2-10.8-16c-3.1-1.8-4.8-0.3-4.8-0.3L999,185.7z"/>
<path fill="#F1F6FC" d="M1046.4,178.9c0,0,6.5,7.9-2.9,18.6c-5.8,6.6-15.8,20.8-24.3,35.5c-5.3,9.2-10.2,14.1-13,22
	c0,0-0.4-9.4-0.8-23.9c-0.4-13.7-0.5-27.9,0.1-31.5C1006.9,192.3,1039.2,175.4,1046.4,178.9z"/>
<path fill="#FCD1C6" d="M1021.9,202.8c0,0-3.301,2.1-4.5,1.9c-1.2-0.2-4.9-3.8-4.9-3.8s-9.3-0.2-10.3-4.1c-1-4-1.7-8-2.601-10.1
	c-0.899-2.1-4.899-12-5-16c0-4,0.101-11.2-1.6-15c-1.7-3.8-4.1-41.9,32.7-40.8s25.399,39.3,25.399,39.3s2.7,1.1,1.101,6.1
	c-1.601,4.9-2,5.4-2.8,7.9c-0.801,2.4-1.2,4-3.601,6l-0.6,4.5c0,0,1.7,6.9-2.8,13.6C1037.8,198.9,1021.9,202.8,1021.9,202.8z"/>
<radialGradient id="SVGID_5_" cx="1240.0313" cy="1513.2246" r="357.5057" gradientTransform="matrix(1 0 0 -1 -298.2939 1724.0391)" gradientUnits="userSpaceOnUse">
	<stop  offset="0.0161" style="stop-color:#5ABBEA"/>
	<stop  offset="0.1785" style="stop-color:#2367B2"/>
	<stop  offset="0.4839" style="stop-color:#01568A"/>
	<stop  offset="0.7312" style="stop-color:#19457D"/>
	<stop  offset="0.9247" style="stop-color:#253D8D"/>
</radialGradient>
<path fill="url(#SVGID_5_)" d="M974.4,191.6c0,0-3.9,0.6-16.7,32.6c-7.101,17.9-18.101,36.4-20.4,49.7c-2.3,13.3-1,27.5,1.601,28.5
	c2.5,1,48.3,18.1,62.6,23.5c0.8,0.3,1.7-0.2,1.8-1l3.9-22.1l-28.4-11c0,0-5.399-6.6-10.5-9.1c0,0,5.7-10.5,5.3-13.4
	c-0.399-2.9,0.5-32.5-2.8-44.5C967.6,212.7,974.4,191.6,974.4,191.6z"/>
<path fill="#FCD1C6" d="M991,276.2c0,0-3.9-2.6-4.9-3c-1-0.4-6.199-2.2-7.199-2.6c-0.7-0.3-3.801-0.1-5.301,0.1
	c-0.6,0.1-1,0.4-1.3,0.9c-1.2,2.2-4.6,8.8-4.2,11.3c0,0,9.5,6,10.5,8.6l1.5,0.3C980.1,291.7,986.5,278.2,991,276.2z"/>
<path opacity="0.6" fill="#11122E" enable-background="new    " d="M1067.7,312.7c-1.101-4.1-2.5-9.3-4.101-14.7l-57.5,24.6
	c0,0,17.2,21.2,47.4,19.8c8.2-0.4,14.3-3.3,18.7-5.9C1070.8,327.2,1069.2,318.5,1067.7,312.7z"/>
<radialGradient id="SVGID_6_" cx="1252.6191" cy="1516.2744" r="233.2843" gradientTransform="matrix(1 0 0 -1 -298.2939 1724.0391)" gradientUnits="userSpaceOnUse">
	<stop  offset="0" style="stop-color:#CED9EF"/>
	<stop  offset="0.1247" style="stop-color:#79D1EF"/>
	<stop  offset="0.285" style="stop-color:#5398C7"/>
	<stop  offset="0.4961" style="stop-color:#22629F"/>
	<stop  offset="0.5918" style="stop-color:#074F92"/>
	<stop  offset="0.6774" style="stop-color:#214186"/>
	<stop  offset="0.7832" style="stop-color:#31459C"/>
	<stop  offset="0.8871" style="stop-color:#25336D"/>
	<stop  offset="1" style="stop-color:#2A2C75"/>
</radialGradient>
<path fill="url(#SVGID_6_)" d="M1089.9,219.8c0,0-15.2,2.1-27.4,21.5c-12.2,19.4-21.2,41.9-21.2,41.9l-0.399,2.5
	c-1.101,6.6-8.101,10.4-14.301,7.7c-12.899-5.8-32.1-14.5-35.699-17.1c0,0-11.5,6.3-14.601,21.3c-2.5,11.9-1.899,12-1.899,12
	s51,23.8,70.8,23.6c19.7-0.2,44.7-65.1,47.5-78.5C1095.5,241.2,1098.6,223.6,1089.9,219.8z"/>
<path fill="#FCD1C6" d="M1026.2,293.1c0,0,1.8-1.6,4.1-3.6c2.3-1.9,6-9.9,6.601-10.6c0.6-0.7,8.3-6.6,12-6.7
	c3.699-0.1,1,4.1,0.1,4.6c-0.9,0.6-4.5,2.4-4.5,2.4s-3.7,3.1-4.2,3.6c-0.399,0.5,10.4-0.7,12.101,0.3c1.699,1.1,1.3,3.8,0.1,4.6
	c-1.2,0.8-2.1,0.7-2.1,0.7s1.199,3.3-2,4.8c-3.2,1.5-4,0.7-4,0.7s-0.301,5.6-5.601,4.5L1026.2,293.1z"/>
<linearGradient id="SVGID_7_" gradientUnits="userSpaceOnUse" x1="568.9629" y1="1586.4297" x2="631.8608" y2="1586.4297" gradientTransform="matrix(1 0 0 -1 422.3398 1724.0391)">
	<stop  offset="0" style="stop-color:#273649"/>
	<stop  offset="0.9731" style="stop-color:#0D1013"/>
</linearGradient>
<path fill="url(#SVGID_7_)" d="M992.2,136.2c0,0-4.8,15.3,7.8,10.9s24.1-11.6,28.1-8.9c3,2.1,2.9,8.6,2.601,11.5
	c-0.101,1,0.2,2,0.8,2.9l3.7,5.4c0.399,0.6,0.7,1.3,0.7,2.1l0.3,3.8c0.1,1,0.8,1.7,1.8,1.8h0.9c1,0.1,1.8-0.6,2-1.6l1-5.6
	c0,0,3-7.5,9.3-4.5c0,0,4.2-5.7,2.8-17.7c-1.4-12.1-6.8-24.6-30.5-26.7C999.7,107.7,992.2,136.2,992.2,136.2z"/>
<path fill="#C4CBD5" d="M1028.5,216.2l-3.5-2.8c0,0-3.3,2.7-4.6,5.6c-1.301,2.9,0,12.1,0,12.1l-1.101,1.9l-1.3-2.4l-1.1-10.9
	c0,0,1.199-8,1.3-8.2c0.1-0.2,6.8,0.7,6.8,0.7S1027.3,214,1028.5,216.2z"/>
<path fill="#C4CBD5" d="M1011.4,205.4c0,0-3.801,0.3-5.5,1.7c0,0,4,0.2,4.6,0.3C1011.1,207.4,1011.4,205.4,1011.4,205.4z"/>
<path fill="#28357C" d="M1025,212.2l-6.4-5.9c0,0-10-2.1-9.1,0.7c0.8,2.8,0.2,9.1,0.8,11.6c0,0.1,0.101,0.2,0.101,0.3
	c-0.301,1.3-1.301,5.1-2.4,6.9c-1.3,2.1-2.6,4.6-2.6,4.6l0.199,30.5c0,0,11.2-23.1,13.7-27.8c0,0-0.399-11.2-1.399-13.3
	C1019.4,214.8,1025,212.2,1025,212.2z"/>
<path fill="#E2B1A6" d="M1040.7,173.3c-7.4,21.3-28.101,27.6-28.101,27.6s3.7,3.6,4.9,3.8c1.2,0.2,4.5-1.9,4.5-1.9
	s15.8-3.8,20.4-10.6c4.6-6.7,2.8-13.6,2.8-13.6l0.6-4.5C1042.5,175.1,1040.7,173.3,1040.7,173.3z"/>
<path opacity="0.8" fill="#11122E" enable-background="new    " d="M1057.6,198.2c0,0-2.899,10-3.3,10.4c-0.399,0.4-7.3-0.4-7.3-0.4
	l3.4,6.4c0,0-34.9,37.5-42.2,57.6c0,0,16.5-25.5,45.6-56.1l-4.1-6.2l7.1,1.4L1057.6,198.2z"/>
<path opacity="0.8" fill="#11122E" enable-background="new    " d="M1000.2,189.3l-1.9,2.1l2.2,2l-6.5,5.8c0,0-2,41,5.9,68.1
	c0,0-10.7-24.9-8.301-69.2l7-4.7l-2.3-2.3L1000.2,189.3z"/>
<path opacity="0.6" fill="#11122E" enable-background="new    " d="M1022.2,415.5c0,0,0.1,0.1,0.2,0.2l-9-9.6
	c4.199,5.9-0.601,32.9-1.101,39c-0.5,6.2,4.8,18.9,6.8,33.9c2,14.9-2.1,36.2-2.1,36.3c2.6-1.5,4.6-4,5.5-7.899
	c3.1-14,1.9-40.101-1.5-51C1017.6,445.5,1022.2,415.5,1022.2,415.5z"/>
<path fill="#15151E" d="M1038.9,165.8c1,0.1,1.8-0.6,2-1.6l1-5.6c0,0,3-7.5,9.3-4.5c0,0,4-5.4,2.899-16.8
	c-7,10.5-22.5,15.3-22.5,15.3l3.7,5.4c0.4,0.6,0.7,1.3,0.7,2.1l0.3,3.8c0.101,1,0.8,1.7,1.8,1.8L1038.9,165.8z"/>
<circle fill="#282567" cx="1033" cy="637" r="8.7"/>
<circle fill="#282567" cx="1118.3" cy="540.2" r="8.7"/>
<circle fill="#282567" cx="1137" cy="606.4" r="8.7"/>
<path fill="#282567" d="M958.4,590c0,4.8-3.9,8.7-8.7,8.7s-8.7-3.9-8.7-8.7s3.9-8.7,8.7-8.7C954.5,581.4,958.4,585.3,958.4,590z"/>
<circle fill="#282567" cx="1003.3" cy="531.5" r="8.7"/>
<linearGradient id="SVGID_8_" gradientUnits="userSpaceOnUse" x1="621.8857" y1="1160.1465" x2="464.9124" y2="1121.8352" gradientTransform="matrix(1 0 0 -1 422.3398 1724.0391)">
	<stop  offset="0" style="stop-color:#5A64AD"/>
	<stop  offset="0.1564" style="stop-color:#5E66AF"/>
	<stop  offset="0.3409" style="stop-color:#686EB4"/>
	<stop  offset="0.5395" style="stop-color:#7A7DBC"/>
	<stop  offset="0.7481" style="stop-color:#9393C8"/>
	<stop  offset="0.9625" style="stop-color:#B6B5DB"/>
	<stop  offset="1" style="stop-color:#BEBDDF"/>
</linearGradient>
<path fill="url(#SVGID_8_)" d="M1045.3,563.6L950,581.9c-0.4,0-0.8,0.1-1.2,0.2l0.101-0.601l-4.601-1.2v5.4l0,0
	c0,0.2,0,0.4,0.101,0.6c0.6,2.101,4,3.601,7.699,3.2l95.301-18.399L1045.3,563.6z"/>
<path fill="#252464" d="M1125.1,530.9l-2.899,2.399c-2.5-1.1-6.3-0.8-8.9,0.7l-67.8,29.5l9.5,5.5l67.8-29.5
	c1.601-0.899,2.4-2.1,2.3-3.2l0,0V530.9z"/>
<linearGradient id="SVGID_9_" gradientUnits="userSpaceOnUse" x1="603.522" y1="1177.833" x2="562.903" y2="1217.0964" gradientTransform="matrix(1 0 0 -1 422.3398 1724.0391)">
	<stop  offset="0" style="stop-color:#5A64AD"/>
	<stop  offset="0.1564" style="stop-color:#5E66AF"/>
	<stop  offset="0.3409" style="stop-color:#686EB4"/>
	<stop  offset="0.5395" style="stop-color:#7A7DBC"/>
	<stop  offset="0.7481" style="stop-color:#9393C8"/>
	<stop  offset="0.9625" style="stop-color:#B6B5DB"/>
	<stop  offset="1" style="stop-color:#BEBDDF"/>
</linearGradient>
<path fill="url(#SVGID_9_)" d="M1009.8,524.3c-1.7-1.9-5.7-2.7-9-1.7l0,0c-0.399,0.101-0.8,0.3-1.1,0.4c-0.2-0.3-0.3-0.5-0.601-0.8
	c-0.6-0.6-2-1.4-2-1.4v5.4l0,0c0,0.6,0.2,1.1,0.7,1.6l43.8,40l12-3.5L1009.8,524.3z"/>
<path fill="#252464" d="M1143.2,597.2l-1.601,0.6l-0.899,1.9c-0.3-0.2-0.7-0.3-1.101-0.4l-85.899-34.9l-6.101,6.9l85.9,34.9
	c3.3,1,7.4,0.2,9-1.7l0,0c0.5-0.6,0.7-1.2,0.7-1.8l0,0V597.2z"/>
<path fill="#252464" d="M1041.6,567.9l-14.1,60.5l-1.1-0.5v5.6l0,0c0.199,1.8,2.5,3.3,5.6,3.6c3.7,0.3,7.1-1.1,7.7-3.2l15.1-64.6
	L1041.6,567.9z"/>
<radialGradient id="SVGID_10_" cx="490.6445" cy="1178.875" r="261.9849" gradientTransform="matrix(1 0 0 -1 422.3398 1724.0391)" gradientUnits="userSpaceOnUse">
	<stop  offset="0.0161" style="stop-color:#5ABBEA"/>
	<stop  offset="0.3237" style="stop-color:#2367B2"/>
	<stop  offset="0.586" style="stop-color:#01568A"/>
	<stop  offset="0.7312" style="stop-color:#19457D"/>
	<stop  offset="0.9247" style="stop-color:#253D8D"/>
</radialGradient>
<path fill="url(#SVGID_10_)" d="M1139.6,593.9l-79.699-32.4l62.899-27.4c2.8-1.6,3.101-4.1,0.7-5.5l-0.7-0.399
	c-2.399-1.4-6.7-1.2-9.5,0.399L1050.4,556l-40.601-37.1c-1.7-1.9-5.7-2.7-9-1.7l0,0c-3.3,1-4.6,3.3-2.899,5.2l40.6,37.1l-88.4,17
	c-3.699,0.3-6.199,2.3-5.6,4.4c0.6,2.1,4,3.6,7.7,3.2l88.399-17l-14,60c-0.6,2.1,1.9,4.1,5.601,4.399s7.1-1.1,7.7-3.2l14-60
	l79.699,32.4c3.301,1,7.4,0.2,9-1.7C1144.2,597.2,1142.9,594.9,1139.6,593.9z M1051.3,561.6l-1.5,1.7l-3.2-0.3l-0.5-1.9l2.9-0.899
	L1051.3,561.6z"/>
<path fill="#282567" d="M1048.6,566.5L1048.6,566.5c-3.8,0-7-3.1-7-6.9v-80.5h13.9v80.5C1055.5,563.4,1052.4,566.5,1048.6,566.5z"/>
<radialGradient id="SVGID_11_" cx="498.6299" cy="1363.4395" r="58.0382" gradientTransform="matrix(1 0 0 -1 422.3398 1724.0391)" gradientUnits="userSpaceOnUse">
	<stop  offset="0" style="stop-color:#E49B66"/>
	<stop  offset="0.401" style="stop-color:#8456A3"/>
	<stop  offset="0.4827" style="stop-color:#7A55A3"/>
	<stop  offset="0.7262" style="stop-color:#5E52A3"/>
	<stop  offset="1" style="stop-color:#46429A"/>
</radialGradient>
<path fill="url(#SVGID_11_)" d="M1011.6,383.5L1011.6,383.5c-0.199-1.8-1.399-3.5-3.6-4.8l-1.5-0.8c-5.4-3.1-14.8-2.7-21.1,0.9
	l-43.9,25.4c-3.3,1.9-5,4.3-5.1,6.7l0,0v7.7l0,0c0,2,1.199,3.9,3.6,5.3l1.5,0.8c5.4,3.1,14.8,2.7,21.1-0.9l43.9-25.4
	c3.2-1.9,4.9-4.2,5.1-6.4l0,0V383.5z"/>
<radialGradient id="SVGID_12_" cx="485.3799" cy="1367.1699" r="127.1686" gradientTransform="matrix(1 0 0 -1 422.3398 1724.0391)" gradientUnits="userSpaceOnUse">
	<stop  offset="0.1882" style="stop-color:#5ABBEA"/>
	<stop  offset="0.2671" style="stop-color:#59B8E8"/>
	<stop  offset="0.3306" style="stop-color:#54B1E4"/>
	<stop  offset="0.3887" style="stop-color:#4DA6DC"/>
	<stop  offset="0.4436" style="stop-color:#4496D1"/>
	<stop  offset="0.4962" style="stop-color:#3882C4"/>
	<stop  offset="0.5465" style="stop-color:#296DB6"/>
	<stop  offset="0.5602" style="stop-color:#2367B2"/>
	<stop  offset="0.6935" style="stop-color:#01568A"/>
	<stop  offset="0.8387" style="stop-color:#19457D"/>
	<stop  offset="0.9247" style="stop-color:#253D8D"/>
</radialGradient>
<path fill="url(#SVGID_12_)" d="M941.5,417.1l-1.5-0.8c-5.4-3.1-4.7-8.6,1.5-12.2l43.9-25.4c6.199-3.6,15.699-4,21.1-0.9l1.5,0.8
	c5.4,3.1,4.7,8.6-1.5,12.2l-43.9,25.4C956.3,419.8,946.9,420.2,941.5,417.1z"/>
<path fill="#525252" d="M1034.5,452.5l-92,53.1c-4.6,2.601-8.3-0.199-8.3-6.199l0,0c0-6.101,3.7-13.101,8.3-15.801l105.4-60.8v4.2
	C1047.9,436.8,1041.9,448.2,1034.5,452.5z"/>
<radialGradient id="SVGID_13_" cx="509.8516" cy="1510.7334" r="322.8993" gradientTransform="matrix(1 0 0 -1 422.3398 1724.0391)" gradientUnits="userSpaceOnUse">
	<stop  offset="0" style="stop-color:#CED9EF"/>
	<stop  offset="0.3398" style="stop-color:#79D1EF"/>
	<stop  offset="0.4263" style="stop-color:#5398C7"/>
	<stop  offset="0.5402" style="stop-color:#22629F"/>
	<stop  offset="0.5918" style="stop-color:#074F92"/>
	<stop  offset="0.6774" style="stop-color:#214186"/>
	<stop  offset="0.7832" style="stop-color:#31459C"/>
	<stop  offset="0.8871" style="stop-color:#25336D"/>
	<stop  offset="1" style="stop-color:#2A2C75"/>
</radialGradient>
<path fill="url(#SVGID_13_)" d="M1041.3,225.7L1041.3,225.7c-3.2-1.7-7.3-1.5-11.8,1.1l-2.7,1.6c-10.2,5.9-18.399,21.6-18.399,35.2
	v182l24.399-14.1v5.8l-29.3,23.9l-66.6,44.7l93.6,52.899l53.8-41.4L1115,491.2l19.1-213L1041.3,225.7z"/>
<path fill="#2D2E2D" d="M972.7,526.1c0,0-2.5-6.6,2.399-11.5c4.9-4.899,30.801-15.8,32.7-17c1.9-1.2,11.2-8,11.2-8l2.8-6.399
	c0,0-52.6,5.1-53.3,5.899s-24.6,22.3-23.9,23.2c0.7,0.9,16.5,4.8,16.5,4.8l3,4.2L972.7,526.1z"/>
<radialGradient id="SVGID_14_" cx="662.0103" cy="1305.7324" r="107.5164" gradientTransform="matrix(1 0 0 -1 422.3398 1724.0391)" gradientUnits="userSpaceOnUse">
	<stop  offset="0" style="stop-color:#28A3DD"/>
	<stop  offset="0.0979" style="stop-color:#4396C8"/>
	<stop  offset="0.0984" style="stop-color:#4395C8"/>
	<stop  offset="0.1565" style="stop-color:#2162AC"/>
	<stop  offset="0.1828" style="stop-color:#134FA3"/>
	<stop  offset="1" style="stop-color:#233C7A"/>
</radialGradient>
<path fill="url(#SVGID_14_)" d="M1122.7,279.5l-2.7,1.6c-10.2,5.9-18.4,21.6-18.4,35.2v182l-65.8,38c-4.6,2.601-8.3,9.7-8.3,15.801
	l0,0c0,6.1,3.7,8.899,8.3,6.199l92-53.1c7.4-4.3,13.4-15.7,13.4-25.6v-4.2v-182C1141.1,279.9,1132.8,273.6,1122.7,279.5z"/>
<radialGradient id="SVGID_15_" cx="529.3242" cy="1147.083" r="30.182" gradientTransform="matrix(1 0 0 -1 422.3398 1724.0391)" gradientUnits="userSpaceOnUse">
	<stop  offset="0" style="stop-color:#0D133A"/>
	<stop  offset="0.3333" style="stop-color:#17214C"/>
	<stop  offset="1" style="stop-color:#233B7A"/>
</radialGradient>
<path fill="url(#SVGID_15_)" d="M947.8,565.5c0,0-13.6,8.7-18.1,13.8c-4.601,5.1-13.7,15.6-9.9,20.6c3.7,5,16.4,7.801,29.9-4.699
	c13.6-12.5,9.7-13.2,21.3-19.4c11.5-6.2,14.7-12.9,13.3-16.8c-1.399-3.9-7.1-10.7-10.2-9.2C970.9,551.4,947.8,565.5,947.8,565.5z"/>
<radialGradient id="SVGID_16_" cx="598.7617" cy="1109.0986" r="29.1159" gradientTransform="matrix(1 0 0 -1 422.3398 1724.0391)" gradientUnits="userSpaceOnUse">
	<stop  offset="0" style="stop-color:#0D133A"/>
	<stop  offset="0.3333" style="stop-color:#17214C"/>
	<stop  offset="1" style="stop-color:#233B7A"/>
</radialGradient>
<path fill="url(#SVGID_16_)" d="M1013.7,602.1c0,0-4.9,10.7-7.4,14.3c-2.5,3.601-14.7,24-8.3,28.801c6.3,4.699,18.4,3.399,27.9-6.9
	s11.6-22.9,14-27c2.3-4.1,8.199-15.2,5.399-21.5c-2.8-6.4-3.399-7.5-3.399-7.5L1013.7,602.1z"/>
<linearGradient id="SVGID_17_" gradientUnits="userSpaceOnUse" x1="494.7705" y1="1197.9551" x2="665.7725" y2="1197.9551" gradientTransform="matrix(1 0 0 -1 422.3398 1724.0391)">
	<stop  offset="0" style="stop-color:#1F295A"/>
	<stop  offset="0.455" style="stop-color:#1D4377"/>
	<stop  offset="1" style="stop-color:#0067A4"/>
</linearGradient>
<path fill="url(#SVGID_17_)" d="M964.5,449.6c0,0-40.3,39.7-46.9,59.7c0,0-2.8,10.801,5,19.2c7.801,8.5,24.301,36.1,24.301,36.1
	s12.3,14.9,28.3,3c0,0,7.2-11.5,2.8-19.2c-4.4-7.699-16.2-32.1-16.2-32.1s25.8-17.8,38.601-22.3c12.699-4.5,19.6-8,19.6-8
	s-2.3,12-11.6,23.8c-9.301,11.7-24.9,30.6-19.7,43.7c5.2,13.1,8.2,17.2,13.1,24.7c4.9,7.5,9.5,23.3,13.7,25c4.2,1.6,23.4,3.5,26.6-9
	c3.101-12.5-6.6-36.9-10.899-45.2c0,0,52.1-60.1,57.1-66.7C1092.9,475.8,980.6,439.4,964.5,449.6z"/>
<path fill="#211C58" d="M978,548.4c-4.4-7.7-16.2-32.101-16.2-32.101s25.8-17.8,38.601-22.3c12.699-4.5,19.6-8,19.6-8
	c2.4-3.399,10.4-16.3,13.9-26.5c-29.4-8.6-61.301-15.1-69.301-10c2.801,7,17.801,7,17.801,7s5.6,13.601,9.3,15.4
	c3.7,1.7,12.6-0.2,12.6-0.2s-1.399,2.2-7.8,6.8c-6.3,4.601-46,37-46,37s2.3,1.3,12.8,20.4c10.5,19.1,11.9,31.7,11.9,31.7
	S982.4,556.1,978,548.4z"/>
<path opacity="0.6" fill="#11122E" enable-background="new    " d="M1067,470.7c-23.3-2.2-50.4-2.4-44.3,9.8
	c10.399,20.7,31.2,21.7,31.2,21.7c-0.101,7.6-32.101,44.4-32.101,44.4s0,0,7.4,14.5c7.399,14.5,6.5,40.899,6.5,40.899
	c2.899-1.6,5.2-4,6.1-7.6c3.101-12.5-6.6-36.9-10.899-45.2c0,0,52.1-60.1,57.1-66.7C1089.4,480.4,1080.6,475.9,1067,470.7z"/>
<radialGradient id="SVGID_18_" cx="576.5801" cy="1431.7051" r="218.8255" gradientTransform="matrix(1 0 0 -1 422.3398 1724.0391)" gradientUnits="userSpaceOnUse">
	<stop  offset="0" style="stop-color:#28A3DD"/>
	<stop  offset="0.1678" style="stop-color:#4396C8"/>
	<stop  offset="0.1697" style="stop-color:#4395C8"/>
	<stop  offset="0.379" style="stop-color:#2162AC"/>
	<stop  offset="0.4735" style="stop-color:#134FA3"/>
	<stop  offset="1" style="stop-color:#233C7A"/>
</radialGradient>
<path fill="url(#SVGID_18_)" d="M923.7,343.6l6.2-4.8c0,0,33.399-18.5,44.5-24.6c6-3.3,12.3-9.1,16.699-13.7
	c4.301-4.5,10.4-7.1,16.7-7.1l58.5-0.3c0,0,6.8,10.9,9.101,13.1c1.699,1.6,17.6,14.9,29,25.8c6.3,6.1,10.899,13.7,13.3,22.1
	c6.5,23,6.399,69.3,7.399,102.4c0,0-4,1.6-14.1,3.7c-10,2.1-8.7,0.8-8.7,0.8s-14.899,33.6-35.199,36.8c-20.301,3.2-47.5-6.2-52.4-38
	c0,0-39.5-5.899-50.2-10.3c-1-0.4-1.3-1.6-0.7-2.5c4.8-6.3,22.601-30.9,24.3-46.9c2-18.5,1.4-45.4-0.1-52.7c0,0-29.8,11.2-39.3,13.2
	c0,0-36.3,39.8-51.4,50.7c0,0,5.2-8.2-5.2-13.7L923.7,343.6z"/>
<path opacity="0.6" fill="#11122E" enable-background="new    " d="M1111.1,460.2c1.5-0.3,2.9-0.601,4.101-0.9l-2.101-4.1
	l-54.899-5.8l-32.101,1.7l-11,10.5c0.601,3.399,1.5,6.6,2.601,9.399c0.1,0,13.6,2,19.899,0.601c6.301-1.4,55.2,5.8,55.301,5.899
	c5.5-7.899,9-15.399,9.399-16.3C1102.2,461.4,1102.8,462,1111.1,460.2z"/>
<path fill="#FCD1C6" d="M1036.9,441.1c-0.101-0.199-0.2-0.3-0.4-0.399c-2.6-0.101-19.8-0.601-26.3-2.8c-7-2.4-14.5-2-14.9-1.601
	c-0.399,0.4-12.1,5.4-12.8,7.4c-0.6,1.8-1.7,8-0.2,10.3c1.601,2.3,2.3,3.8,2.3,3.8l1.2,0.101c0,0,1.601,3.1,2.5,4.199
	c0.4,0.5,0.7,1,1,1.601c0.7,1.6,2,4.2,2.601,4.3c0.8,0.1,4.399,0.8,5.3,0.6c0.8-0.199,1.399-2.5,1.1-3.5c-0.1-0.3,0.101-0.5,0.3-0.6
	c1.7-0.3,6.2-0.8,12.5-0.3c7.601,0.7,18.4-4.3,19.4-4.8c0.1,0,0.1,0,0.2,0l10.8-1c0.3,0,0.5-0.3,0.4-0.601L1036.9,441.1z"/>
<path fill="#F1F6FC" d="M1024,327.6c0,0-9.2,33.8,0.5,68.5c0,0,35.3-65.8,39.1-76.4c3.801-10.7,5.2-18.3,1.601-22.1
	c-3.601-3.8-35.4,16-35.4,16L1024,327.6z"/>
<path fill="#C4CBD5" d="M1033,380.6c0,0,6.7-20.5,5.5-27.2c-1.2-6.6-2.8-11.4-2.8-11.4l6.1-5.6l2.7,5.5c0,0,13.3-9.8,14.2-11.6
	c0,0-10.7,7.4-14.101,8.5c0,0-1.6-2.6-3.699-3.5c-2.101-0.9-7.4,6.3-7.4,6.3l-1,12.5l-5.3,29.1l1.8,4.3L1033,380.6z"/>
<path fill="#28357C" d="M1040.9,335.3c0,0-6-10.5-13.7-7.3c0,0-1.2,13-0.2,14.2c-1.7,2.3-6.1,8.5-6.8,15.4
	c-2.101,19.3,4.399,38.5,4.399,38.5l5.2-9.8c0,0,1.3-11.8,4.8-24.6c2.5-9.4,1.2-16.9,0.4-20.1
	C1037.1,339.7,1040.9,335.3,1040.9,335.3z"/>
<path fill="#FCD1C6" d="M1007.5,273.7c0,0-1.6,8.2-1,9.8s2.7,2.6,2.2,5.8c-0.5,3.2,1.3,12.8,2.3,16c0,0-0.7,3.4,0.3,4.5
	c1,1.1,2.2,1,3.101,2.6c0.899,1.6,1.199,9.9,4.6,12.7c3.4,2.8,7.7,3.3,10,2.7c2.3-0.6,4.6-2.3,4.6-2.3l5.101,2.1
	c0,0,26.2-7.4,25.399-25.8v-1.9c0,0,1.9-2.6,2.4-4.3c0.5-1.7,4.9-9.4,2.7-12.7c0,0,10.2-40.1-21.2-42.5
	C1016.4,237.8,1011.7,259.8,1007.5,273.7z"/>
<path fill="#E2B1A6" d="M1063.8,301.7v-0.2c-1.3-0.8-2.6-1.3-3.6-1.1c-3.601,0.6-2.8-6.8-2.8-6.8s-0.7,1.3-2.5,10.9
	c-1.801,9.5-21.601,21-21.601,21l5.101,2.1C1038.4,327.5,1064.6,320.1,1063.8,301.7z"/>
<linearGradient id="SVGID_19_" gradientUnits="userSpaceOnUse" x1="582.645" y1="1459.375" x2="650.0898" y2="1459.375" gradientTransform="matrix(1 0 0 -1 422.3398 1724.0391)">
	<stop  offset="0" style="stop-color:#273649"/>
	<stop  offset="0.9731" style="stop-color:#0D1013"/>
</linearGradient>
<path fill="url(#SVGID_19_)" d="M1007.6,256.3c-3.1,6.5-4.5,14.3,1.9,19.6c0,0,5.4,1.5,15.6-3.3c6.9-3.2,13.801-1.8,17.601-0.5
	c1.7,0.6,2.899,2.2,2.8,4.1l-0.2,5.7c0,1.5,0.8,2.8,2.2,3.4l4.8,2l0.9,5.5c0.3,1.6,2,2.6,3.5,2.1l1.2-0.4
	c0,0,0.699-12.4,10.899-11.7c0,0,8.3-17.8-0.2-34.2c-8.5-16.3-31.6-15.1-36.6-13.3c-6.5,2.4-5.6,2.1-9.3,4.4
	C1016.3,243.7,1010.9,249.4,1007.6,256.3z"/>
<path opacity="0.6" fill="#11122E" enable-background="new    " d="M1091,382.1c0,0-4.7,35-6.7,44.9l-15.3,8.1l27.2-1.699
	L1091,382.1z"/>
<path fill="#15151E" d="M1068.9,282.8c0,0,2.8-6,3.5-14.3c-12.7,10-26.801,7.7-26.801,7.7l-0.199,5.7c0,1.5,0.8,2.8,2.199,3.4
	l4.801,2l0.899,5.5c0.3,1.6,2,2.6,3.5,2.1l1.2-0.4C1058,294.5,1058.7,282.1,1068.9,282.8z"/>
<path opacity="0.8" fill="#11122E" enable-background="new    " d="M1075.7,313.5c0,0-8.101,27.9-9.8,33.2l-6.5-0.7l1.199,8.8
	l-35.199,46.4l39-44.8l-1.5-7.9l5.899,0.6L1075.7,313.5z"/>
<path fill="#273649" d="M1041.1,465c0,0,82.5-2.7,84.601-4.2c2.1-1.5,2.5-22.7,2.3-35c-0.1-8.6,0-42.4-7.4-66.1
	c5.801,20,2.7,90.899,0.101,94.5c-2.601,3.6-81.101,5.7-81.101,5.7l0,0C1040.5,462.9,1041.1,465,1041.1,465z"/>
<path fill="#FCD1C6" d="M879.1,399c0,0-0.3,2.1-3.899,4.1c-3.601,2-12.8,6.6-14.3,7.9s-8.101,7.1-8.301,7.9
	c-0.199,0.8-2.199,7.3-2.199,7.7c0,0.4,0.6,3.4,0.6,3.4l-2,9.7c0,0-2.6,3.8,0.2,4.8s4.399-1.9,4.5-2.3c0,0,4.3-2,7.399-4.4
	C864.2,435.4,876.7,425.3,878.9,425.9c2.1,0.6,0.199,4.2-0.9,4.8c-1,0.6-7.7,7.1-4.9,11.6c2.801,4.5,4.601-2.5,6.4-4
	c1.8-1.399,5.8-7.1,8.2-7.8c2.399-0.7,6.899-9.8,7.399-13.8c0.601-4.1,3.5-6.7,4.5-8c1-1.3-2.199-11.4-2.199-11.4l-12.4-3.9
	l-4.3,2.8L879.1,399z"/>
<g>
	<g>
		<defs>
			<path id="SVGID_20_" d="M1067.5,489.5l-1.5-0.8c-5.4-3.101-4.7-8.601,1.5-12.2l43.9-25.4c6.199-3.6,15.699-4,21.1-0.899l1.5,0.8
				c5.4,3.1,4.7,8.6-1.5,12.2l-43.9,25.399C1082.3,492.2,1072.9,492.6,1067.5,489.5z"/>
		</defs>
		<clipPath id="SVGID_21_">
			<use xlink:href="#SVGID_20_"  overflow="visible"/>
		</clipPath>
		<path clip-path="url(#SVGID_21_)" fill="#344659" d="M1114.5,345.8c-2.6-4.1-3.8-1.1-7.3,2.3c-4.7,4.6-10.601,11.6-13.601,20.6
			c-5.5,16.3-3.6,56.899-1.699,62.7c0,0-51.601,8.5-55.2,8.3c-3.601-0.2,4.399,25.3,4.399,25.3s82.5-2.7,84.601-4.2
			c2.1-1.5,2.5-22.7,2.3-35C1127.8,415.2,1128,367.2,1114.5,345.8z"/>
	</g>
	<g>
		<defs>
			<path id="SVGID_22_" d="M1067.5,489.5l-1.5-0.8c-5.4-3.101-4.7-8.601,1.5-12.2l43.9-25.4c6.199-3.6,15.699-4,21.1-0.899l1.5,0.8
				c5.4,3.1,4.7,8.6-1.5,12.2l-43.9,25.399C1082.3,492.2,1072.9,492.6,1067.5,489.5z"/>
		</defs>
		<clipPath id="SVGID_23_">
			<use xlink:href="#SVGID_22_"  overflow="visible"/>
		</clipPath>
		<path clip-path="url(#SVGID_23_)" fill="#273649" d="M1041.1,465c0,0,82.5-2.7,84.601-4.2c2.1-1.5,2.5-22.7,2.3-35
			c-0.1-8.6,0-42.4-7.4-66.1c5.801,20,2.7,90.899,0.101,94.5c-2.601,3.6-81.101,5.7-81.101,5.7l0,0
			C1040.5,462.9,1041.1,465,1041.1,465z"/>
	</g>
</g>
<radialGradient id="SVGID_24_" cx="653.9722" cy="1285.9316" r="94.6681" gradientTransform="matrix(1 0 0 -1 422.3398 1724.0391)" gradientUnits="userSpaceOnUse">
	<stop  offset="0" style="stop-color:#E49B66"/>
	<stop  offset="0.2827" style="stop-color:#8456A3"/>
	<stop  offset="0.3118" style="stop-color:#7A55A3"/>
	<stop  offset="0.3984" style="stop-color:#5E52A3"/>
	<stop  offset="0.5405" style="stop-color:#272668"/>
</radialGradient>
<path fill="url(#SVGID_24_)" d="M1137.7,455.9L1137.7,455.9c-0.2-1.801-1.4-3.5-3.601-4.801l-1.5-0.8c-5.399-3.1-14.8-2.7-21.1,0.9
	l-43.9,25.399c-3.3,1.9-5,4.301-5.1,6.7l0,0v7.7l0,0c0,2,1.2,3.9,3.6,5.3l1.5,0.8c5.4,3.101,14.801,2.7,21.101-0.899l43.899-25.4
	c3.2-1.899,4.9-4.2,5.101-6.399l0,0V455.9z"/>
<radialGradient id="SVGID_25_" cx="639.7935" cy="1291.2305" r="62.1698" gradientTransform="matrix(1 0 0 -1 422.3398 1724.0391)" gradientUnits="userSpaceOnUse">
	<stop  offset="0.0161" style="stop-color:#5ABBEA"/>
	<stop  offset="0.3075" style="stop-color:#2367B2"/>
	<stop  offset="0.5323" style="stop-color:#01568A"/>
	<stop  offset="0.7419" style="stop-color:#19457D"/>
	<stop  offset="1" style="stop-color:#253D8D"/>
</radialGradient>
<path fill="url(#SVGID_25_)" d="M1067.5,489.5l-1.5-0.8c-5.4-3.101-4.7-8.601,1.5-12.2l43.9-25.4c6.199-3.6,15.699-4,21.1-0.899
	l1.5,0.8c5.4,3.1,4.7,8.6-1.5,12.2l-43.9,25.399C1082.3,492.2,1072.9,492.6,1067.5,489.5z"/>
<path fill="#22356A" d="M988.1,705.8c-1.8,0-3.399-0.399-4.899-1.3c-3.5-2-5.4-6-5.4-11.3V574.8h5.101v118.5c0,3.3,1,5.8,2.8,6.8
	s4.399,0.7,7.3-1l98.6-56.899c6.9-4,12.7-14,12.7-22V501.7h5.1v118.5c0,9.9-6.699,21.5-15.3,26.4L995.5,703.5
	C993,705,990.4,705.8,988.1,705.8z"/>
<path fill="#22356A" d="M736.1,565.6c-1.8,0-3.399-0.399-4.899-1.3c-3.5-2-5.4-6-5.4-11.3V434.6h5.101V553c0,3.3,1,5.8,2.8,6.8
	s4.399,0.7,7.3-1l98.6-56.899c6.9-4,12.7-14,12.7-22V361.5h5.101V480c0,9.9-6.7,21.5-15.301,26.4L743.5,563.3
	C741,564.8,738.4,565.6,736.1,565.6z"/>
<rect x="709.51" y="548.046" transform="matrix(-0.8699 -0.4933 0.4933 -0.8699 1325.9512 1450.9858)" fill="#22356A" width="289.71" height="5.1"/>
<linearGradient id="SVGID_26_" gradientUnits="userSpaceOnUse" x1="289.8604" y1="1242.4395" x2="703.0605" y2="1242.4395" gradientTransform="matrix(1 0 0 -1 422.3398 1724.0391)">
	<stop  offset="0" style="stop-color:#6ECACE"/>
	<stop  offset="0.1324" style="stop-color:#6EC5CC"/>
	<stop  offset="0.2886" style="stop-color:#6CBCCA"/>
	<stop  offset="0.4568" style="stop-color:#68ADC6"/>
	<stop  offset="0.6335" style="stop-color:#6499BF"/>
	<stop  offset="0.8167" style="stop-color:#5F7FB6"/>
	<stop  offset="1" style="stop-color:#5A64AD"/>
</linearGradient>
<polygon opacity="0.5" fill="url(#SVGID_26_)" enable-background="new    " points="981.1,600.9 712.2,445.7 856.6,362.3 
	1125.4,517.5 "/>
<radialGradient id="SVGID_27_" cx="285.2822" cy="1286.7148" r="332.3774" gradientTransform="matrix(1 0 0 -1 422.3398 1724.0391)" gradientUnits="userSpaceOnUse">
	<stop  offset="0" style="stop-color:#CED9EF"/>
	<stop  offset="0.1946" style="stop-color:#60BFD4"/>
	<stop  offset="0.2926" style="stop-color:#4595BC"/>
	<stop  offset="0.4467" style="stop-color:#1B619D"/>
	<stop  offset="0.5165" style="stop-color:#074F92"/>
	<stop  offset="0.7742" style="stop-color:#214186"/>
	<stop  offset="0.9946" style="stop-color:#25336D"/>
</radialGradient>
<polygon fill="url(#SVGID_27_)" points="712.2,432.8 712.2,445.7 981.1,600.9 1125.4,517.5 1125.4,504.7 981.1,588 "/>
<radialGradient id="SVGID_28_" cx="267.3262" cy="1319.1533" r="461.1392" gradientTransform="matrix(1 0 0 -1 422.3398 1724.0391)" gradientUnits="userSpaceOnUse">
	<stop  offset="0" style="stop-color:#CED9EF"/>
	<stop  offset="0.1946" style="stop-color:#60BFD4"/>
	<stop  offset="0.2926" style="stop-color:#4595BC"/>
	<stop  offset="0.4467" style="stop-color:#1B619D"/>
	<stop  offset="0.5165" style="stop-color:#074F92"/>
	<stop  offset="0.7742" style="stop-color:#214186"/>
	<stop  offset="0.9946" style="stop-color:#25336D"/>
</radialGradient>
<polygon fill="url(#SVGID_28_)" points="981.1,588 712.2,432.8 856.6,349.4 1125.4,504.7 "/>
<path opacity="0.4" fill="#11122E" enable-background="new    " d="M996.8,467.1c0,0,10.3,3.7,18.2,2.4s45.9-2.1,45.9-2.1l-6-3.4
	l-13.301-9.3l-33,2.2l-12.699,4.6L996.8,467.1z"/>
<path fill="#FCD1C6" d="M1036.9,441.1c-0.101-0.199-0.2-0.3-0.4-0.399c-2.6-0.101-19.8-0.601-26.3-2.8c-7-2.4-14.5-2-14.9-1.601
	c-0.399,0.4-12.1,5.4-12.8,7.4c-0.6,1.8-1.7,8-0.2,10.3c1.601,2.3,2.3,3.8,2.3,3.8l1.2,0.101c0,0,1.601,3.1,2.5,4.199
	c0.4,0.5,0.7,1,1,1.601c0.7,1.6,2,4.2,2.601,4.3c0.8,0.1,4.399,0.8,5.3,0.6c0.8-0.199,1.399-2.5,1.1-3.5c-0.1-0.3,0.101-0.5,0.3-0.6
	c1.7-0.3,6.2-0.8,12.5-0.3c7.601,0.7,18.4-4.3,19.4-4.8c0.1,0,0.1,0,0.2,0l10.8-1c0.3,0,0.5-0.3,0.4-0.601L1036.9,441.1z"/>
<radialGradient id="SVGID_29_" cx="461.1963" cy="1397.4336" r="356.1198" gradientTransform="matrix(1 0 0 -1 422.3398 1724.0391)" gradientUnits="userSpaceOnUse">
	<stop  offset="0" style="stop-color:#CED9EF"/>
	<stop  offset="0.3398" style="stop-color:#79D1EF"/>
	<stop  offset="0.4263" style="stop-color:#5398C7"/>
	<stop  offset="0.5402" style="stop-color:#22629F"/>
	<stop  offset="0.5918" style="stop-color:#074F92"/>
	<stop  offset="0.6774" style="stop-color:#214186"/>
	<stop  offset="0.7832" style="stop-color:#31459C"/>
	<stop  offset="0.8871" style="stop-color:#25336D"/>
	<stop  offset="1" style="stop-color:#2A2C75"/>
</radialGradient>
<path fill="url(#SVGID_29_)" d="M1114.5,345.8c-2.6-4.1-3.8-1.1-7.3,2.3c-4.7,4.6-10.601,11.6-13.601,20.6
	c-5.5,16.3-3.6,56.899-1.699,62.7c0,0-51.601,8.5-55.2,8.3c-3.601-0.2,4.399,25.3,4.399,25.3s82.5-2.7,84.601-4.2
	c2.1-1.5,2.5-22.7,2.3-35C1127.8,415.2,1128,367.2,1114.5,345.8z"/>
<path opacity="0.6" fill="#11122E" enable-background="new    " d="M1041.1,465c0,0,82.5-2.7,84.601-4.2c2.1-1.5,2.5-22.7,2.3-35
	c-0.1-8.6,0-42.4-7.4-66.1c5.801,20,2.7,90.899,0.101,94.5c-2.601,3.6-81.101,5.7-81.101,5.7l0,0
	C1040.5,462.9,1041.1,465,1041.1,465z"/>
<path opacity="0.3" fill="#211C58" enable-background="new    " d="M893.3,422.8c0,0,29.5-23,33.7-25.3c4.2-2.2,6-3.9,6-3.9
	l-9.9-5.7l-16.699,6.9l-21,20.8L853,438.5v5.3c0,0,26.7-11.5,29.7-13.399C885.7,428.5,893.3,422.8,893.3,422.8z"/>
<path opacity="0.63" fill="#2D2E2D" enable-background="new    " d="M875.7,443.6c0,0,6.3-5.6,10.3-7.5
	c4.1-1.899,10.5-6.8,11.3-10.699c0.8-3.801,7.5-12.2,7.5-12.2l-10.7,6.2l-15.6,9l-25.9,15c0,0,1.601,1.8,4.9,0.699
	c3.3-1.1,9.4-5,12.3-5.399c2.9-0.4,7.601-1.2,7.601-1.2L875.7,443.6z"/>
<path fill="#FCD1C6" d="M879.1,399c0,0-0.3,2.1-3.899,4.1c-3.601,2-12.8,6.6-14.3,7.9s-8.101,7.1-8.301,7.9
	c-0.199,0.8-2.199,7.3-2.199,7.7c0,0.4,0.6,3.4,0.6,3.4l-2,9.7c0,0-2.6,3.8,0.2,4.8s4.399-1.9,4.5-2.3c0,0,4.3-2,7.399-4.4
	C864.2,435.4,876.7,425.3,878.9,425.9c2.1,0.6,0.199,4.2-0.9,4.8c-1,0.6-7.7,7.1-4.9,11.6c2.801,4.5,4.601-2.5,6.4-4
	c1.8-1.399,5.8-7.1,8.2-7.8c2.399-0.7,6.899-9.8,7.399-13.8c0.601-4.1,3.5-6.7,4.5-8c1-1.3-2.199-11.4-2.199-11.4l-12.4-3.9
	l-4.3,2.8L879.1,399z"/>
<radialGradient id="SVGID_30_" cx="556.5283" cy="1438.3262" r="234.7572" gradientTransform="matrix(1 0 0 -1 422.3398 1724.0391)" gradientUnits="userSpaceOnUse">
	<stop  offset="0.0161" style="stop-color:#5ABBEA"/>
	<stop  offset="0.1785" style="stop-color:#2367B2"/>
	<stop  offset="0.4839" style="stop-color:#01568A"/>
	<stop  offset="0.7312" style="stop-color:#19457D"/>
	<stop  offset="0.9247" style="stop-color:#253D8D"/>
</radialGradient>
<path fill="url(#SVGID_30_)" d="M990.9,331c0,0-0.5-18.5,2.699-32.6c-0.899,0.7-1.699,1.4-2.5,2.2c-4.5,4.7-10.699,10.5-16.699,13.7
	c-11.101,6-44.5,24.6-44.5,24.6l-6.2,4.8c-19.601,15.4-41.5,48.8-44.7,55.4c1.5-2,5.5-5.4,13-1.4c10.4,5.5,5.5,13.9,5.5,13.9
	c15.1-10.8,51.2-50.8,51.2-50.8c8.899-1.9,35.6-11.8,38.899-13.1C989.8,342,991.1,336.4,990.9,331z"/>
<path opacity="0.6" fill="#11122E" enable-background="new    " d="M830.2,465.2l108,62.3c1.2,0.7,3,0.8,4,0.2l64.399-37.2
	c1-0.6,0.9-1.6-0.3-2.3l-108-62.3c-1.2-0.7-3-0.8-4-0.2L829.9,462.9C828.8,463.5,829,464.5,830.2,465.2z"/>
<polygon opacity="0.5" fill="#0F1026" enable-background="new    " points="791.8,440 825.5,455.5 842.7,429.7 800,421.9 "/>
<radialGradient id="SVGID_31_" cx="347.0547" cy="1319.6045" r="105.3253" gradientTransform="matrix(1 0 0 -1 422.3398 1724.0391)" gradientUnits="userSpaceOnUse">
	<stop  offset="0.0161" style="stop-color:#5ABBEA"/>
	<stop  offset="0.1785" style="stop-color:#2367B2"/>
	<stop  offset="0.4839" style="stop-color:#01568A"/>
	<stop  offset="0.7312" style="stop-color:#19457D"/>
	<stop  offset="0.9247" style="stop-color:#253D8D"/>
</radialGradient>
<path fill="url(#SVGID_31_)" d="M808,393.1h-35.6l3.3,38.6l0,0c0,2.1,1.399,4.3,4.3,5.899c5.7,3.301,14.8,3.301,20.5,0
	c2.8-1.6,4.2-3.8,4.2-5.899L808,393.1z"/>
<path opacity="0.4" fill="#10113C" enable-background="new    " d="M808,393.1h-35.6l0.5,6.3c0.8,1,1.899,2.1,3.3,3
	c6.8,4.5,18,5.4,25.7,2.1l-1.2,28.2c-0.101,1.2-0.5,2.399-1.3,3.399c-1.2,1.4-3.4,3-7.7,3.9c3.2-0.2,6.2-1,8.6-2.4
	c2.8-1.6,4.2-3.8,4.2-5.899l2.7-30.9l0,0L808,393.1z"/>
<path opacity="0.4" fill="#10113C" enable-background="new    " d="M802.7,400.4c-7,4-18.2,4-25.2,0s-7-10.5,0-14.5s18.2-4,25.2,0
	C809.7,389.8,809.7,396.3,802.7,400.4z"/>
<path opacity="0.4" fill="#10113C" enable-background="new    " d="M801,395.7c-6,3.5-15.7,3.5-21.7,0s-6-9.1,0-12.5
	c6-3.5,15.7-3.5,21.7,0S807,392.3,801,395.7z"/>
<linearGradient id="SVGID_32_" gradientUnits="userSpaceOnUse" x1="348.9204" y1="1332.7012" x2="386.6978" y2="1332.7012" gradientTransform="matrix(1 0 0 -1 422.3398 1724.0391)">
	<stop  offset="0" style="stop-color:#049ABE"/>
	<stop  offset="0.1935" style="stop-color:#0359A4"/>
	<stop  offset="0.2473" style="stop-color:#045098"/>
	<stop  offset="0.3548" style="stop-color:#22376D"/>
</linearGradient>
<path fill="url(#SVGID_32_)" d="M809,392.6L809,392.6L809,392.6C809,392.6,809,392.5,809,392.6l-0.3-3.5l0,0c-0.2-2.6-2-5.2-5.4-7.2
	c-7.2-4.2-19-4.2-26.2,0c-3.5,2-5.399,4.7-5.399,7.4l0,0l-0.3,3.1c0,0.1,0,0.2,0,0.2l0,0l0,0c-0.2,2.9,1.6,5.9,5.5,8.1
	c7.399,4.3,19.3,4.3,26.699,0C807.4,398.5,809.2,395.6,809,392.6z"/>
<linearGradient id="SVGID_33_" gradientUnits="userSpaceOnUse" x1="352.46" y1="1334.5889" x2="383.1602" y2="1334.5889" gradientTransform="matrix(1 0 0 -1 422.3398 1724.0391)">
	<stop  offset="0" style="stop-color:#22376D"/>
	<stop  offset="0.7651" style="stop-color:#186EA2"/>
	<stop  offset="1" style="stop-color:#0983B9"/>
</linearGradient>
<path fill="url(#SVGID_33_)" d="M801,395.7c-6,3.5-15.7,3.5-21.7,0s-6-9.1,0-12.5c6-3.5,15.7-3.5,21.7,0S807,392.3,801,395.7z"/>
<linearGradient id="SVGID_34_" gradientUnits="userSpaceOnUse" x1="351.7598" y1="1334.5889" x2="382.46" y2="1334.5889" gradientTransform="matrix(1 0 0 -1 422.3398 1724.0391)">
	<stop  offset="0" style="stop-color:#22376D"/>
	<stop  offset="0.5808" style="stop-color:#1A4989"/>
	<stop  offset="1" style="stop-color:#0359A4"/>
</linearGradient>
<path fill="url(#SVGID_34_)" d="M800.3,395.7c-6,3.5-15.7,3.5-21.7,0s-6-9.1,0-12.5c6-3.5,15.7-3.5,21.7,0S806.3,392.3,800.3,395.7z
	"/>
<path opacity="0.4" fill="#10113C" enable-background="new    " d="M781.1,384.5c6-3.5,15.7-3.5,21.7,0c0.101,0,0.101,0.1,0.2,0.1
	c-0.6-0.5-1.3-1-2-1.5c-6-3.5-15.7-3.5-21.7,0c-5.899,3.4-6,8.9-0.2,12.4C775.2,392.2,775.9,387.5,781.1,384.5z"/>
<linearGradient id="SVGID_35_" gradientUnits="userSpaceOnUse" x1="352.4648" y1="1338.6514" x2="391.1611" y2="1338.6514" gradientTransform="matrix(1 0 0 -1 422.3398 1724.0391)">
	<stop  offset="0" style="stop-color:#22376D"/>
	<stop  offset="0.0691" style="stop-color:#213970"/>
	<stop  offset="0.1405" style="stop-color:#1E3F7A"/>
	<stop  offset="0.2126" style="stop-color:#13498B"/>
	<stop  offset="0.2473" style="stop-color:#045098"/>
	<stop  offset="0.7097" style="stop-color:#0359A4"/>
	<stop  offset="0.7202" style="stop-color:#025FA6"/>
	<stop  offset="0.7558" style="stop-color:#0170AD"/>
	<stop  offset="0.7937" style="stop-color:#017EB3"/>
	<stop  offset="0.8341" style="stop-color:#018AB8"/>
	<stop  offset="0.8781" style="stop-color:#0393BB"/>
	<stop  offset="0.9287" style="stop-color:#0398BD"/>
	<stop  offset="1" style="stop-color:#049ABE"/>
</linearGradient>
<path fill="url(#SVGID_35_)" d="M779.3,384.7c6-3.5,15.7-3.5,21.7,0c2.7,1.5,4.1,3.5,4.4,5.5c0.399-2.5-1.101-5.1-4.4-7
	c-6-3.5-15.7-3.5-21.7,0c-3.3,1.9-4.8,4.5-4.399,7C775.2,388.2,776.6,386.3,779.3,384.7z"/>
<radialGradient id="SVGID_36_" cx="344.2056" cy="1343.3418" r="68.8981" gradientTransform="matrix(1 0 0 -1 422.3398 1724.0391)" gradientUnits="userSpaceOnUse">
	<stop  offset="0.0161" style="stop-color:#5ABBEA"/>
	<stop  offset="0.1785" style="stop-color:#2367B2"/>
	<stop  offset="0.4839" style="stop-color:#01568A"/>
	<stop  offset="0.7312" style="stop-color:#19457D"/>
	<stop  offset="0.9247" style="stop-color:#253D8D"/>
</radialGradient>
<path fill="url(#SVGID_36_)" d="M803.4,382c-7.2-4.3-19-4.4-26.301-0.2c-7.3,4.1-7.399,10.9-0.1,15.2c7.2,4.3,19,4.4,26.3,0.2
	C810.5,393,810.6,386.2,803.4,382z M801,395.7c-2,1.2-4.4,1.9-7,2.3l-0.3-0.9c-0.101-0.4-0.5-0.6-0.8-0.6h-5.5
	c-0.4,0-0.7,0.3-0.801,0.6l-0.3,0.9c-2.6-0.4-5-1.1-7-2.3c-6-3.5-6-9.1,0-12.5c6-3.5,15.7-3.5,21.7,0S807,392.3,801,395.7z"/>
<path fill="#FFFFFF" d="M801,382.5c-6-3.5-15.7-3.5-21.7,0c-3.1,1.8-4.6,4.2-4.5,6.6c0.101-2.2,1.601-4.3,4.5-5.9
	c6-3.5,15.7-3.5,21.7,0c2.9,1.6,4.3,3.8,4.5,5.9C805.6,386.8,804.1,384.4,801,382.5z"/>
<path fill="#FFFFFF" d="M803.2,396.5c-7.3,4.1-19.101,4-26.3-0.2c-3.4-2-5.2-4.6-5.4-7.2c-0.1,2.8,1.6,5.7,5.4,7.9
	c7.199,4.3,19,4.4,26.3,0.2c3.8-2.2,5.7-5.1,5.5-7.9C808.6,391.9,806.8,394.5,803.2,396.5z"/>
<path fill="#1E1C56" d="M791.8,398.5h-3.3c-0.2,0-0.4-0.2-0.4-0.4V398c0-0.2,0.2-0.4,0.4-0.4h3.3c0.2,0,0.4,0.2,0.4,0.4v0.1
	C792.2,398.3,792,398.5,791.8,398.5z"/>
<linearGradient id="SVGID_37_" gradientUnits="userSpaceOnUse" x1="365.3799" y1="1326.1387" x2="370.7346" y2="1326.1387" gradientTransform="matrix(1 0 0 -1 422.3398 1724.0391)">
	<stop  offset="0" style="stop-color:#22376D"/>
	<stop  offset="0.0691" style="stop-color:#213970"/>
	<stop  offset="0.1405" style="stop-color:#1E3F7A"/>
	<stop  offset="0.2126" style="stop-color:#13498B"/>
	<stop  offset="0.2473" style="stop-color:#045098"/>
	<stop  offset="0.7097" style="stop-color:#0359A4"/>
	<stop  offset="0.7202" style="stop-color:#025FA6"/>
	<stop  offset="0.7558" style="stop-color:#0170AD"/>
	<stop  offset="0.7937" style="stop-color:#017EB3"/>
	<stop  offset="0.8341" style="stop-color:#018AB8"/>
	<stop  offset="0.8781" style="stop-color:#0393BB"/>
	<stop  offset="0.9287" style="stop-color:#0398BD"/>
	<stop  offset="1" style="stop-color:#049ABE"/>
</linearGradient>
<path fill="url(#SVGID_37_)" d="M791.8,397.6h-3.3c-0.2,0-0.4,0.2-0.4,0.4v0.1v0.1c0-0.2,0.2-0.3,0.4-0.3h3.3c0.2,0,0.3,0.1,0.4,0.3
	v-0.1V398C792.2,397.8,792,397.6,791.8,397.6z"/>
<path opacity="0.5" fill="#FFFFFF" enable-background="new    " d="M791.3,398.2c0,0,10-3.3,5.9-14.8c-4-11.4-11.9-14.9-8.7-24.1
	c0,0-5,7.4-0.3,17.4c4.6,10,5.6,8.9,5.6,13.7c-0.1,5.7-4.7,7.8-4.7,7.8H791.3z"/>
<path opacity="0.5" fill="#FFFFFF" enable-background="new    " d="M792.2,360.9c0,0-1-6.8,5.399-13.7c0,0-5.699,12.7-3.8,19
	C793.8,366.1,792.3,362.2,792.2,360.9z"/>
<radialGradient id="SVGID_38_" cx="702.7808" cy="1050.8555" r="25.7627" gradientTransform="matrix(-1 0 0 -1 1912.627 1724.0391)" gradientUnits="userSpaceOnUse">
	<stop  offset="0" style="stop-color:#0D133A"/>
	<stop  offset="0.3333" style="stop-color:#17214C"/>
	<stop  offset="1" style="stop-color:#233B7A"/>
</radialGradient>
<path fill="url(#SVGID_38_)" d="M1232.6,646.7c0,0,2.9,6,2.101,9.8c-0.8,3.9-10.2,17.2-12.9,24.6c-2.8,7.4-16.8,18.5-24.7,18.4
	c-7.899,0-15.1-3.3-11.399-12c3.8-8.7,7-12,10.1-16.1c3.101-4,9.2-15.5,10.101-20.3C1206.9,646.5,1232.6,646.7,1232.6,646.7z"/>
<radialGradient id="SVGID_39_" cx="737.6328" cy="1098.5283" r="28.0731" gradientTransform="matrix(1 0 0 -1 422.3398 1724.0391)" gradientUnits="userSpaceOnUse">
	<stop  offset="0" style="stop-color:#0D133A"/>
	<stop  offset="0.3333" style="stop-color:#17214C"/>
	<stop  offset="1" style="stop-color:#233B7A"/>
</radialGradient>
<path fill="url(#SVGID_39_)" d="M1194,610.7c0,0,1.3,7.8,0.1,10.6c-1.199,2.8-3.6,5.3-10.6,7.4c-7,2-13.5,2.7-25.1,9.6
	c-11.601,6.9-27.4,9.8-32.2,2.3s11.7-18.899,17.8-21.899s15.4-4.5,20.5-9s5.9-3.5,5.9-3.5L1194,610.7z"/>
<linearGradient id="SVGID_40_" gradientUnits="userSpaceOnUse" x1="552.623" y1="1179.29" x2="988.554" y2="1179.29" gradientTransform="matrix(-1 0 0 -1 1912.627 1724.0391)">
	<stop  offset="0" style="stop-color:#1F295A"/>
	<stop  offset="0.455" style="stop-color:#1D4377"/>
	<stop  offset="1" style="stop-color:#0067A4"/>
</linearGradient>
<path fill="url(#SVGID_40_)" d="M1236.3,473.9c0,0-5.7,51.5-4,69.6c1.7,18.2,13.3,51.7,9.5,74.3c-3.8,22.8-8.3,32.1-8.3,32.1
	s-15.6,15.9-27.4,1.7c0,0,5-9.2,4.301-32.899c-0.301-12.101-0.601-19-0.7-22.9c-0.101-3-0.9-5.8-2.4-8.3
	c-3.7-6.2-11.2-19.8-16.7-35.601c0,0,2.7,33.4,2.5,48.5c0,2.301,0.2,4.7,0.601,7c0.399,1.9,0.6,4.4,0.2,6.4
	c-0.801,3.9-14.7,18.6-26,6.8c0,0-4.4-2.899-3.4-12.2c0.6-6.1-0.9-19.399-2.3-30.199c-1.101-8.4-3.601-16.5-7.4-23.801
	c-3.1-6-6.1-18.3-8-23.899c-3.7-11.3-17.6-65.2-17.8-77.5c-0.2-12.2,14.9-21,14.9-21s34.699,17,34,18.8
	c-0.7,1.9,43.5,20.4,43.5,20.4L1236.3,473.9z"/>
<path opacity="0.6" fill="#11122E" enable-background="new    " d="M1143.8,432c0,0,34.7,17,34,18.8c-0.7,1.9,43.5,20.4,43.5,20.4
	l14.9,2.7c0,0-5.7,51.5-4,69.6c1.7,18.2,13.3,51.7,9.5,74.3c-3.8,22.8-8.3,32.1-8.3,32.1s-2.5,2.601-6.301,4.7
	c2.101-6.7,8.801-30.1,8.601-50.6c-0.2-23.9-10.7-62.5-11.2-75c-0.3-6.7-5.4-12.1-11.6-12.4c-10.101-0.399-24.9-2.1-35-7.8
	c3.199,13.4,12.699,43.1,12.699,43.1s2.9,35.7,2.4,49.9c0,1.4,0.1,2.9,0.4,4.3c0.5,2,1,5.2,0.5,7.601
	c-0.301,1.399-2.301,4.199-5.301,6.699c-0.3-14.699-3.199-51.899-4.3-60.399c-1.2-9.5-11.3-47.8-11.3-47.8
	c-5.3-4.101-7.9-14-8.9-18.9c-4.5-9.7-5.199-18.8-13.6-19c-0.7,0-11.1,12.8-18,2.7c-2.1-10.8-3.6-19.9-3.7-24
	C1128.7,440.8,1143.8,432,1143.8,432z"/>
<path fill="#E2B1A6" d="M1130.6,454.8l1.9,6.5c0,0,3,0.4,7.1-4.2c4.101-4.6,0.2-9,0.2-9l-7.7,1.7L1130.6,454.8z"/>
<radialGradient id="SVGID_41_" cx="822.7227" cy="1406.2246" r="287.0168" gradientTransform="matrix(-1 0 0 -1 1912.627 1724.0391)" gradientUnits="userSpaceOnUse">
	<stop  offset="0.0161" style="stop-color:#5ABBEA"/>
	<stop  offset="0.1785" style="stop-color:#2367B2"/>
	<stop  offset="0.4839" style="stop-color:#01568A"/>
	<stop  offset="0.7312" style="stop-color:#19457D"/>
	<stop  offset="0.9247" style="stop-color:#253D8D"/>
</radialGradient>
<path fill="url(#SVGID_41_)" d="M1157.6,276.8c0,0-2.199-0.1-7,2.5c-4.899,2.6-11.1,9.5-14.6,26.1c-3.5,16.7-18.2,59.9-19.3,67.9
	c-1.101,7.7,1.6,59,6.399,80.8c0.4,1.7,2,2.7,3.601,2.101c4.1-1.4,11.8-4.3,16.1-7.601c6.101-4.7,5-41.8,5-41.8l-4.2-47.6l6.801-39
	c0,0,9.699-30.8,8.3-32.8C1157.3,285.5,1157.6,276.8,1157.6,276.8z"/>
<radialGradient id="SVGID_42_" cx="771.3496" cy="1448.4512" r="301.6081" gradientTransform="matrix(-1 0 0 -1 1912.627 1724.0391)" gradientUnits="userSpaceOnUse">
	<stop  offset="0" style="stop-color:#28A3DD"/>
	<stop  offset="0.1678" style="stop-color:#4396C8"/>
	<stop  offset="0.1697" style="stop-color:#4395C8"/>
	<stop  offset="0.379" style="stop-color:#2162AC"/>
	<stop  offset="0.4735" style="stop-color:#134FA3"/>
	<stop  offset="1" style="stop-color:#233C7A"/>
</radialGradient>
<path fill="url(#SVGID_42_)" d="M1263.9,324.2c0,0,6.699,12.9-2.2,30c-9,17.3-30.5,52.6-30.5,52.6s7,49.3,6,61.4
	c-1,12.1-10,26.2-12.3,30.8c-2.301,4.5-21.101,16-42.801,5.1c-21.6-10.8-23.5-25.699-25.699-41.699c-2.101-16-1.5-15.101-1.5-15.101
	s-9.9,31.7-16,25.7c-2.601-2.5-2.801-10.4-2.101-18.6c1.5-17.5,2-35,1.2-52.2c0-0.6,0-1.2,0-1.6c0-5.5-1-56.1,0.5-69.7
	c1.5-13.5-0.6-35.1,6.5-43.9c5.9-7.3,12.6-10.2,12.6-10.2l10.101-0.5c0,0,58.8-4.8,63.899,2.7c5.101,7.5,6.9,12.3,6.9,12.3
	S1256.2,310,1263.9,324.2L1263.9,324.2z"/>
<path fill="#F1F6FC" d="M1217.3,270.6c0,0,2.4,1.3,3.4,4.1c1,2.8,3.899,10.4,5.5,12.5c0,0-26,24.6-35.7,37.2
	c-9.8,12.7-12.8,23.1-12.8,23.1l-13.5-15.8l4.2-4.7l2.3-10.4l4-11.8l2.899-11.7l32.301-18.3L1217.3,270.6z"/>
<path fill="#C4CBD5" d="M1191.5,304c0,0,5.2,3.5,7,8.4c0,0-5-3.5-6.6-3.9c0,0-3.801,3.6-4.5,5.1c-0.7,1.5,0,14.7,0,14.7l-1.801,2.7
	l-2.1,0.2c0,0-0.2-9.5-0.5-10s-0.6-8.1-0.5-8.7c0.2-0.6,7-7.1,7-7.1l2.4-1.6L1191.5,304z"/>
<path fill="#28357C" d="M1177.9,301.1c0,0,3.399-1.5,5.5-1c2.1,0.5,7.899,3.4,8.8,4.5c0.899,1.1-0.2,2.6-3.5,5.1s-3.7,4.1-3.7,4.1
	s1.9,10.8,0.8,17.3c0,0-6.899,12.3-8.399,18.2c-1.5,5.9-7.601-19.1-7.601-19.1s2.101-8,3.101-10s4.8-12.8,3.8-14.7
	C1175.7,303.7,1177.9,301.1,1177.9,301.1z"/>
<path opacity="0.8" fill="#11122E" enable-background="new    " d="M1236.5,293l-4.4,9.2l-7.8-0.4l0.9,8.1
	c0,0-32.101,21.4-44.4,43.7l0.8,2.4c0,0,14.4-23.8,45.5-43.4l1-0.6l-1.6-7.8l6.9,1.3L1236.5,293z"/>
<path fill="#FCD1C6" d="M1183.6,295.4c0,0,1.4,4,5.601,4.4c4.1,0.3,26.5-8.3,29.8-21.4c0,0-1.4-6.3-1.5-7.4c0,0,1.6-1.3,1.9-3.2
	c0.3-2,2.1-6.4,2.6-7.7c0.5-1.4,1.7-4.1,1-6.1c0,0,6.7-36.5-13.3-42.8c-20-6.2-34.601-0.2-41.101,20.5c0,0-1.6,5.6-2.899,9.7
	c-0.8,2.6-0.9,5.4-0.101,8c0.4,1.5,0.801,3,0.7,4.1c-0.2,2.5-1.5,8.3-0.399,15.4c0,0-1.601,3.9,1,5.3c2.6,1.4,2.1,12.9,2.1,12.9
	l7.4,7.6C1176.4,294.7,1177.9,296.4,1183.6,295.4z"/>
<linearGradient id="SVGID_43_" gradientUnits="userSpaceOnUse" x1="745.3955" y1="1490.0488" x2="805.2363" y2="1490.0488" gradientTransform="matrix(1 0 0 -1 422.3398 1724.0391)">
	<stop  offset="0" style="stop-color:#273649"/>
	<stop  offset="0.9731" style="stop-color:#0D1013"/>
</linearGradient>
<path fill="url(#SVGID_43_)" d="M1223.2,255.9c0,0,14.3-32.5-8.8-45.7c-18.101-10.3-39.7-4.5-46.301,19c0,0-2.5,5.2,5.601,8.1
	c8.1,2.9,18.5,6.1,23.3,6c4.7-0.1,7.1,2.6,7.2,8.8c0,3.5,0.5,4.9,0.8,5.5c0.4,0.6,0.5,1.3,0.5,1.9v1.2c0,0.8,0.5,1.6,1.2,1.8
	c1.1,0.4,2.399,0,2.5-0.2l0,0c0.5-3.9,2.6-7.3,5.8-9.4C1218.5,250.4,1222.7,249.3,1223.2,255.9z"/>
<path opacity="0.6" fill="#11122E" enable-background="new    " d="M1172.9,320.3c1-2,4.8-12.8,3.8-14.7s1.2-4.4,1.2-4.4
	s3.399-1.5,5.5-1c0.199,0,0.5,0.1,0.8,0.2c0,0.1,0,0.1,0,0.1s-2.8,5-3.4,6.2c-0.6,1.2-3.2,13.9-4.6,16.7
	c-1.4,2.8-4.101,12.7-4.101,12.7l-0.8-0.5c-0.8-3-1.399-5.3-1.399-5.3S1171.9,322.3,1172.9,320.3z"/>
<path fill="#E2B1A6" d="M1175,287.7c0,0,3.5,5.3,3.8,7.9c-1.8-0.3-2.399-0.9-2.399-0.9l-3-3C1174.2,289.6,1175,287.7,1175,287.7z"/>
<path fill="#FCD1C6" d="M1151.4,336.3c0,0-4-6.2-3.801-11.5c0.2-5.3,1.601-11.5,1.601-11.5s-3,0.1-2.8-4.3
	c0.199-4.4,1.399-8.5,2.899-9.6s3-0.8,3-0.8s1.101-3.6,4.3-3c0,0,0.101-2.3,2.801-4.1c2.699-1.8,4.399,0.9,4.399,0.9
	s1.101-3.8,2.2-4.5c1.1-0.7,3-0.8,3-0.8s5.1-0.7,6.1,0.7c0.9,1.4,3.4,16.2,3.2,16.9c-0.2,0.7-1.399,8.4-2.2,10.8
	c-0.8,2.4-6.699,8.6-7.6,11.6s-10.4,12.5-10.5,12.5C1157.8,339.5,1151.4,336.3,1151.4,336.3z"/>
<path opacity="0.6" fill="#11122E" enable-background="new    " d="M1155.1,447.2c0,0,0.301-51.5,8.801-74.3l-4.4,7.4
	c0,0-7.1,30.2-5.6,70.5L1155.1,447.2z"/>
<path opacity="0.6" fill="#11122E" enable-background="new    " d="M1156.4,366.5c0,0,38.3,34.4,38.5,34.8
	c0.199,0.4,56-34.6,56-34.6l1.699,3.9c-9.699,17-21.399,36.1-21.399,36.1s0.8,6,1.899,14.2c0,0-27.6,29.5-44.8,25.7
	c-14.8-3.199-30.7-52.6-34.7-65.8c-0.6-2.1-0.6-4.4,0.101-6.5L1156.4,366.5z"/>
<path fill="#E2B1A6" d="M1149.1,331.1c5.5-3.3,15.5-4.2,15.5-4.2l-11.6,10.2c-0.9-0.4-1.6-0.8-1.6-0.8s-1.4-2.2-2.5-5
	C1149,331.2,1149,331.2,1149.1,331.1z"/>
<radialGradient id="SVGID_44_" cx="414.1045" cy="1370.9697" r="487.0083" gradientTransform="matrix(-1 0 0 -1 1912.627 1724.0391)" gradientUnits="userSpaceOnUse">
	<stop  offset="0" style="stop-color:#CED9EF"/>
	<stop  offset="0.3398" style="stop-color:#79D1EF"/>
	<stop  offset="0.4263" style="stop-color:#5398C7"/>
	<stop  offset="0.5402" style="stop-color:#22629F"/>
	<stop  offset="0.5918" style="stop-color:#074F92"/>
	<stop  offset="0.6774" style="stop-color:#214186"/>
	<stop  offset="0.7832" style="stop-color:#31459C"/>
	<stop  offset="0.8871" style="stop-color:#25336D"/>
	<stop  offset="1" style="stop-color:#2A2C75"/>
</radialGradient>
<path fill="url(#SVGID_44_)" d="M1219.9,345.3c5.8-7.4,13.8-13.3,21.6-18.3c7-4.5,14.7-8,18.8-5.1c9,6.2,7.101,17.7,2.9,29.1
	c-4.2,11.5-42.9,76.4-70,75c0,0-19.5-20.2-28.5-36.1c-7.5-13.3-19.8-36.3-23.5-43.1c-0.601-1.2-0.4-2.6,0.6-3.5
	c5.3-4.8,21.5-19,26.3-16.6c0,0,11,27.9,22.101,41.6l8.7,8.3c0,0,7.3-13.2,12.899-20.8C1214,352.9,1217.1,349,1219.9,345.3z"/>
<path fill="#E2B1A6" d="M1189.1,299.8c-4.1-0.3-5.6-4.4-5.6-4.4s23-9.2,25.4-23.2c0,0,0.199,14.8-5.9,22.6
	C1197,298.1,1191.1,300,1189.1,299.8z"/>
<path fill="#15151E" d="M1209.2,262.1L1209.2,262.1c0,0.3-1.3,0.6-2.5,0.3c-0.7-0.2-1.3-1-1.2-1.8v-1.2c0-0.7-0.1-1.4-0.5-1.9
	c-0.4-0.6-0.8-2-0.8-5.5c0-2.8-0.601-4.9-1.5-6.3l0,0c0,0,12.899,1,23.5,0.8c-0.4,1.5-0.601,3-1,4.3c-0.9,2.9-1.9,5.1-1.9,5.1
	c-0.5-6.6-4.6-5.4-8.1-3.1C1211.8,254.8,1209.7,258.3,1209.2,262.1z"/>
<path fill="#1E262D" d="M1190.5,551.9c0,0,0,0.1,0,0.399C1190.5,552.2,1190.5,552,1190.5,551.9z"/>
<path opacity="0.6" fill="#11122E" enable-background="new    " d="M1210.6,655.6c-1.5-0.899-3.1-2.2-4.5-4c0,0,5-9.2,4.301-32.899
	c-0.301-12.101-0.601-19-0.7-22.9c-0.101-3-1-5.8-2.4-8.3c-3.5-5.9-10.5-18.5-15.899-33.3c0-0.101-0.101-0.2-0.101-0.301
	c3.9,6.801,21.5,27.9,23.8,44C1217.3,613.7,1212.3,645.7,1210.6,655.6z"/>
<path fill="#1E262D" d="M1191.3,553.9c0-0.101-0.1-0.101-0.1-0.2c-0.2-0.6-0.4-1.2-0.601-1.8
	C1190.6,551.5,1190.9,552.3,1191.3,553.9z"/>
<path opacity="0.8" fill="#11122E" enable-background="new    " d="M1149,389.5c-0.3,2.3,0.9,4.4,2.7,4.6c1.8,0.2,3.399-1.5,3.7-3.8
	c0.3-2.3-0.9-4.4-2.7-4.6C1150.9,385.5,1149.3,387.2,1149,389.5z"/>
<path opacity="0.8" fill="#11122E" enable-background="new    " d="M1146.8,417.7c0,2.4,1.4,4.3,3.101,4.3c1.8,0,3.3-1.9,3.3-4.3
	c0-2.4-1.4-4.3-3.101-4.3C1148.3,413.4,1146.8,415.3,1146.8,417.7z"/>
<path opacity="0.8" fill="#11122E" enable-background="new    " d="M1014.4,425c-0.301,2.3,0.899,4.4,2.699,4.6
	c1.7,0.2,3.4-1.5,3.7-3.8s-0.899-4.399-2.7-4.6C1016.4,420.9,1014.7,422.6,1014.4,425z"/>
<path opacity="0.6" fill="#11122E" enable-background="new    " d="M1144.4,341c0,0,35.1,75.9,51.1,78.9c16,3,59.1-52.8,59.1-52.8
	s0,0.1-0.1,0.2c-13.8,23-40.9,59.7-61.3,58.7c0,0-19.5-20.2-28.5-36.1c-7.5-13.3-19.8-36.3-23.5-43.1c-0.601-1.2-0.4-2.6,0.6-3.5
	C1142.6,342.7,1143.4,341.9,1144.4,341z"/>
<path opacity="0.6" fill="#11122E" enable-background="new    " d="M1199,376.5c0,0,4.4,7.1,6.1,11.6l-5.3-13L1199,376.5z"/>
<polygon opacity="0.5" fill="#0F1026" enable-background="new    " points="1066.7,520.2 1084.4,528.4 1116.6,509.7 1074.9,502.2 
	"/>
<radialGradient id="SVGID_45_" cx="621.9614" cy="1239.374" r="105.3227" gradientTransform="matrix(1 0 0 -1 422.3398 1724.0391)" gradientUnits="userSpaceOnUse">
	<stop  offset="0.0161" style="stop-color:#5ABBEA"/>
	<stop  offset="0.1785" style="stop-color:#2367B2"/>
	<stop  offset="0.4839" style="stop-color:#01568A"/>
	<stop  offset="0.7312" style="stop-color:#19457D"/>
	<stop  offset="0.9247" style="stop-color:#253D8D"/>
</radialGradient>
<path fill="url(#SVGID_45_)" d="M1082.9,473.3H1047.3l3.3,38.601l0,0c0,2.1,1.4,4.3,4.301,5.899c5.699,3.3,14.8,3.3,20.5,0
	c2.8-1.6,4.199-3.8,4.199-5.899L1082.9,473.3z"/>
<path opacity="0.4" fill="#10113C" enable-background="new    " d="M1082.9,473.3H1047.3l0.5,6.3c0.8,1,1.9,2.101,3.3,3
	c6.801,4.5,18,5.4,25.7,2.101l-1.2,28.199c-0.1,1.2-0.5,2.4-1.3,3.4c-1.2,1.4-3.399,3-7.7,3.9c3.2-0.2,6.2-1,8.601-2.4
	c2.8-1.6,4.2-3.8,4.2-5.899l2.699-30.9l0,0L1082.9,473.3z"/>
<path opacity="0.4" fill="#10113C" enable-background="new    " d="M1077.7,480.6c-7,4-18.2,4-25.2,0s-7-10.5,0-14.5s18.2-4,25.2,0
	C1084.6,470.1,1084.6,476.6,1077.7,480.6z"/>
<path opacity="0.4" fill="#10113C" enable-background="new    " d="M1075.9,476c-6,3.5-15.7,3.5-21.7,0s-6-9.1,0-12.5
	c6-3.5,15.7-3.5,21.7,0C1081.9,466.9,1081.9,472.5,1075.9,476z"/>
<linearGradient id="SVGID_46_" gradientUnits="userSpaceOnUse" x1="623.8237" y1="1252.4521" x2="661.6045" y2="1252.4521" gradientTransform="matrix(1 0 0 -1 422.3398 1724.0391)">
	<stop  offset="0" style="stop-color:#049ABE"/>
	<stop  offset="0.1935" style="stop-color:#0359A4"/>
	<stop  offset="0.2473" style="stop-color:#045098"/>
	<stop  offset="0.3548" style="stop-color:#22376D"/>
</linearGradient>
<path fill="url(#SVGID_46_)" d="M1083.9,472.8L1083.9,472.8L1083.9,472.8L1083.9,472.8l-0.301-3.5l0,0c-0.199-2.6-2-5.2-5.399-7.2
	c-7.2-4.2-19-4.2-26.2,0c-3.5,2-5.3,4.7-5.4,7.4l0,0l-0.3,3.1c0,0.101,0,0.2,0,0.2v0.101l0,0c-0.2,2.899,1.601,5.899,5.5,8.1
	c7.4,4.3,19.3,4.3,26.7,0C1082.3,478.8,1084.1,475.8,1083.9,472.8z"/>
<linearGradient id="SVGID_47_" gradientUnits="userSpaceOnUse" x1="627.3604" y1="1254.2891" x2="658.0605" y2="1254.2891" gradientTransform="matrix(1 0 0 -1 422.3398 1724.0391)">
	<stop  offset="0" style="stop-color:#22376D"/>
	<stop  offset="0.3844" style="stop-color:#1F4C84"/>
	<stop  offset="1" style="stop-color:#0675BC"/>
</linearGradient>
<path fill="url(#SVGID_47_)" d="M1075.9,476c-6,3.5-15.7,3.5-21.7,0s-6-9.1,0-12.5c6-3.5,15.7-3.5,21.7,0
	C1081.9,466.9,1081.9,472.5,1075.9,476z"/>
<linearGradient id="SVGID_48_" gradientUnits="userSpaceOnUse" x1="626.6602" y1="1254.2891" x2="657.3604" y2="1254.2891" gradientTransform="matrix(1 0 0 -1 422.3398 1724.0391)">
	<stop  offset="0" style="stop-color:#22376D"/>
	<stop  offset="0.5808" style="stop-color:#1A4989"/>
	<stop  offset="1" style="stop-color:#0359A4"/>
</linearGradient>
<path fill="url(#SVGID_48_)" d="M1075.2,476c-6,3.5-15.7,3.5-21.7,0s-6-9.1,0-12.5c6-3.5,15.7-3.5,21.7,0
	C1081.2,466.9,1081.2,472.5,1075.2,476z"/>
<path opacity="0.4" fill="#10113C" enable-background="new    " d="M1056,464.8c6-3.5,15.7-3.5,21.7,0c0.1,0,0.1,0.101,0.2,0.101
	c-0.601-0.5-1.301-1-2-1.5c-6-3.5-15.7-3.5-21.7,0c-5.9,3.399-6,8.899-0.2,12.399C1050.1,472.4,1050.8,467.8,1056,464.8z"/>
<linearGradient id="SVGID_49_" gradientUnits="userSpaceOnUse" x1="627.397" y1="1258.3516" x2="666.0945" y2="1258.3516" gradientTransform="matrix(1 0 0 -1 422.3398 1724.0391)">
	<stop  offset="0" style="stop-color:#22376D"/>
	<stop  offset="0.0691" style="stop-color:#213970"/>
	<stop  offset="0.1405" style="stop-color:#1E3F7A"/>
	<stop  offset="0.2126" style="stop-color:#13498B"/>
	<stop  offset="0.2473" style="stop-color:#045098"/>
	<stop  offset="0.7097" style="stop-color:#0359A4"/>
	<stop  offset="0.7202" style="stop-color:#025FA6"/>
	<stop  offset="0.7558" style="stop-color:#0170AD"/>
	<stop  offset="0.7937" style="stop-color:#017EB3"/>
	<stop  offset="0.8341" style="stop-color:#018AB8"/>
	<stop  offset="0.8781" style="stop-color:#0393BB"/>
	<stop  offset="0.9287" style="stop-color:#0398BD"/>
	<stop  offset="1" style="stop-color:#049ABE"/>
</linearGradient>
<path fill="url(#SVGID_49_)" d="M1054.2,465c6-3.5,15.7-3.5,21.7,0c2.699,1.5,4.1,3.5,4.399,5.5c0.4-2.5-1.1-5.1-4.399-7
	c-6-3.5-15.7-3.5-21.7,0c-3.3,1.9-4.8,4.5-4.4,7C1050.1,468.5,1051.5,466.5,1054.2,465z"/>
<radialGradient id="SVGID_50_" cx="619.1104" cy="1263.1113" r="68.895" gradientTransform="matrix(1 0 0 -1 422.3398 1724.0391)" gradientUnits="userSpaceOnUse">
	<stop  offset="0.0161" style="stop-color:#5ABBEA"/>
	<stop  offset="0.1785" style="stop-color:#2367B2"/>
	<stop  offset="0.4839" style="stop-color:#01568A"/>
	<stop  offset="0.7312" style="stop-color:#19457D"/>
	<stop  offset="0.9247" style="stop-color:#253D8D"/>
</radialGradient>
<path fill="url(#SVGID_50_)" d="M1078.3,462.2c-7.2-4.3-19-4.4-26.3-0.2c-7.3,4.1-7.4,10.9-0.1,15.2c7.199,4.3,19,4.399,26.3,0.2
	C1085.4,473.3,1085.5,466.5,1078.3,462.2z M1075.9,476c-2,1.2-4.4,1.9-7,2.3l-0.301-0.899c-0.1-0.4-0.5-0.601-0.8-0.601h-5.5
	c-0.399,0-0.7,0.3-0.8,0.601l-0.3,0.899c-2.601-0.399-5-1.1-7-2.3c-6-3.5-6-9.1,0-12.5c6-3.5,15.699-3.5,21.699,0
	C1081.9,466.9,1081.9,472.5,1075.9,476z"/>
<path fill="#FFFFFF" d="M1075.9,462.8c-6-3.5-15.7-3.5-21.7,0c-3.101,1.8-4.601,4.2-4.5,6.601c0.1-2.2,1.6-4.301,4.5-5.9
	c6-3.5,15.7-3.5,21.7,0c2.899,1.6,4.3,3.8,4.5,5.9C1080.5,467,1079,464.6,1075.9,462.8z"/>
<path fill="#FFFFFF" d="M1078.1,476.7c-7.3,4.1-19.1,4-26.3-0.2c-3.399-2-5.2-4.6-5.399-7.2c-0.101,2.8,1.6,5.7,5.399,7.9
	c7.2,4.3,19,4.399,26.3,0.2c3.801-2.2,5.7-5.101,5.5-7.9C1083.5,472.1,1081.7,474.7,1078.1,476.7z"/>
<path fill="#28296F" d="M1066.7,478.7h-3.3c-0.2,0-0.4-0.2-0.4-0.4v-0.1c0-0.2,0.2-0.4,0.4-0.4h3.3c0.2,0,0.399,0.2,0.399,0.4v0.1
	C1067.1,478.6,1066.9,478.7,1066.7,478.7z"/>
<linearGradient id="SVGID_51_" gradientUnits="userSpaceOnUse" x1="640.2871" y1="1245.9395" x2="645.6367" y2="1245.9395" gradientTransform="matrix(1 0 0 -1 422.3398 1724.0391)">
	<stop  offset="0" style="stop-color:#22376D"/>
	<stop  offset="0.0691" style="stop-color:#213970"/>
	<stop  offset="0.1405" style="stop-color:#1E3F7A"/>
	<stop  offset="0.2126" style="stop-color:#13498B"/>
	<stop  offset="0.2473" style="stop-color:#045098"/>
	<stop  offset="0.7097" style="stop-color:#0359A4"/>
	<stop  offset="0.7202" style="stop-color:#025FA6"/>
	<stop  offset="0.7558" style="stop-color:#0170AD"/>
	<stop  offset="0.7937" style="stop-color:#017EB3"/>
	<stop  offset="0.8341" style="stop-color:#018AB8"/>
	<stop  offset="0.8781" style="stop-color:#0393BB"/>
	<stop  offset="0.9287" style="stop-color:#0398BD"/>
	<stop  offset="1" style="stop-color:#049ABE"/>
</linearGradient>
<path fill="url(#SVGID_51_)" d="M1066.7,477.8h-3.3c-0.2,0-0.4,0.2-0.4,0.4v0.1v0.101c0.1-0.2,0.2-0.301,0.4-0.301h3.3
	c0.2,0,0.3,0.101,0.399,0.301V478.3v-0.1C1067.1,478,1066.9,477.8,1066.7,477.8z"/>
<radialGradient id="SVGID_52_" cx="1192.5078" cy="1261.873" r="139.3607" gradientTransform="matrix(-1 0 0 -1 2014.7441 1724.0391)" gradientUnits="userSpaceOnUse">
	<stop  offset="0.0602" style="stop-color:#60BFD4"/>
	<stop  offset="0.1744" style="stop-color:#4595BC"/>
	<stop  offset="0.3541" style="stop-color:#1B619D"/>
	<stop  offset="0.4355" style="stop-color:#074F92"/>
	<stop  offset="0.6129" style="stop-color:#214186"/>
	<stop  offset="0.8118" style="stop-color:#214287"/>
	<stop  offset="0.9946" style="stop-color:#25336D"/>
</radialGradient>
<path fill="url(#SVGID_52_)" d="M825.3,457.2l6,3.1l59.7-34.5c1-0.6,2.7-0.5,3.9,0.2l103,59.4c1-0.5,5.5-2.7,5.5-2.7l-2.2,5.7l0,0
	c-0.101,0.3-0.3,0.5-0.601,0.7L937.7,525.4c-1,0.6-2.7,0.5-3.9-0.2L828.4,464.4c-0.5-0.3-0.801-0.601-0.9-0.9l0,0L825.3,457.2z"/>
<radialGradient id="SVGID_53_" cx="1220.877" cy="1250.7061" r="217.2968" gradientTransform="matrix(-1 0 0 -1 2014.7441 1724.0391)" gradientUnits="userSpaceOnUse">
	<stop  offset="0.0161" style="stop-color:#5ABBEA"/>
	<stop  offset="0.1785" style="stop-color:#2367B2"/>
	<stop  offset="0.4839" style="stop-color:#01568A"/>
	<stop  offset="0.7312" style="stop-color:#19457D"/>
	<stop  offset="0.9247" style="stop-color:#253D8D"/>
</radialGradient>
<path fill="url(#SVGID_53_)" d="M826.2,458.1l108,62.301c1.2,0.7,3,0.8,4,0.2l64.399-37.2c1-0.601,0.9-1.601-0.3-2.3l-108-62.301
	c-1.2-0.7-3-0.8-4-0.2L825.9,455.8C824.9,456.4,825,457.4,826.2,458.1z"/>
<g>
	<polygon fill="#282567" points="863.7,449.7 936.8,491.9 940.3,489.9 867.2,447.7 	"/>
	<polygon opacity="0.4" fill="#10113C" enable-background="new    " points="858.2,452.9 944.3,502.6 947.7,500.6 861.7,450.9 	"/>
	<polygon opacity="0.4" fill="#10113C" enable-background="new    " points="852.7,456.1 938.7,505.8 942.2,503.8 856.1,454.1 	"/>
	<polygon fill="#282567" points="847.1,459.3 933.2,509 936.7,507 850.6,457.3 	"/>
	<polygon opacity="0.4" fill="#10113C" enable-background="new    " points="959,490.9 875.7,442.8 872.2,444.8 954.9,492.5 
		958.3,494.5 961.8,492.5 	"/>
	<polygon opacity="0.4" fill="#10113C" enable-background="new    " points="932.6,489.5 949.9,499.4 953.3,497.4 936,487.4 	"/>
</g>
<radialGradient id="SVGID_54_" cx="1186.8467" cy="1362.2578" r="175.9545" gradientTransform="matrix(-1 0 0 -1 2014.7441 1724.0391)" gradientUnits="userSpaceOnUse">
	<stop  offset="0.0161" style="stop-color:#5ABBEA"/>
	<stop  offset="0.1785" style="stop-color:#2367B2"/>
	<stop  offset="0.4839" style="stop-color:#01568A"/>
	<stop  offset="0.7312" style="stop-color:#19457D"/>
	<stop  offset="0.9247" style="stop-color:#253D8D"/>
</radialGradient>
<path fill="url(#SVGID_54_)" d="M825.5,455.5l13.6-81L838,374l1.7-0.9l0,0c0.3-0.2,0.8-0.2,1.3,0.1l109.1,63
	c0.9,0.5,1.601,1.8,1.4,2.8l-13.8,81.6c-0.101,0.4-0.3,0.7-0.601,0.8l0,0l-1.6,0.9l-0.3-1.5h0.1L826.9,458.2
	C826,457.8,825.3,456.5,825.5,455.5z"/>
<linearGradient id="SVGID_55_" gradientUnits="userSpaceOnUse" x1="1063.2715" y1="1244.0391" x2="1084.9106" y2="1244.0391" gradientTransform="matrix(-1 0 0 -1 2014.7441 1724.0391)">
	<stop  offset="0" style="stop-color:#22376D"/>
	<stop  offset="0.5808" style="stop-color:#1A4989"/>
	<stop  offset="1" style="stop-color:#0359A4"/>
</linearGradient>
<path fill="url(#SVGID_55_)" d="M949.4,438.5l1.8-0.8c0.2,0.5,0.3,0.899,0.2,1.3L937.6,520.6c-0.1,0.4-0.3,0.7-0.6,0.8l0,0l-1.6,0.9
	l-0.301-1.5h0.101l-5.5-3.2L949.4,438.5z"/>
<radialGradient id="SVGID_56_" cx="393.7261" cy="1359.002" r="211.526" gradientTransform="matrix(1 0 0 -1 422.3398 1724.0391)" gradientUnits="userSpaceOnUse">
	<stop  offset="0" style="stop-color:#CED9EF"/>
	<stop  offset="0.1946" style="stop-color:#60BFD4"/>
	<stop  offset="0.2926" style="stop-color:#4595BC"/>
	<stop  offset="0.4467" style="stop-color:#1B619D"/>
	<stop  offset="0.5165" style="stop-color:#074F92"/>
	<stop  offset="0.7742" style="stop-color:#214186"/>
	<stop  offset="0.9946" style="stop-color:#25336D"/>
</radialGradient>
<path fill="url(#SVGID_56_)" d="M825.2,459.3l109.1,63c0.8,0.5,1.601,0.2,1.7-0.7l13.8-81.6c0.2-0.9-0.5-2.3-1.399-2.8l-109.101-63
	c-0.8-0.5-1.6-0.2-1.7,0.7l-13.8,81.6C823.6,457.5,824.3,458.8,825.2,459.3z"/>
<g>
	<rect x="647.3" y="351.9" fill="#273675" width="1.7" height="30"/>
	<rect x="647.4" y="388.7" fill="#09A7D3" width="1.5" height="8.6"/>
	<rect x="647.4" y="404.5" fill="#09A7D3" width="1.5" height="8.6"/>
	<rect x="647.4" y="420.2" fill="#09A7D3" width="1.5" height="24.3"/>
	<rect x="647.4" y="451.7" fill="#09A7D3" width="1.5" height="8.6"/>
</g>
<g>
	<rect x="1383.2" y="480.1" fill="#273675" width="1.7" height="30"/>
	<rect x="1383.3" y="464.7" fill="#09A7D3" width="1.5" height="8.6"/>
	<rect x="1383.3" y="449" fill="#09A7D3" width="1.5" height="8.6"/>
	<rect x="1383.3" y="417.5" fill="#09A7D3" width="1.5" height="24.3"/>
	<rect x="1383.3" y="401.8" fill="#09A7D3" width="1.5" height="8.6"/>
</g>
<g>
	<rect x="857.5" y="189.2" fill="#09A7D3" width="1.5" height="30"/>
	<rect x="857.4" y="226" fill="#273675" width="1.699" height="8.6"/>
	<rect x="857.4" y="241.8" fill="#273675" width="1.699" height="8.6"/>
</g>
<g>
	<rect x="1328" y="202.5" fill="#09A7D3" width="1.5" height="30"/>
	<rect x="1328" y="239.3" fill="#273675" width="1.7" height="8.6"/>
	<rect x="1328" y="255" fill="#273675" width="1.7" height="8.6"/>
</g>
<polygon opacity="0.6" fill="#273675" enable-background="new    " points="1188.5,214.8 820.7,23.9 820,25.4 1187.7,216.3 "/>
<image overflow="visible" width="3840" height="2100" xlink:href="B96B7BDB.jpg"  transform="matrix(1 0 0 1 -7472 -6912)">
</image>
</svg>
