<?xml version="1.0" encoding="utf-8"?>
<!-- Generator: Adobe Illustrator 16.0.0, SVG Export Plug-In . SVG Version: 6.00 Build 0)  -->
<!DOCTYPE svg PUBLIC "-//W3C//DTD SVG 1.1//EN" "http://www.w3.org/Graphics/SVG/1.1/DTD/svg11.dtd">
<svg version="1.1" id="Layer_1" xmlns="http://www.w3.org/2000/svg" xmlns:xlink="http://www.w3.org/1999/xlink" x="0px" y="0px"
	 width="1440px" height="864px" viewBox="0 0 1440 864" enable-background="new 0 0 1440 864" xml:space="preserve">
<g>
	<circle opacity="0.8" fill="#273675" cx="748.9" cy="627.1" r="9.1"/>
	<circle opacity="0.8" fill="#273675" cx="855.7" cy="425" r="5.6"/>
	<circle opacity="0.4" fill="#273675" cx="466.3" cy="716.8" r="6.6"/>
	<circle opacity="0.4" fill="#273675" cx="466.3" cy="716.8" r="12.6"/>
	<path opacity="0.4" fill="#273675" d="M1375,717.1c0,5-4.1,9.1-9.1,9.1c-5,0-9.1-4.1-9.1-9.1c0-5,4.1-9.1,9.1-9.1
		C1370.9,708,1375,712.1,1375,717.1z"/>
	<circle opacity="0.4" fill="#273675" cx="624.8" cy="257.9" r="5.1"/>
	<path opacity="0.6" fill="#273675" d="M65.7,139.4c0,2.8-2.3,5.1-5.1,5.1s-5.1-2.3-5.1-5.1c0-2.8,2.3-5.1,5.1-5.1
		S65.7,136.6,65.7,139.4z"/>
	<circle opacity="0.6" fill="#273675" cx="319.4" cy="66.8" r="7.5"/>
	<path opacity="0.8" fill="#273675" d="M322.5,66.8c0,1.7-1.4,3.1-3.1,3.1c-1.7,0-3.1-1.4-3.1-3.1c0-1.7,1.4-3.1,3.1-3.1
		C321.1,63.7,322.5,65.1,322.5,66.8z"/>
	<path opacity="0.4" fill="#273675" d="M704.1,182.8c0,11.1-9,20.1-20.1,20.1c-11.1,0-20.1-9-20.1-20.1c0-11.1,9-20.1,20.1-20.1
		C695.1,162.7,704.1,171.7,704.1,182.8z"/>
	<path opacity="0.8" fill="#273675" d="M692.3,182.8c0,4.6-3.7,8.4-8.4,8.4c-4.6,0-8.4-3.7-8.4-8.4c0-4.6,3.7-8.4,8.4-8.4
		C688.6,174.5,692.3,178.2,692.3,182.8z"/>
	<path opacity="0.8" fill="#273675" d="M827.8,24.7c0,4-3.2,7.2-7.2,7.2c-4,0-7.2-3.2-7.2-7.2c0-4,3.2-7.2,7.2-7.2
		C824.5,17.5,827.8,20.7,827.8,24.7z"/>
	<polygon fill="#273675" points="855,425.5 682.2,181.8 684.1,182 1056.4,234.2 1056.2,235.8 685.7,183.9 856.4,424.5 	"/>
	
		<linearGradient id="SVGID_1_" gradientUnits="userSpaceOnUse" x1="1680.6133" y1="497.5151" x2="1634.1903" y2="463.5737" gradientTransform="matrix(1 0 0 1 -720.6338 0)">
		<stop  offset="0" style="stop-color:#342874"/>
		<stop  offset="1" style="stop-color:#5952A3"/>
	</linearGradient>
	<path fill="url(#SVGID_1_)" d="M996.8,504.7c0,0-2,2.1-4,4.5c-2,2.4-7.8,5.8-10.2,7.3c-2.4,1.5-13.5,9.9-15.8,18.2
		c-2.3,8.3,5.6,9.4,13.7,7.9c8.1-1.4,15.7-8.9,17.9-11.6c2.2-2.7,9.9-8.8,19.8-14c9.9-5.1,3.9-12.1,3.9-12.1L996.8,504.7z"/>
	
		<linearGradient id="SVGID_2_" gradientUnits="userSpaceOnUse" x1="1756.0703" y1="535.1143" x2="1676.8942" y2="496.9387" gradientTransform="matrix(1 0 0 1 -720.6338 0)">
		<stop  offset="0" style="stop-color:#342874"/>
		<stop  offset="1" style="stop-color:#5952A3"/>
	</linearGradient>
	<path fill="url(#SVGID_2_)" d="M1071.3,522.7c0,0,1.6,3.7,2.1,8.5c0.5,4.8,1.1,15.1,1.4,18.2c0.2,3,0.3,10.5-5,17.6
		c-5.3,7.1-8.1,9.9-15.2,7.1c-7.1-2.8-6.9-14.7-5.7-20.8c1.3-6.1,2.4-19.8,2.3-21.3c-0.1-1.4,0.6-4.6,0.6-4.6L1071.3,522.7z"/>
	
		<linearGradient id="SVGID_3_" gradientUnits="userSpaceOnUse" x1="1825.3232" y1="462.2188" x2="1658.4081" y2="414.2447" gradientTransform="matrix(1 0 0 1 -720.6338 0)">
		<stop  offset="0" style="stop-color:#1F295A"/>
		<stop  offset="0.455" style="stop-color:#1D4377"/>
		<stop  offset="1" style="stop-color:#0067A4"/>
	</linearGradient>
	<path fill="url(#SVGID_3_)" d="M972.3,364.3c0,0,1.5,54.6,14.2,83.6c0,0,9.1,25.5,10.3,55.9c0,0-2.1,5.2,0.9,9.5
		c3,4.3,21.7,8.1,24.8-5.8c3.1-14,1.9-40.1-1.5-51c-3.4-10.9,1.2-40.9,1.2-40.9s5.1,3.3,11.8,24.8c6.7,21.6,11.6,29.8,13.9,35.8
		c1.9,5,3.7,31.4,3.4,50.3c-0.1,6.3,5.8,11.1,11.9,9.5c3-0.7,5.7-2.1,7.2-4.6c4.4-7.2,5.8-44.6,4.7-56.6c-1.1-11.9-6.1-50.1-5.4-62
		c0.7-11.8,3.1-21.4,0.4-33.2c-2.7-11.8-82.5-38-82.5-38L972.3,364.3z"/>
	<path opacity="0.6" fill="#11122E" d="M1069.7,412.8c0.7-11.8,3.1-21.4,0.4-33.2c-1-4.4-12.9-10.9-27.4-17.3
		c-24.4-2.2-55.4-4.8-57.5-4.5c-1.9,0.3-7,2.2-11.2,3.9l-1.7,2.5c0,0,0.1,3.3,0.4,8.7c5.7,1.7,16.7-0.1,16.7-0.1
		c1.5,3.8,11.1,17.4,22.9,23.3c11.8,5.9,46.5,3.9,48.5,6.1c2,2.2,2.4,32.1,2.2,35.9c-0.2,3.8,3.3,27.7,6.5,48.9
		c3.2,20.8-1.7,46.1-1.8,46.9c1.1-0.7,2.1-1.6,2.8-2.7c4.4-7.2,5.8-44.6,4.7-56.6C1074,462.9,1069,424.7,1069.7,412.8z"/>
	
		<radialGradient id="SVGID_4_" cx="1678.0225" cy="177.1909" r="345.9015" gradientTransform="matrix(1 0 0 1 -720.6338 0)" gradientUnits="userSpaceOnUse">
		<stop  offset="0" style="stop-color:#28A3DD"/>
		<stop  offset="0.1678" style="stop-color:#4396C8"/>
		<stop  offset="0.1697" style="stop-color:#4395C8"/>
		<stop  offset="0.379" style="stop-color:#2162AC"/>
		<stop  offset="0.4735" style="stop-color:#134FA3"/>
		<stop  offset="1" style="stop-color:#233C7A"/>
	</radialGradient>
	<path fill="url(#SVGID_4_)" d="M999,185.7c0,0-17.7,4-23.7,5.4c-1,0.2-1.8,0.9-2.2,1.9c-1.7,4.4-6,17.9-2.8,37.6
		c4,24.3,2.7,40.6,2.7,40.6l-8.2,42.6c0,0-10.3,40.6-9.4,41.7c0.9,1.1,23.7,18.5,30.8,16c7.1-2.4,4.8-6.5,4.8-6.5
		s5.8,29.4,31.4,29.1c25.6-0.3,46.5-0.2,50.8-10.5c4.3-10.3-1.2-53.8-5.7-71c-4.5-17.2-15.2-51.5-15.2-51.5l37.5-41.5l-32-24.5
		c0,0-7.7-14.2-10.8-16c-3.1-1.8-4.8-0.3-4.8-0.3L999,185.7z"/>
	<path fill="#F1F6FC" d="M1046.4,178.9c0,0,6.5,7.9-2.9,18.6c-5.8,6.6-15.8,20.8-24.3,35.5c-5.3,9.2-10.2,14.1-13,22
		c0,0-0.4-9.4-0.8-23.9c-0.4-13.7-0.5-27.9,0.1-31.5C1006.9,192.3,1039.2,175.4,1046.4,178.9z"/>
	<path fill="#FCD1C6" d="M1021.9,202.8c0,0-3.3,2.1-4.5,1.9c-1.2-0.2-4.9-3.8-4.9-3.8s-9.3-0.2-10.3-4.1c-1-4-1.7-8-2.6-10.1
		c-0.9-2.1-4.9-12-5-16c0-4,0.1-11.2-1.6-15c-1.7-3.8-4.1-41.9,32.7-40.8c36.8,1.1,25.4,39.3,25.4,39.3s2.7,1.1,1.1,6.1
		c-1.6,4.9-2,5.4-2.8,7.9c-0.8,2.4-1.2,4-3.6,6l-0.6,4.5c0,0,1.7,6.9-2.8,13.6C1037.8,198.9,1021.9,202.8,1021.9,202.8z"/>
	
		<radialGradient id="SVGID_5_" cx="1662.3711" cy="210.8164" r="357.5057" gradientTransform="matrix(1 0 0 1 -720.6338 0)" gradientUnits="userSpaceOnUse">
		<stop  offset="1.612903e-002" style="stop-color:#5ABBEA"/>
		<stop  offset="0.1785" style="stop-color:#2367B2"/>
		<stop  offset="0.4839" style="stop-color:#01568A"/>
		<stop  offset="0.7312" style="stop-color:#19457D"/>
		<stop  offset="0.9247" style="stop-color:#253D8D"/>
	</radialGradient>
	<path fill="url(#SVGID_5_)" d="M974.4,191.6c0,0-3.9,0.6-16.7,32.6c-7.1,17.9-18.1,36.4-20.4,49.7c-2.3,13.3-1,27.5,1.6,28.5
		c2.5,1,48.3,18.1,62.6,23.5c0.8,0.3,1.7-0.2,1.8-1l3.9-22.1l-28.4-11c0,0-5.4-6.6-10.5-9.1c0,0,5.7-10.5,5.3-13.4
		c-0.4-2.9,0.5-32.5-2.8-44.5C967.6,212.7,974.4,191.6,974.4,191.6z"/>
	<path fill="#FCD1C6" d="M991,276.2c0,0-3.9-2.6-4.9-3c-1-0.4-6.2-2.2-7.2-2.6c-0.7-0.3-3.8-0.1-5.3,0.1c-0.6,0.1-1,0.4-1.3,0.9
		c-1.2,2.2-4.6,8.8-4.2,11.3c0,0,9.5,6,10.5,8.6l1.5,0.3C980.1,291.7,986.5,278.2,991,276.2z"/>
	<path opacity="0.6" fill="#11122E" d="M1067.7,312.7c-1.1-4.1-2.5-9.3-4.1-14.7l-57.5,24.6c0,0,17.2,21.2,47.4,19.8
		c8.2-0.4,14.3-3.3,18.7-5.9C1070.8,327.2,1069.2,318.5,1067.7,312.7z"/>
	
		<radialGradient id="SVGID_6_" cx="1674.959" cy="207.7666" r="233.2842" gradientTransform="matrix(1 0 0 1 -720.6338 0)" gradientUnits="userSpaceOnUse">
		<stop  offset="0" style="stop-color:#CED9EF"/>
		<stop  offset="0.1247" style="stop-color:#79D1EF"/>
		<stop  offset="0.285" style="stop-color:#5398C7"/>
		<stop  offset="0.4961" style="stop-color:#22629F"/>
		<stop  offset="0.5918" style="stop-color:#074F92"/>
		<stop  offset="0.6774" style="stop-color:#214186"/>
		<stop  offset="0.7832" style="stop-color:#31459C"/>
		<stop  offset="0.8871" style="stop-color:#25336D"/>
		<stop  offset="1" style="stop-color:#2A2C75"/>
	</radialGradient>
	<path fill="url(#SVGID_6_)" d="M1089.9,219.8c0,0-15.2,2.1-27.4,21.5c-12.2,19.4-21.2,41.9-21.2,41.9l-0.4,2.5
		c-1.1,6.6-8.1,10.4-14.3,7.7c-12.9-5.8-32.1-14.5-35.7-17.1c0,0-11.5,6.3-14.6,21.3c-2.5,11.9-1.9,12-1.9,12s51,23.8,70.8,23.6
		c19.7-0.2,44.7-65.1,47.5-78.5C1095.5,241.2,1098.6,223.6,1089.9,219.8z"/>
	<path fill="#FCD1C6" d="M1026.2,293.1c0,0,1.8-1.6,4.1-3.6c2.3-1.9,6-9.9,6.6-10.6c0.6-0.7,8.3-6.6,12-6.7c3.7-0.1,1,4.1,0.1,4.6
		c-0.9,0.6-4.5,2.4-4.5,2.4s-3.7,3.1-4.2,3.6c-0.4,0.5,10.4-0.7,12.1,0.3c1.7,1.1,1.3,3.8,0.1,4.6c-1.2,0.8-2.1,0.7-2.1,0.7
		s1.2,3.3-2,4.8c-3.2,1.5-4,0.7-4,0.7s-0.3,5.6-5.6,4.5L1026.2,293.1z"/>
	<linearGradient id="SVGID_7_" gradientUnits="userSpaceOnUse" x1="991.3223" y1="137.6748" x2="1054.2207" y2="137.6748">
		<stop  offset="0" style="stop-color:#273649"/>
		<stop  offset="0.9731" style="stop-color:#0D1013"/>
	</linearGradient>
	<path fill="url(#SVGID_7_)" d="M992.2,136.2c0,0-4.8,15.3,7.8,10.9c12.6-4.4,24.1-11.6,28.1-8.9c3,2.1,2.9,8.6,2.6,11.5
		c-0.1,1,0.2,2,0.8,2.9l3.7,5.4c0.4,0.6,0.7,1.3,0.7,2.1l0.3,3.8c0.1,1,0.8,1.7,1.8,1.8l0.9,0c1,0.1,1.8-0.6,2-1.6l1-5.6
		c0,0,3-7.5,9.3-4.5c0,0,4.2-5.7,2.8-17.7c-1.4-12.1-6.8-24.6-30.5-26.7C999.7,107.7,992.2,136.2,992.2,136.2z"/>
	<path fill="#C4CBD5" d="M1028.5,216.2l-3.5-2.8c0,0-3.3,2.7-4.6,5.6c-1.3,2.9,0,12.1,0,12.1l-1.1,1.9l-1.3-2.4l-1.1-10.9
		c0,0,1.2-8,1.3-8.2c0.1-0.2,6.8,0.7,6.8,0.7S1027.3,214,1028.5,216.2z"/>
	<path fill="#C4CBD5" d="M1011.4,205.4c0,0-3.8,0.3-5.5,1.7c0,0,4,0.2,4.6,0.3C1011.1,207.4,1011.4,205.4,1011.4,205.4z"/>
	<path fill="#28357C" d="M1025,212.2l-6.4-5.9c0,0-10-2.1-9.1,0.7c0.8,2.8,0.2,9.1,0.8,11.6c0,0.1,0.1,0.2,0.1,0.3
		c-0.3,1.3-1.3,5.1-2.4,6.9c-1.3,2.1-2.6,4.6-2.6,4.6l0.2,30.5c0,0,11.2-23.1,13.7-27.8c0,0-0.4-11.2-1.4-13.3
		C1019.4,214.8,1025,212.2,1025,212.2z"/>
	<path fill="#E2B1A6" d="M1040.7,173.3c-7.4,21.3-28.1,27.6-28.1,27.6s3.7,3.6,4.9,3.8c1.2,0.2,4.5-1.9,4.5-1.9s15.8-3.8,20.4-10.6
		c4.6-6.7,2.8-13.6,2.8-13.6l0.6-4.5C1042.5,175.1,1040.7,173.3,1040.7,173.3z"/>
	<path opacity="0.8" fill="#11122E" d="M1057.6,198.2c0,0-2.9,10-3.3,10.4c-0.4,0.4-7.3-0.4-7.3-0.4l3.4,6.4
		c0,0-34.9,37.5-42.2,57.6c0,0,16.5-25.5,45.6-56.1l-4.1-6.2l7.1,1.4L1057.6,198.2z"/>
	<path opacity="0.8" fill="#11122E" d="M1000.2,189.3l-1.9,2.1l2.2,2l-6.5,5.8c0,0-2,41,5.9,68.1c0,0-10.7-24.9-8.3-69.2l7-4.7
		l-2.3-2.3L1000.2,189.3z"/>
	<path opacity="0.6" fill="#11122E" d="M1022.2,415.5c0,0,0.1,0.1,0.2,0.2l-9-9.6c4.2,5.9-0.6,32.9-1.1,39
		c-0.5,6.2,4.8,18.9,6.8,33.9c2,14.9-2.1,36.2-2.1,36.3c2.6-1.5,4.6-4,5.5-7.9c3.1-14,1.9-40.1-1.5-51
		C1017.6,445.5,1022.2,415.5,1022.2,415.5z"/>
	<path fill="#15151E" d="M1038.9,165.8c1,0.1,1.8-0.6,2-1.6l1-5.6c0,0,3-7.5,9.3-4.5c0,0,4-5.4,2.9-16.8
		c-7,10.5-22.5,15.3-22.5,15.3l3.7,5.4c0.4,0.6,0.7,1.3,0.7,2.1l0.3,3.8c0.1,1,0.8,1.7,1.8,1.8L1038.9,165.8z"/>
	<circle fill="#282567" cx="1033" cy="637" r="8.7"/>
	<circle fill="#282567" cx="1118.3" cy="540.2" r="8.7"/>
	<circle fill="#282567" cx="1137" cy="606.4" r="8.7"/>
	<path fill="#282567" d="M958.4,590c0,4.8-3.9,8.7-8.7,8.7c-4.8,0-8.7-3.9-8.7-8.7c0-4.8,3.9-8.7,8.7-8.7
		C954.5,581.4,958.4,585.3,958.4,590z"/>
	<circle fill="#282567" cx="1003.3" cy="531.5" r="8.7"/>
	<linearGradient id="SVGID_8_" gradientUnits="userSpaceOnUse" x1="1044.249" y1="563.9956" x2="887.2757" y2="602.3069">
		<stop  offset="0" style="stop-color:#5A64AD"/>
		<stop  offset="0.1564" style="stop-color:#5E66AF"/>
		<stop  offset="0.3409" style="stop-color:#686EB4"/>
		<stop  offset="0.5395" style="stop-color:#7A7DBC"/>
		<stop  offset="0.7481" style="stop-color:#9393C8"/>
		<stop  offset="0.9625" style="stop-color:#B6B5DB"/>
		<stop  offset="1" style="stop-color:#BEBDDF"/>
	</linearGradient>
	<path fill="url(#SVGID_8_)" d="M1045.3,563.6L950,581.9c-0.4,0-0.8,0.1-1.2,0.2l0.1-0.6l-4.6-1.2v5.4l0,0c0,0.2,0,0.4,0.1,0.6
		c0.6,2.1,4,3.6,7.7,3.2l95.3-18.4L1045.3,563.6z"/>
	<path fill="#252464" d="M1125.1,530.9l-2.9,2.4c-2.5-1.1-6.3-0.8-8.9,0.7l-67.8,29.5l9.5,5.5l67.8-29.5c1.6-0.9,2.4-2.1,2.3-3.2
		l0,0V530.9z"/>
	<linearGradient id="SVGID_9_" gradientUnits="userSpaceOnUse" x1="1025.8301" y1="546.2412" x2="985.2116" y2="506.9783">
		<stop  offset="0" style="stop-color:#5A64AD"/>
		<stop  offset="0.1564" style="stop-color:#5E66AF"/>
		<stop  offset="0.3409" style="stop-color:#686EB4"/>
		<stop  offset="0.5395" style="stop-color:#7A7DBC"/>
		<stop  offset="0.7481" style="stop-color:#9393C8"/>
		<stop  offset="0.9625" style="stop-color:#B6B5DB"/>
		<stop  offset="1" style="stop-color:#BEBDDF"/>
	</linearGradient>
	<path fill="url(#SVGID_9_)" d="M1009.8,524.3c-1.7-1.9-5.7-2.7-9-1.7l0,0c-0.4,0.1-0.8,0.3-1.1,0.4c-0.2-0.3-0.3-0.5-0.6-0.8
		c-0.6-0.6-2-1.4-2-1.4l0,5.4l0,0c0,0.6,0.2,1.1,0.7,1.6l43.8,40l12-3.5L1009.8,524.3z"/>
	<path fill="#252464" d="M1143.2,597.2l-1.6,0.6l-0.9,1.9c-0.3-0.2-0.7-0.3-1.1-0.4l-85.9-34.9l-6.1,6.9l85.9,34.9
		c3.3,1,7.4,0.2,9-1.7v0c0.5-0.6,0.7-1.2,0.7-1.8l0,0L1143.2,597.2z"/>
	<path fill="#252464" d="M1041.6,567.9l-14.1,60.5l-1.1-0.5l0,5.6l0,0c0.2,1.8,2.5,3.3,5.6,3.6c3.7,0.3,7.1-1.1,7.7-3.2l15.1-64.6
		L1041.6,567.9z"/>
	<radialGradient id="SVGID_10_" cx="912.9844" cy="545.1636" r="261.9848" gradientUnits="userSpaceOnUse">
		<stop  offset="1.612903e-002" style="stop-color:#5ABBEA"/>
		<stop  offset="0.3237" style="stop-color:#2367B2"/>
		<stop  offset="0.586" style="stop-color:#01568A"/>
		<stop  offset="0.7312" style="stop-color:#19457D"/>
		<stop  offset="0.9247" style="stop-color:#253D8D"/>
	</radialGradient>
	<path fill="url(#SVGID_10_)" d="M1139.6,593.9l-79.7-32.4l62.9-27.4c2.8-1.6,3.1-4.1,0.7-5.5l-0.7-0.4c-2.4-1.4-6.7-1.2-9.5,0.4
		l-62.9,27.4l-40.6-37.1c-1.7-1.9-5.7-2.7-9-1.7l0,0c-3.3,1-4.6,3.3-2.9,5.2l40.6,37.1l-88.4,17c-3.7,0.3-6.2,2.3-5.6,4.4
		c0.6,2.1,4,3.6,7.7,3.2l88.4-17l-14,60c-0.6,2.1,1.9,4.1,5.6,4.4c3.7,0.3,7.1-1.1,7.7-3.2l14-60l79.7,32.4c3.3,1,7.4,0.2,9-1.7
		C1144.2,597.2,1142.9,594.9,1139.6,593.9z M1051.3,561.6l-1.5,1.7l-3.2-0.3l-0.5-1.9l2.9-0.9L1051.3,561.6z"/>
	<path fill="#282567" d="M1048.6,566.5L1048.6,566.5c-3.8,0-7-3.1-7-6.9v-80.5h13.9v80.5C1055.5,563.4,1052.4,566.5,1048.6,566.5z"
		/>
	<radialGradient id="SVGID_11_" cx="920.9697" cy="360.6006" r="58.0382" gradientUnits="userSpaceOnUse">
		<stop  offset="0" style="stop-color:#E49B66"/>
		<stop  offset="0.401" style="stop-color:#8456A3"/>
		<stop  offset="0.4827" style="stop-color:#7A55A3"/>
		<stop  offset="0.7262" style="stop-color:#5E52A3"/>
		<stop  offset="1" style="stop-color:#46429A"/>
	</radialGradient>
	<path fill="url(#SVGID_11_)" d="M1011.6,383.5L1011.6,383.5c-0.2-1.8-1.4-3.5-3.6-4.8l-1.5-0.8c-5.4-3.1-14.8-2.7-21.1,0.9
		l-43.9,25.4c-3.3,1.9-5,4.3-5.1,6.7l0,0v7.7l0,0c0,2,1.2,3.9,3.6,5.3l1.5,0.8c5.4,3.1,14.8,2.7,21.1-0.9l43.9-25.4
		c3.2-1.9,4.9-4.2,5.1-6.4l0,0V383.5z"/>
	<radialGradient id="SVGID_12_" cx="907.7188" cy="356.8701" r="127.1703" gradientUnits="userSpaceOnUse">
		<stop  offset="0.1882" style="stop-color:#5ABBEA"/>
		<stop  offset="0.2671" style="stop-color:#59B8E8"/>
		<stop  offset="0.3306" style="stop-color:#54B1E4"/>
		<stop  offset="0.3887" style="stop-color:#4DA6DC"/>
		<stop  offset="0.4436" style="stop-color:#4496D1"/>
		<stop  offset="0.4962" style="stop-color:#3882C4"/>
		<stop  offset="0.5465" style="stop-color:#296DB6"/>
		<stop  offset="0.5602" style="stop-color:#2367B2"/>
		<stop  offset="0.6935" style="stop-color:#01568A"/>
		<stop  offset="0.8387" style="stop-color:#19457D"/>
		<stop  offset="0.9247" style="stop-color:#253D8D"/>
	</radialGradient>
	<path fill="url(#SVGID_12_)" d="M941.5,417.1l-1.5-0.8c-5.4-3.1-4.7-8.6,1.5-12.2l43.9-25.4c6.2-3.6,15.7-4,21.1-0.9l1.5,0.8
		c5.4,3.1,4.7,8.6-1.5,12.2l-43.9,25.4C956.3,419.8,946.9,420.2,941.5,417.1z"/>
	<path fill="#525252" d="M1034.5,452.5l-92,53.1c-4.6,2.6-8.3-0.2-8.3-6.2l0,0c0-6.1,3.7-13.1,8.3-15.8l105.4-60.8v4.2
		C1047.9,436.8,1041.9,448.2,1034.5,452.5z"/>
	<radialGradient id="SVGID_13_" cx="932.1914" cy="213.3071" r="322.8993" gradientUnits="userSpaceOnUse">
		<stop  offset="0" style="stop-color:#CED9EF"/>
		<stop  offset="0.3398" style="stop-color:#79D1EF"/>
		<stop  offset="0.4263" style="stop-color:#5398C7"/>
		<stop  offset="0.5402" style="stop-color:#22629F"/>
		<stop  offset="0.5918" style="stop-color:#074F92"/>
		<stop  offset="0.6774" style="stop-color:#214186"/>
		<stop  offset="0.7832" style="stop-color:#31459C"/>
		<stop  offset="0.8871" style="stop-color:#25336D"/>
		<stop  offset="1" style="stop-color:#2A2C75"/>
	</radialGradient>
	<path fill="url(#SVGID_13_)" d="M1041.3,225.7L1041.3,225.7c-3.2-1.7-7.3-1.5-11.8,1.1l-2.7,1.6c-10.2,5.9-18.4,21.6-18.4,35.2v182
		l24.4-14.1v5.8l-29.3,23.9l-66.6,44.7l93.6,52.9l53.8-41.4l30.7-26.2l19.1-213L1041.3,225.7z"/>
	<path fill="#2D2E2D" d="M972.7,526.1c0,0-2.5-6.6,2.4-11.5c4.9-4.9,30.8-15.8,32.7-17c1.9-1.2,11.2-8,11.2-8l2.8-6.4
		c0,0-52.6,5.1-53.3,5.9c-0.7,0.8-24.6,22.3-23.9,23.2c0.7,0.9,16.5,4.8,16.5,4.8l3,4.2L972.7,526.1z"/>
	<radialGradient id="SVGID_14_" cx="1084.2461" cy="418.2729" r="107.4765" gradientUnits="userSpaceOnUse">
		<stop  offset="0" style="stop-color:#28A3DD"/>
		<stop  offset="9.786187e-002" style="stop-color:#4396C8"/>
		<stop  offset="9.840961e-002" style="stop-color:#4395C8"/>
		<stop  offset="0.1565" style="stop-color:#2162AC"/>
		<stop  offset="0.1828" style="stop-color:#134FA3"/>
		<stop  offset="1" style="stop-color:#233C7A"/>
	</radialGradient>
	<path fill="url(#SVGID_14_)" d="M1122.7,279.5l-2.7,1.6c-10.2,5.9-18.4,21.6-18.4,35.2v182l-65.8,38c-4.6,2.6-8.3,9.7-8.3,15.8l0,0
		c0,6.1,3.7,8.9,8.3,6.2l92-53.1c7.4-4.3,13.4-15.7,13.4-25.6v-4.2v-182C1141.1,279.9,1132.8,273.6,1122.7,279.5z"/>
	<radialGradient id="SVGID_15_" cx="951.6641" cy="576.9575" r="30.182" gradientUnits="userSpaceOnUse">
		<stop  offset="0" style="stop-color:#0D133A"/>
		<stop  offset="0.3333" style="stop-color:#17214C"/>
		<stop  offset="1" style="stop-color:#233B7A"/>
	</radialGradient>
	<path fill="url(#SVGID_15_)" d="M947.8,565.5c0,0-13.6,8.7-18.1,13.8c-4.6,5.1-13.7,15.6-9.9,20.6c3.7,5,16.4,7.8,29.9-4.7
		c13.6-12.5,9.7-13.2,21.3-19.4c11.5-6.2,14.7-12.9,13.3-16.8c-1.4-3.9-7.1-10.7-10.2-9.2C970.9,551.4,947.8,565.5,947.8,565.5z"/>
	<radialGradient id="SVGID_16_" cx="1021.1133" cy="614.9424" r="29.1112" gradientUnits="userSpaceOnUse">
		<stop  offset="0" style="stop-color:#0D133A"/>
		<stop  offset="0.3333" style="stop-color:#17214C"/>
		<stop  offset="1" style="stop-color:#233B7A"/>
	</radialGradient>
	<path fill="url(#SVGID_16_)" d="M1013.7,602.1c0,0-4.9,10.7-7.4,14.3c-2.5,3.6-14.7,24-8.3,28.8c6.3,4.7,18.4,3.4,27.9-6.9
		c9.5-10.3,11.6-22.9,14-27c2.3-4.1,8.2-15.2,5.4-21.5c-2.8-6.4-3.4-7.5-3.4-7.5L1013.7,602.1z"/>
	<linearGradient id="SVGID_17_" gradientUnits="userSpaceOnUse" x1="917.1006" y1="526.124" x2="1088.1025" y2="526.124">
		<stop  offset="0" style="stop-color:#1F295A"/>
		<stop  offset="0.455" style="stop-color:#1D4377"/>
		<stop  offset="1" style="stop-color:#0067A4"/>
	</linearGradient>
	<path fill="url(#SVGID_17_)" d="M964.5,449.6c0,0-40.3,39.7-46.9,59.7c0,0-2.8,10.8,5,19.2c7.8,8.5,24.3,36.1,24.3,36.1
		s12.3,14.9,28.3,3c0,0,7.2-11.5,2.8-19.2c-4.4-7.7-16.2-32.1-16.2-32.1s25.8-17.8,38.6-22.3c12.7-4.5,19.6-8,19.6-8
		s-2.3,12-11.6,23.8c-9.3,11.7-24.9,30.6-19.7,43.7c5.2,13.1,8.2,17.2,13.1,24.7c4.9,7.5,9.5,23.3,13.7,25c4.2,1.6,23.4,3.5,26.6-9
		c3.1-12.5-6.6-36.9-10.9-45.2c0,0,52.1-60.1,57.1-66.7C1092.9,475.8,980.6,439.4,964.5,449.6z"/>
	<path fill="#211C58" d="M978,548.4c-4.4-7.7-16.2-32.1-16.2-32.1s25.8-17.8,38.6-22.3c12.7-4.5,19.6-8,19.6-8
		c2.4-3.4,10.4-16.3,13.9-26.5c-29.4-8.6-61.3-15.1-69.3-10c2.8,7,17.8,7,17.8,7s5.6,13.6,9.3,15.4c3.7,1.7,12.6-0.2,12.6-0.2
		s-1.4,2.2-7.8,6.8c-6.3,4.6-46,37-46,37s2.3,1.3,12.8,20.4s11.9,31.7,11.9,31.7S982.4,556.1,978,548.4z"/>
	<path opacity="0.6" fill="#11122E" d="M1067,470.7c-23.3-2.2-50.4-2.4-44.3,9.8c10.4,20.7,31.2,21.7,31.2,21.7
		c-0.1,7.6-32.1,44.4-32.1,44.4s0,0,7.4,14.5c7.4,14.5,6.5,40.9,6.5,40.9c2.9-1.6,5.2-4,6.1-7.6c3.1-12.5-6.6-36.9-10.9-45.2
		c0,0,52.1-60.1,57.1-66.7C1089.4,480.4,1080.6,475.9,1067,470.7z"/>
	<radialGradient id="SVGID_18_" cx="998.9199" cy="292.3345" r="218.8255" gradientUnits="userSpaceOnUse">
		<stop  offset="0" style="stop-color:#28A3DD"/>
		<stop  offset="0.1678" style="stop-color:#4396C8"/>
		<stop  offset="0.1697" style="stop-color:#4395C8"/>
		<stop  offset="0.379" style="stop-color:#2162AC"/>
		<stop  offset="0.4735" style="stop-color:#134FA3"/>
		<stop  offset="1" style="stop-color:#233C7A"/>
	</radialGradient>
	<path fill="url(#SVGID_18_)" d="M923.7,343.6l6.2-4.8c0,0,33.4-18.5,44.5-24.6c6-3.3,12.3-9.1,16.7-13.7c4.3-4.5,10.4-7.1,16.7-7.1
		l58.5-0.3c0,0,6.8,10.9,9.1,13.1c1.7,1.6,17.6,14.9,29,25.8c6.3,6.1,10.9,13.7,13.3,22.1c6.5,23,6.4,69.3,7.4,102.4
		c0,0-4,1.6-14.1,3.7c-10,2.1-8.7,0.8-8.7,0.8s-14.9,33.6-35.2,36.8c-20.3,3.2-47.5-6.2-52.4-38c0,0-39.5-5.9-50.2-10.3
		c-1-0.4-1.3-1.6-0.7-2.5c4.8-6.3,22.6-30.9,24.3-46.9c2-18.5,1.4-45.4-0.1-52.7c0,0-29.8,11.2-39.3,13.2c0,0-36.3,39.8-51.4,50.7
		c0,0,5.2-8.2-5.2-13.7L923.7,343.6z"/>
	<path opacity="0.6" fill="#11122E" d="M1111.1,460.2c1.5-0.3,2.9-0.6,4.1-0.9l-2.1-4.1l-54.9-5.8l-32.1,1.7l-11,10.5
		c0.6,3.4,1.5,6.6,2.6,9.4c0.1,0,13.6,2,19.9,0.6c6.3-1.4,55.2,5.8,55.3,5.9c5.5-7.9,9-15.4,9.4-16.3
		C1102.2,461.4,1102.8,462,1111.1,460.2z"/>
	<path fill="#FCD1C6" d="M1036.9,441.1c-0.1-0.2-0.2-0.3-0.4-0.4c-2.6-0.1-19.8-0.6-26.3-2.8c-7-2.4-14.5-2-14.9-1.6
		s-12.1,5.4-12.8,7.4c-0.6,1.8-1.7,8-0.2,10.3c1.6,2.3,2.3,3.8,2.3,3.8l1.2,0.1c0,0,1.6,3.1,2.5,4.2c0.4,0.5,0.7,1,1,1.6
		c0.7,1.6,2,4.2,2.6,4.3c0.8,0.1,4.4,0.8,5.3,0.6c0.8-0.2,1.4-2.5,1.1-3.5c-0.1-0.3,0.1-0.5,0.3-0.6c1.7-0.3,6.2-0.8,12.5-0.3
		c7.6,0.7,18.4-4.3,19.4-4.8c0.1,0,0.1,0,0.2,0l10.8-1c0.3,0,0.5-0.3,0.4-0.6L1036.9,441.1z"/>
	<path fill="#F1F6FC" d="M1024,327.6c0,0-9.2,33.8,0.5,68.5c0,0,35.3-65.8,39.1-76.4c3.8-10.7,5.2-18.3,1.6-22.1
		c-3.6-3.8-35.4,16-35.4,16L1024,327.6z"/>
	<path fill="#C4CBD5" d="M1033,380.6c0,0,6.7-20.5,5.5-27.2c-1.2-6.6-2.8-11.4-2.8-11.4l6.1-5.6l2.7,5.5c0,0,13.3-9.8,14.2-11.6
		c0,0-10.7,7.4-14.1,8.5c0,0-1.6-2.6-3.7-3.5c-2.1-0.9-7.4,6.3-7.4,6.3l-1,12.5l-5.3,29.1l1.8,4.3L1033,380.6z"/>
	<path fill="#28357C" d="M1040.9,335.3c0,0-6-10.5-13.7-7.3c0,0-1.2,13-0.2,14.2c-1.7,2.3-6.1,8.5-6.8,15.4
		c-2.1,19.3,4.4,38.5,4.4,38.5l5.2-9.8c0,0,1.3-11.8,4.8-24.6c2.5-9.4,1.2-16.9,0.4-20.1C1037.1,339.7,1040.9,335.3,1040.9,335.3z"
		/>
	<path fill="#FCD1C6" d="M1007.5,273.7c0,0-1.6,8.2-1,9.8c0.6,1.6,2.7,2.6,2.2,5.8c-0.5,3.2,1.3,12.8,2.3,16c0,0-0.7,3.4,0.3,4.5
		c1,1.1,2.2,1,3.1,2.6c0.9,1.6,1.2,9.9,4.6,12.7c3.4,2.8,7.7,3.3,10,2.7c2.3-0.6,4.6-2.3,4.6-2.3l5.1,2.1c0,0,26.2-7.4,25.4-25.8
		l0-1.9c0,0,1.9-2.6,2.4-4.3c0.5-1.7,4.9-9.4,2.7-12.7c0,0,10.2-40.1-21.2-42.5C1016.4,237.8,1011.7,259.8,1007.5,273.7z"/>
	<path fill="#E2B1A6" d="M1063.8,301.7l0-0.2c-1.3-0.8-2.6-1.3-3.6-1.1c-3.6,0.6-2.8-6.8-2.8-6.8s-0.7,1.3-2.5,10.9
		c-1.8,9.5-21.6,21-21.6,21l5.1,2.1C1038.4,327.5,1064.6,320.1,1063.8,301.7z"/>
	<linearGradient id="SVGID_19_" gradientUnits="userSpaceOnUse" x1="1005.0078" y1="264.6841" x2="1072.4805" y2="264.6841">
		<stop  offset="0" style="stop-color:#273649"/>
		<stop  offset="0.9731" style="stop-color:#0D1013"/>
	</linearGradient>
	<path fill="url(#SVGID_19_)" d="M1007.6,256.3c-3.1,6.5-4.5,14.3,1.9,19.6c0,0,5.4,1.5,15.6-3.3c6.9-3.2,13.8-1.8,17.6-0.5
		c1.7,0.6,2.9,2.2,2.8,4.1l-0.2,5.7c0,1.5,0.8,2.8,2.2,3.4l4.8,2l0.9,5.5c0.3,1.6,2,2.6,3.5,2.1l1.2-0.4c0,0,0.7-12.4,10.9-11.7
		c0,0,8.3-17.8-0.2-34.2c-8.5-16.3-31.6-15.1-36.6-13.3c-6.5,2.4-5.6,2.1-9.3,4.4C1016.3,243.7,1010.9,249.4,1007.6,256.3z"/>
	<path opacity="0.6" fill="#11122E" d="M1091,382.1c0,0-4.7,35-6.7,44.9l-15.3,8.1l27.2-1.7L1091,382.1z"/>
	<path fill="#15151E" d="M1068.9,282.8c0,0,2.8-6,3.5-14.3c-12.7,10-26.8,7.7-26.8,7.7l-0.2,5.7c0,1.5,0.8,2.8,2.2,3.4l4.8,2
		l0.9,5.5c0.3,1.6,2,2.6,3.5,2.1l1.2-0.4C1058,294.5,1058.7,282.1,1068.9,282.8z"/>
	<path opacity="0.8" fill="#11122E" d="M1075.7,313.5c0,0-8.1,27.9-9.8,33.2l-6.5-0.7l1.2,8.8l-35.2,46.4l39-44.8l-1.5-7.9l5.9,0.6
		L1075.7,313.5z"/>
	<path fill="#273649" d="M1041.1,465c0,0,82.5-2.7,84.6-4.2c2.1-1.5,2.5-22.7,2.3-35c-0.1-8.6,0-42.4-7.4-66.1
		c5.8,20,2.7,90.9,0.1,94.5c-2.6,3.6-81.1,5.7-81.1,5.7l0,0C1040.5,462.9,1041.1,465,1041.1,465z"/>
	<path fill="#FCD1C6" d="M879.1,399c0,0-0.3,2.1-3.9,4.1c-3.6,2-12.8,6.6-14.3,7.9c-1.5,1.3-8.1,7.1-8.3,7.9
		c-0.2,0.8-2.2,7.3-2.2,7.7c0,0.4,0.6,3.4,0.6,3.4l-2,9.7c0,0-2.6,3.8,0.2,4.8c2.8,1,4.4-1.9,4.5-2.3c0,0,4.3-2,7.4-4.4
		c3.1-2.4,15.6-12.5,17.8-11.9c2.1,0.6,0.2,4.2-0.9,4.8c-1,0.6-7.7,7.1-4.9,11.6c2.8,4.5,4.6-2.5,6.4-4c1.8-1.4,5.8-7.1,8.2-7.8
		c2.4-0.7,6.9-9.8,7.4-13.8c0.6-4.1,3.5-6.7,4.5-8c1-1.3-2.2-11.4-2.2-11.4l-12.4-3.9l-4.3,2.8L879.1,399z"/>
	<g>
		<defs>
			<path id="SVGID_20_" d="M1067.5,489.5l-1.5-0.8c-5.4-3.1-4.7-8.6,1.5-12.2l43.9-25.4c6.2-3.6,15.7-4,21.1-0.9l1.5,0.8
				c5.4,3.1,4.7,8.6-1.5,12.2l-43.9,25.4C1082.3,492.2,1072.9,492.6,1067.5,489.5z"/>
		</defs>
		<clipPath id="SVGID_21_">
			<use xlink:href="#SVGID_20_"  overflow="visible"/>
		</clipPath>
		<path clip-path="url(#SVGID_21_)" fill="#344659" d="M1114.5,345.8c-2.6-4.1-3.8-1.1-7.3,2.3c-4.7,4.6-10.6,11.6-13.6,20.6
			c-5.5,16.3-3.6,56.9-1.7,62.7c0,0-51.6,8.5-55.2,8.3c-3.6-0.2,4.4,25.3,4.4,25.3s82.5-2.7,84.6-4.2c2.1-1.5,2.5-22.7,2.3-35
			C1127.8,415.2,1128,367.2,1114.5,345.8z"/>
		<path clip-path="url(#SVGID_21_)" fill="#273649" d="M1041.1,465c0,0,82.5-2.7,84.6-4.2c2.1-1.5,2.5-22.7,2.3-35
			c-0.1-8.6,0-42.4-7.4-66.1c5.8,20,2.7,90.9,0.1,94.5c-2.6,3.6-81.1,5.7-81.1,5.7l0,0C1040.5,462.9,1041.1,465,1041.1,465z"/>
	</g>
	<radialGradient id="SVGID_22_" cx="1076.3115" cy="438.1084" r="94.6688" gradientUnits="userSpaceOnUse">
		<stop  offset="0" style="stop-color:#E49B66"/>
		<stop  offset="0.2827" style="stop-color:#8456A3"/>
		<stop  offset="0.3118" style="stop-color:#7A55A3"/>
		<stop  offset="0.3984" style="stop-color:#5E52A3"/>
		<stop  offset="0.5405" style="stop-color:#272668"/>
	</radialGradient>
	<path fill="url(#SVGID_22_)" d="M1137.7,455.9L1137.7,455.9c-0.2-1.8-1.4-3.5-3.6-4.8l-1.5-0.8c-5.4-3.1-14.8-2.7-21.1,0.9
		l-43.9,25.4c-3.3,1.9-5,4.3-5.1,6.7l0,0v7.7l0,0c0,2,1.2,3.9,3.6,5.3l1.5,0.8c5.4,3.1,14.8,2.7,21.1-0.9l43.9-25.4
		c3.2-1.9,4.9-4.2,5.1-6.4l0,0V455.9z"/>
	<radialGradient id="SVGID_23_" cx="1062.1328" cy="432.8096" r="62.1706" gradientUnits="userSpaceOnUse">
		<stop  offset="1.612903e-002" style="stop-color:#5ABBEA"/>
		<stop  offset="0.3075" style="stop-color:#2367B2"/>
		<stop  offset="0.5323" style="stop-color:#01568A"/>
		<stop  offset="0.7419" style="stop-color:#19457D"/>
		<stop  offset="1" style="stop-color:#253D8D"/>
	</radialGradient>
	<path fill="url(#SVGID_23_)" d="M1067.5,489.5l-1.5-0.8c-5.4-3.1-4.7-8.6,1.5-12.2l43.9-25.4c6.2-3.6,15.7-4,21.1-0.9l1.5,0.8
		c5.4,3.1,4.7,8.6-1.5,12.2l-43.9,25.4C1082.3,492.2,1072.9,492.6,1067.5,489.5z"/>
	<path fill="#22356A" d="M988.1,705.8c-1.8,0-3.4-0.4-4.9-1.3c-3.5-2-5.4-6-5.4-11.3V574.8h5.1v118.5c0,3.3,1,5.8,2.8,6.8
		c1.8,1,4.4,0.7,7.3-1l98.6-56.9c6.9-4,12.7-14,12.7-22V501.7h5.1v118.5c0,9.9-6.7,21.5-15.3,26.4l-98.6,56.9
		C993,705,990.4,705.8,988.1,705.8z"/>
	<path fill="#22356A" d="M736.1,565.6c-1.8,0-3.4-0.4-4.9-1.3c-3.5-2-5.4-6-5.4-11.3V434.6h5.1V553c0,3.3,1,5.8,2.8,6.8
		c1.8,1,4.4,0.7,7.3-1l98.6-56.9c6.9-4,12.7-14,12.7-22V361.5h5.1v118.5c0,9.9-6.7,21.5-15.3,26.4l-98.6,56.9
		C741,564.8,738.4,565.6,736.1,565.6z"/>
	
		<rect x="709.5" y="548" transform="matrix(0.8699 0.4933 -0.4933 0.8699 382.7525 -349.7784)" fill="#22356A" width="289.7" height="5.1"/>
	<linearGradient id="SVGID_24_" gradientUnits="userSpaceOnUse" x1="712.2065" y1="481.6055" x2="1125.4277" y2="481.6055">
		<stop  offset="0" style="stop-color:#6ECACE"/>
		<stop  offset="0.1324" style="stop-color:#6EC5CC"/>
		<stop  offset="0.2886" style="stop-color:#6CBCCA"/>
		<stop  offset="0.4568" style="stop-color:#68ADC6"/>
		<stop  offset="0.6335" style="stop-color:#6499BF"/>
		<stop  offset="0.8167" style="stop-color:#5F7FB6"/>
		<stop  offset="1" style="stop-color:#5A64AD"/>
	</linearGradient>
	<polygon opacity="0.5" fill="url(#SVGID_24_)" points="981.1,600.9 712.2,445.7 856.6,362.3 1125.4,517.5 	"/>
	<radialGradient id="SVGID_25_" cx="707.6226" cy="437.3257" r="332.377" gradientUnits="userSpaceOnUse">
		<stop  offset="0" style="stop-color:#CED9EF"/>
		<stop  offset="0.1946" style="stop-color:#60BFD4"/>
		<stop  offset="0.2926" style="stop-color:#4595BC"/>
		<stop  offset="0.4467" style="stop-color:#1B619D"/>
		<stop  offset="0.5165" style="stop-color:#074F92"/>
		<stop  offset="0.7742" style="stop-color:#214186"/>
		<stop  offset="0.9946" style="stop-color:#25336D"/>
	</radialGradient>
	<polygon fill="url(#SVGID_25_)" points="712.2,432.8 712.2,445.7 981.1,600.9 1125.4,517.5 1125.4,504.7 981.1,588 	"/>
	<radialGradient id="SVGID_26_" cx="689.6665" cy="404.8872" r="461.1388" gradientUnits="userSpaceOnUse">
		<stop  offset="0" style="stop-color:#CED9EF"/>
		<stop  offset="0.1946" style="stop-color:#60BFD4"/>
		<stop  offset="0.2926" style="stop-color:#4595BC"/>
		<stop  offset="0.4467" style="stop-color:#1B619D"/>
		<stop  offset="0.5165" style="stop-color:#074F92"/>
		<stop  offset="0.7742" style="stop-color:#214186"/>
		<stop  offset="0.9946" style="stop-color:#25336D"/>
	</radialGradient>
	<polygon fill="url(#SVGID_26_)" points="981.1,588 712.2,432.8 856.6,349.4 1125.4,504.7 	"/>
	<path opacity="0.4" fill="#11122E" d="M996.8,467.1c0,0,10.3,3.7,18.2,2.4c7.9-1.3,45.9-2.1,45.9-2.1l-6-3.4l-13.3-9.3l-33,2.2
		l-12.7,4.6L996.8,467.1z"/>
	<path fill="#FCD1C6" d="M1036.9,441.1c-0.1-0.2-0.2-0.3-0.4-0.4c-2.6-0.1-19.8-0.6-26.3-2.8c-7-2.4-14.5-2-14.9-1.6
		s-12.1,5.4-12.8,7.4c-0.6,1.8-1.7,8-0.2,10.3c1.6,2.3,2.3,3.8,2.3,3.8l1.2,0.1c0,0,1.6,3.1,2.5,4.2c0.4,0.5,0.7,1,1,1.6
		c0.7,1.6,2,4.2,2.6,4.3c0.8,0.1,4.4,0.8,5.3,0.6c0.8-0.2,1.4-2.5,1.1-3.5c-0.1-0.3,0.1-0.5,0.3-0.6c1.7-0.3,6.2-0.8,12.5-0.3
		c7.6,0.7,18.4-4.3,19.4-4.8c0.1,0,0.1,0,0.2,0l10.8-1c0.3,0,0.5-0.3,0.4-0.6L1036.9,441.1z"/>
	<radialGradient id="SVGID_27_" cx="883.5352" cy="326.6069" r="356.1212" gradientUnits="userSpaceOnUse">
		<stop  offset="0" style="stop-color:#CED9EF"/>
		<stop  offset="0.3398" style="stop-color:#79D1EF"/>
		<stop  offset="0.4263" style="stop-color:#5398C7"/>
		<stop  offset="0.5402" style="stop-color:#22629F"/>
		<stop  offset="0.5918" style="stop-color:#074F92"/>
		<stop  offset="0.6774" style="stop-color:#214186"/>
		<stop  offset="0.7832" style="stop-color:#31459C"/>
		<stop  offset="0.8871" style="stop-color:#25336D"/>
		<stop  offset="1" style="stop-color:#2A2C75"/>
	</radialGradient>
	<path fill="url(#SVGID_27_)" d="M1114.5,345.8c-2.6-4.1-3.8-1.1-7.3,2.3c-4.7,4.6-10.6,11.6-13.6,20.6c-5.5,16.3-3.6,56.9-1.7,62.7
		c0,0-51.6,8.5-55.2,8.3c-3.6-0.2,4.4,25.3,4.4,25.3s82.5-2.7,84.6-4.2c2.1-1.5,2.5-22.7,2.3-35
		C1127.8,415.2,1128,367.2,1114.5,345.8z"/>
	<path opacity="0.6" fill="#11122E" d="M1041.1,465c0,0,82.5-2.7,84.6-4.2c2.1-1.5,2.5-22.7,2.3-35c-0.1-8.6,0-42.4-7.4-66.1
		c5.8,20,2.7,90.9,0.1,94.5c-2.6,3.6-81.1,5.7-81.1,5.7l0,0C1040.5,462.9,1041.1,465,1041.1,465z"/>
	<path opacity="0.3" fill="#211C58" d="M893.3,422.8c0,0,29.5-23,33.7-25.3c4.2-2.2,6-3.9,6-3.9l-9.9-5.7l-16.7,6.9l-21,20.8
		L853,438.5v5.3c0,0,26.7-11.5,29.7-13.4C885.7,428.5,893.3,422.8,893.3,422.8z"/>
	<path opacity="0.63" fill="#2D2E2D" d="M875.7,443.6c0,0,6.3-5.6,10.3-7.5c4.1-1.9,10.5-6.8,11.3-10.7c0.8-3.8,7.5-12.2,7.5-12.2
		l-10.7,6.2l-15.6,9l-25.9,15c0,0,1.6,1.8,4.9,0.7c3.3-1.1,9.4-5,12.3-5.4c2.9-0.4,7.6-1.2,7.6-1.2L875.7,443.6z"/>
	<path fill="#FCD1C6" d="M879.1,399c0,0-0.3,2.1-3.9,4.1c-3.6,2-12.8,6.6-14.3,7.9c-1.5,1.3-8.1,7.1-8.3,7.9
		c-0.2,0.8-2.2,7.3-2.2,7.7c0,0.4,0.6,3.4,0.6,3.4l-2,9.7c0,0-2.6,3.8,0.2,4.8c2.8,1,4.4-1.9,4.5-2.3c0,0,4.3-2,7.4-4.4
		c3.1-2.4,15.6-12.5,17.8-11.9c2.1,0.6,0.2,4.2-0.9,4.8c-1,0.6-7.7,7.1-4.9,11.6c2.8,4.5,4.6-2.5,6.4-4c1.8-1.4,5.8-7.1,8.2-7.8
		c2.4-0.7,6.9-9.8,7.4-13.8c0.6-4.1,3.5-6.7,4.5-8c1-1.3-2.2-11.4-2.2-11.4l-12.4-3.9l-4.3,2.8L879.1,399z"/>
	<radialGradient id="SVGID_28_" cx="978.8682" cy="285.7124" r="234.7572" gradientUnits="userSpaceOnUse">
		<stop  offset="1.612903e-002" style="stop-color:#5ABBEA"/>
		<stop  offset="0.1785" style="stop-color:#2367B2"/>
		<stop  offset="0.4839" style="stop-color:#01568A"/>
		<stop  offset="0.7312" style="stop-color:#19457D"/>
		<stop  offset="0.9247" style="stop-color:#253D8D"/>
	</radialGradient>
	<path fill="url(#SVGID_28_)" d="M990.9,331c0,0-0.5-18.5,2.7-32.6c-0.9,0.7-1.7,1.4-2.5,2.2c-4.5,4.7-10.7,10.5-16.7,13.7
		c-11.1,6-44.5,24.6-44.5,24.6l-6.2,4.8c-19.6,15.4-41.5,48.8-44.7,55.4c1.5-2,5.5-5.4,13-1.4c10.4,5.5,5.5,13.9,5.5,13.9
		c15.1-10.8,51.2-50.8,51.2-50.8c8.9-1.9,35.6-11.8,38.9-13.1C989.8,342,991.1,336.4,990.9,331z"/>
	<path opacity="0.6" fill="#11122E" d="M830.2,465.2l108,62.3c1.2,0.7,3,0.8,4,0.2l64.4-37.2c1-0.6,0.9-1.6-0.3-2.3l-108-62.3
		c-1.2-0.7-3-0.8-4-0.2l-64.4,37.2C828.8,463.5,829,464.5,830.2,465.2z"/>
	<polygon opacity="0.5" fill="#0F1026" points="791.8,440 825.5,455.5 842.7,429.7 800,421.9 	"/>
	<radialGradient id="SVGID_29_" cx="769.3945" cy="404.4351" r="105.3246" gradientUnits="userSpaceOnUse">
		<stop  offset="1.612903e-002" style="stop-color:#5ABBEA"/>
		<stop  offset="0.1785" style="stop-color:#2367B2"/>
		<stop  offset="0.4839" style="stop-color:#01568A"/>
		<stop  offset="0.7312" style="stop-color:#19457D"/>
		<stop  offset="0.9247" style="stop-color:#253D8D"/>
	</radialGradient>
	<path fill="url(#SVGID_29_)" d="M808,393.1h-35.6l3.3,38.6l0,0c0,2.1,1.4,4.3,4.3,5.9c5.7,3.3,14.8,3.3,20.5,0
		c2.8-1.6,4.2-3.8,4.2-5.9L808,393.1z"/>
	<path opacity="0.4" fill="#10113C" d="M808,393.1h-35.6l0.5,6.3c0.8,1,1.9,2.1,3.3,3c6.8,4.5,18,5.4,25.7,2.1l-1.2,28.2
		c-0.1,1.2-0.5,2.4-1.3,3.4c-1.2,1.4-3.4,3-7.7,3.9c3.2-0.2,6.2-1,8.6-2.4c2.8-1.6,4.2-3.8,4.2-5.9l2.7-30.9l0,0L808,393.1z"/>
	<path opacity="0.4" fill="#10113C" d="M802.7,400.4c-7,4-18.2,4-25.2,0c-7-4-7-10.5,0-14.5c7-4,18.2-4,25.2,0
		C809.7,389.8,809.7,396.3,802.7,400.4z"/>
	<path opacity="0.4" fill="#10113C" d="M801,395.7c-6,3.5-15.7,3.5-21.7,0c-6-3.5-6-9.1,0-12.5c6-3.5,15.7-3.5,21.7,0
		C807,386.7,807,392.3,801,395.7z"/>
	<linearGradient id="SVGID_30_" gradientUnits="userSpaceOnUse" x1="771.2607" y1="391.3877" x2="809.0371" y2="391.3877">
		<stop  offset="0" style="stop-color:#049ABE"/>
		<stop  offset="0.1935" style="stop-color:#0359A4"/>
		<stop  offset="0.2473" style="stop-color:#045098"/>
		<stop  offset="0.3548" style="stop-color:#22376D"/>
	</linearGradient>
	<path fill="url(#SVGID_30_)" d="M809,392.6L809,392.6L809,392.6C809,392.6,809,392.5,809,392.6l-0.3-3.5l0,0
		c-0.2-2.6-2-5.2-5.4-7.2c-7.2-4.2-19-4.2-26.2,0c-3.5,2-5.4,4.7-5.4,7.4l0,0l-0.3,3.1c0,0.1,0,0.2,0,0.2l0,0h0
		c-0.2,2.9,1.6,5.9,5.5,8.1c7.4,4.3,19.3,4.3,26.7,0C807.4,398.5,809.2,395.6,809,392.6z"/>
	<linearGradient id="SVGID_31_" gradientUnits="userSpaceOnUse" x1="774.8018" y1="389.4683" x2="805.4941" y2="389.4683">
		<stop  offset="0" style="stop-color:#22376D"/>
		<stop  offset="0.7651" style="stop-color:#186EA2"/>
		<stop  offset="1" style="stop-color:#0983B9"/>
	</linearGradient>
	<path fill="url(#SVGID_31_)" d="M801,395.7c-6,3.5-15.7,3.5-21.7,0c-6-3.5-6-9.1,0-12.5c6-3.5,15.7-3.5,21.7,0
		C807,386.7,807,392.3,801,395.7z"/>
	<linearGradient id="SVGID_32_" gradientUnits="userSpaceOnUse" x1="774.0742" y1="389.4683" x2="804.7676" y2="389.4683">
		<stop  offset="0" style="stop-color:#22376D"/>
		<stop  offset="0.5808" style="stop-color:#1A4989"/>
		<stop  offset="1" style="stop-color:#0359A4"/>
	</linearGradient>
	<path fill="url(#SVGID_32_)" d="M800.3,395.7c-6,3.5-15.7,3.5-21.7,0c-6-3.5-6-9.1,0-12.5c6-3.5,15.7-3.5,21.7,0
		C806.3,386.7,806.3,392.3,800.3,395.7z"/>
	<path opacity="0.4" fill="#10113C" d="M781.1,384.5c6-3.5,15.7-3.5,21.7,0c0.1,0,0.1,0.1,0.2,0.1c-0.6-0.5-1.3-1-2-1.5
		c-6-3.5-15.7-3.5-21.7,0c-5.9,3.4-6,8.9-0.2,12.4C775.2,392.2,775.9,387.5,781.1,384.5z"/>
	<linearGradient id="SVGID_33_" gradientUnits="userSpaceOnUse" x1="774.8047" y1="385.4229" x2="813.5016" y2="385.4229">
		<stop  offset="0" style="stop-color:#22376D"/>
		<stop  offset="6.911979e-002" style="stop-color:#213970"/>
		<stop  offset="0.1405" style="stop-color:#1E3F7A"/>
		<stop  offset="0.2126" style="stop-color:#13498B"/>
		<stop  offset="0.2473" style="stop-color:#045098"/>
		<stop  offset="0.7097" style="stop-color:#0359A4"/>
		<stop  offset="0.7202" style="stop-color:#025FA6"/>
		<stop  offset="0.7558" style="stop-color:#0170AD"/>
		<stop  offset="0.7937" style="stop-color:#017EB3"/>
		<stop  offset="0.8341" style="stop-color:#018AB8"/>
		<stop  offset="0.8781" style="stop-color:#0393BB"/>
		<stop  offset="0.9287" style="stop-color:#0398BD"/>
		<stop  offset="1" style="stop-color:#049ABE"/>
	</linearGradient>
	<path fill="url(#SVGID_33_)" d="M779.3,384.7c6-3.5,15.7-3.5,21.7,0c2.7,1.5,4.1,3.5,4.4,5.5c0.4-2.5-1.1-5.1-4.4-7
		c-6-3.5-15.7-3.5-21.7,0c-3.3,1.9-4.8,4.5-4.4,7C775.2,388.2,776.6,386.3,779.3,384.7z"/>
	<radialGradient id="SVGID_34_" cx="766.5449" cy="380.6982" r="68.8989" gradientUnits="userSpaceOnUse">
		<stop  offset="1.612903e-002" style="stop-color:#5ABBEA"/>
		<stop  offset="0.1785" style="stop-color:#2367B2"/>
		<stop  offset="0.4839" style="stop-color:#01568A"/>
		<stop  offset="0.7312" style="stop-color:#19457D"/>
		<stop  offset="0.9247" style="stop-color:#253D8D"/>
	</radialGradient>
	<path fill="url(#SVGID_34_)" d="M803.4,382c-7.2-4.3-19-4.4-26.3-0.2c-7.3,4.1-7.4,10.9-0.1,15.2c7.2,4.3,19,4.4,26.3,0.2
		C810.5,393,810.6,386.2,803.4,382z M801,395.7c-2,1.2-4.4,1.9-7,2.3l-0.3-0.9c-0.1-0.4-0.5-0.6-0.8-0.6h-5.5
		c-0.4,0-0.7,0.3-0.8,0.6l-0.3,0.9c-2.6-0.4-5-1.1-7-2.3c-6-3.5-6-9.1,0-12.5c6-3.5,15.7-3.5,21.7,0C807,386.7,807,392.3,801,395.7z
		"/>
	<path fill="#FFFFFF" d="M801,382.5c-6-3.5-15.7-3.5-21.7,0c-3.1,1.8-4.6,4.2-4.5,6.6c0.1-2.2,1.6-4.3,4.5-5.9
		c6-3.5,15.7-3.5,21.7,0c2.9,1.6,4.3,3.8,4.5,5.9C805.6,386.8,804.1,384.4,801,382.5z"/>
	<path fill="#FFFFFF" d="M803.2,396.5c-7.3,4.1-19.1,4-26.3-0.2c-3.4-2-5.2-4.6-5.4-7.2c-0.1,2.8,1.6,5.7,5.4,7.9
		c7.2,4.3,19,4.4,26.3,0.2c3.8-2.2,5.7-5.1,5.5-7.9C808.6,391.9,806.8,394.5,803.2,396.5z"/>
	<path fill="#1E1C56" d="M791.8,398.5h-3.3c-0.2,0-0.4-0.2-0.4-0.4V398c0-0.2,0.2-0.4,0.4-0.4h3.3c0.2,0,0.4,0.2,0.4,0.4v0.1
		C792.2,398.3,792,398.5,791.8,398.5z"/>
	<linearGradient id="SVGID_35_" gradientUnits="userSpaceOnUse" x1="787.7197" y1="397.9136" x2="793.0744" y2="397.9136">
		<stop  offset="0" style="stop-color:#22376D"/>
		<stop  offset="6.911979e-002" style="stop-color:#213970"/>
		<stop  offset="0.1405" style="stop-color:#1E3F7A"/>
		<stop  offset="0.2126" style="stop-color:#13498B"/>
		<stop  offset="0.2473" style="stop-color:#045098"/>
		<stop  offset="0.7097" style="stop-color:#0359A4"/>
		<stop  offset="0.7202" style="stop-color:#025FA6"/>
		<stop  offset="0.7558" style="stop-color:#0170AD"/>
		<stop  offset="0.7937" style="stop-color:#017EB3"/>
		<stop  offset="0.8341" style="stop-color:#018AB8"/>
		<stop  offset="0.8781" style="stop-color:#0393BB"/>
		<stop  offset="0.9287" style="stop-color:#0398BD"/>
		<stop  offset="1" style="stop-color:#049ABE"/>
	</linearGradient>
	<path fill="url(#SVGID_35_)" d="M791.8,397.6h-3.3c-0.2,0-0.4,0.2-0.4,0.4v0.1c0,0,0,0.1,0,0.1c0-0.2,0.2-0.3,0.4-0.3h3.3
		c0.2,0,0.3,0.1,0.4,0.3c0,0,0-0.1,0-0.1V398C792.2,397.8,792,397.6,791.8,397.6z"/>
	<path opacity="0.5" fill="#FFFFFF" d="M791.3,398.2c0,0,10-3.3,5.9-14.8c-4-11.4-11.9-14.9-8.7-24.1c0,0-5,7.4-0.3,17.4
		c4.6,10,5.6,8.9,5.6,13.7c-0.1,5.7-4.7,7.8-4.7,7.8H791.3z"/>
	<path opacity="0.5" fill="#FFFFFF" d="M792.2,360.9c0,0-1-6.8,5.4-13.7c0,0-5.7,12.7-3.8,19C793.8,366.1,792.3,362.2,792.2,360.9z"
		/>
	
		<radialGradient id="SVGID_36_" cx="279.4409" cy="673.1851" r="25.7632" gradientTransform="matrix(-1 0 0 1 1489.2871 0)" gradientUnits="userSpaceOnUse">
		<stop  offset="0" style="stop-color:#0D133A"/>
		<stop  offset="0.3333" style="stop-color:#17214C"/>
		<stop  offset="1" style="stop-color:#233B7A"/>
	</radialGradient>
	<path fill="url(#SVGID_36_)" d="M1232.6,646.7c0,0,2.9,6,2.1,9.8c-0.8,3.9-10.2,17.2-12.9,24.6c-2.8,7.4-16.8,18.5-24.7,18.4
		c-7.9,0-15.1-3.3-11.4-12c3.8-8.7,7-12,10.1-16.1c3.1-4,9.2-15.5,10.1-20.3C1206.9,646.5,1232.6,646.7,1232.6,646.7z"/>
	<radialGradient id="SVGID_37_" cx="1159.9766" cy="625.5117" r="28.0952" gradientUnits="userSpaceOnUse">
		<stop  offset="0" style="stop-color:#0D133A"/>
		<stop  offset="0.3333" style="stop-color:#17214C"/>
		<stop  offset="1" style="stop-color:#233B7A"/>
	</radialGradient>
	<path fill="url(#SVGID_37_)" d="M1194,610.7c0,0,1.3,7.8,0.1,10.6c-1.2,2.8-3.6,5.3-10.6,7.4c-7,2-13.5,2.7-25.1,9.6
		c-11.6,6.9-27.4,9.8-32.2,2.3c-4.8-7.5,11.7-18.9,17.8-21.9c6.1-3,15.4-4.5,20.5-9c5.1-4.5,5.9-3.5,5.9-3.5L1194,610.7z"/>
	
		<linearGradient id="SVGID_38_" gradientUnits="userSpaceOnUse" x1="129.2832" y1="544.7949" x2="565.2142" y2="544.7949" gradientTransform="matrix(-1 0 0 1 1489.2871 0)">
		<stop  offset="0" style="stop-color:#1F295A"/>
		<stop  offset="0.455" style="stop-color:#1D4377"/>
		<stop  offset="1" style="stop-color:#0067A4"/>
	</linearGradient>
	<path fill="url(#SVGID_38_)" d="M1236.3,473.9c0,0-5.7,51.5-4,69.6c1.7,18.2,13.3,51.7,9.5,74.3c-3.8,22.8-8.3,32.1-8.3,32.1
		s-15.6,15.9-27.4,1.7c0,0,5-9.2,4.3-32.9c-0.3-12.1-0.6-19-0.7-22.9c-0.1-3-0.9-5.8-2.4-8.3c-3.7-6.2-11.2-19.8-16.7-35.6
		c0,0,2.7,33.4,2.5,48.5c0,2.3,0.2,4.7,0.6,7c0.4,1.9,0.6,4.4,0.2,6.4c-0.8,3.9-14.7,18.6-26,6.8c0,0-4.4-2.9-3.4-12.2
		c0.6-6.1-0.9-19.4-2.3-30.2c-1.1-8.4-3.6-16.5-7.4-23.8c-3.1-6-6.1-18.3-8-23.9c-3.7-11.3-17.6-65.2-17.8-77.5
		c-0.2-12.2,14.9-21,14.9-21s34.7,17,34,18.8c-0.7,1.9,43.5,20.4,43.5,20.4L1236.3,473.9z"/>
	<path opacity="0.6" fill="#11122E" d="M1143.8,432c0,0,34.7,17,34,18.8c-0.7,1.9,43.5,20.4,43.5,20.4l14.9,2.7c0,0-5.7,51.5-4,69.6
		c1.7,18.2,13.3,51.7,9.5,74.3c-3.8,22.8-8.3,32.1-8.3,32.1s-2.5,2.6-6.3,4.7c2.1-6.7,8.8-30.1,8.6-50.6
		c-0.2-23.9-10.7-62.5-11.2-75c-0.3-6.7-5.4-12.1-11.6-12.4c-10.1-0.4-24.9-2.1-35-7.8c3.2,13.4,12.7,43.1,12.7,43.1
		s2.9,35.7,2.4,49.9c0,1.4,0.1,2.9,0.4,4.3c0.5,2,1,5.2,0.5,7.6c-0.3,1.4-2.3,4.2-5.3,6.7c-0.3-14.7-3.2-51.9-4.3-60.4
		c-1.2-9.5-11.3-47.8-11.3-47.8c-5.3-4.1-7.9-14-8.9-18.9c-4.5-9.7-5.2-18.8-13.6-19c-0.7,0-11.1,12.8-18,2.7
		c-2.1-10.8-3.6-19.9-3.7-24C1128.7,440.8,1143.8,432,1143.8,432z"/>
	<path fill="#E2B1A6" d="M1130.6,454.8l1.9,6.5c0,0,3,0.4,7.1-4.2c4.1-4.6,0.2-9,0.2-9l-7.7,1.7L1130.6,454.8z"/>
	
		<radialGradient id="SVGID_39_" cx="399.3838" cy="317.8159" r="287.0184" gradientTransform="matrix(-1 0 0 1 1489.2871 0)" gradientUnits="userSpaceOnUse">
		<stop  offset="1.612903e-002" style="stop-color:#5ABBEA"/>
		<stop  offset="0.1785" style="stop-color:#2367B2"/>
		<stop  offset="0.4839" style="stop-color:#01568A"/>
		<stop  offset="0.7312" style="stop-color:#19457D"/>
		<stop  offset="0.9247" style="stop-color:#253D8D"/>
	</radialGradient>
	<path fill="url(#SVGID_39_)" d="M1157.6,276.8c0,0-2.2-0.1-7,2.5c-4.9,2.6-11.1,9.5-14.6,26.1c-3.5,16.7-18.2,59.9-19.3,67.9
		c-1.1,7.7,1.6,59,6.4,80.8c0.4,1.7,2,2.7,3.6,2.1c4.1-1.4,11.8-4.3,16.1-7.6c6.1-4.7,5-41.8,5-41.8l-4.2-47.6l6.8-39
		c0,0,9.7-30.8,8.3-32.8C1157.3,285.5,1157.6,276.8,1157.6,276.8z"/>
	
		<radialGradient id="SVGID_40_" cx="348.0093" cy="275.5884" r="301.6378" gradientTransform="matrix(-1 0 0 1 1489.2871 0)" gradientUnits="userSpaceOnUse">
		<stop  offset="0" style="stop-color:#28A3DD"/>
		<stop  offset="0.1678" style="stop-color:#4396C8"/>
		<stop  offset="0.1697" style="stop-color:#4395C8"/>
		<stop  offset="0.379" style="stop-color:#2162AC"/>
		<stop  offset="0.4735" style="stop-color:#134FA3"/>
		<stop  offset="1" style="stop-color:#233C7A"/>
	</radialGradient>
	<path fill="url(#SVGID_40_)" d="M1263.9,324.2c0,0,6.7,12.9-2.2,30c-9,17.3-30.5,52.6-30.5,52.6s7,49.3,6,61.4
		c-1,12.1-10,26.2-12.3,30.8c-2.3,4.5-21.1,16-42.8,5.1c-21.6-10.8-23.5-25.7-25.7-41.7c-2.1-16-1.5-15.1-1.5-15.1
		S1145,479,1138.9,473c-2.6-2.5-2.8-10.4-2.1-18.6c1.5-17.5,2-35,1.2-52.2c0-0.6,0-1.2,0-1.6c0-5.5-1-56.1,0.5-69.7
		c1.5-13.5-0.6-35.1,6.5-43.9c5.9-7.3,12.6-10.2,12.6-10.2l10.1-0.5c0,0,58.8-4.8,63.9,2.7c5.1,7.5,6.9,12.3,6.9,12.3
		S1256.2,310,1263.9,324.2L1263.9,324.2z"/>
	<path fill="#F1F6FC" d="M1217.3,270.6c0,0,2.4,1.3,3.4,4.1c1,2.8,3.9,10.4,5.5,12.5c0,0-26,24.6-35.7,37.2
		c-9.8,12.7-12.8,23.1-12.8,23.1l-13.5-15.8l4.2-4.7l2.3-10.4l4-11.8l2.9-11.7l32.3-18.3L1217.3,270.6z"/>
	<path fill="#C4CBD5" d="M1191.5,304c0,0,5.2,3.5,7,8.4c0,0-5-3.5-6.6-3.9c0,0-3.8,3.6-4.5,5.1c-0.7,1.5,0,14.7,0,14.7l-1.8,2.7
		l-2.1,0.2c0,0-0.2-9.5-0.5-10c-0.3-0.5-0.6-8.1-0.5-8.7c0.2-0.6,7-7.1,7-7.1l2.4-1.6L1191.5,304z"/>
	<path fill="#28357C" d="M1177.9,301.1c0,0,3.4-1.5,5.5-1c2.1,0.5,7.9,3.4,8.8,4.5c0.9,1.1-0.2,2.6-3.5,5.1
		c-3.3,2.5-3.7,4.1-3.7,4.1s1.9,10.8,0.8,17.3c0,0-6.9,12.3-8.4,18.2c-1.5,5.9-7.6-19.1-7.6-19.1s2.1-8,3.1-10
		c1-2,4.8-12.8,3.8-14.7C1175.7,303.7,1177.9,301.1,1177.9,301.1z"/>
	<path opacity="0.8" fill="#11122E" d="M1236.5,293l-4.4,9.2l-7.8-0.4l0.9,8.1c0,0-32.1,21.4-44.4,43.7l0.8,2.4
		c0,0,14.4-23.8,45.5-43.4l1-0.6l-1.6-7.8l6.9,1.3L1236.5,293z"/>
	<path fill="#FCD1C6" d="M1183.6,295.4c0,0,1.4,4,5.6,4.4c4.1,0.3,26.5-8.3,29.8-21.4c0,0-1.4-6.3-1.5-7.4c0,0,1.6-1.3,1.9-3.2
		c0.3-2,2.1-6.4,2.6-7.7c0.5-1.4,1.7-4.1,1-6.1c0,0,6.7-36.5-13.3-42.8c-20-6.2-34.6-0.2-41.1,20.5c0,0-1.6,5.6-2.9,9.7
		c-0.8,2.6-0.9,5.4-0.1,8c0.4,1.5,0.8,3,0.7,4.1c-0.2,2.5-1.5,8.3-0.4,15.4c0,0-1.6,3.9,1,5.3c2.6,1.4,2.1,12.9,2.1,12.9l7.4,7.6
		C1176.4,294.7,1177.9,296.4,1183.6,295.4z"/>
	<linearGradient id="SVGID_41_" gradientUnits="userSpaceOnUse" x1="1167.7559" y1="233.8979" x2="1227.5713" y2="233.8979">
		<stop  offset="0" style="stop-color:#273649"/>
		<stop  offset="0.9731" style="stop-color:#0D1013"/>
	</linearGradient>
	<path fill="url(#SVGID_41_)" d="M1223.2,255.9c0,0,14.3-32.5-8.8-45.7c-18.1-10.3-39.7-4.5-46.3,19c0,0-2.5,5.2,5.6,8.1
		c8.1,2.9,18.5,6.1,23.3,6c4.7-0.1,7.1,2.6,7.2,8.8c0,3.5,0.5,4.9,0.8,5.5c0.4,0.6,0.5,1.3,0.5,1.9l0,1.2c0,0.8,0.5,1.6,1.2,1.8
		c1.1,0.4,2.4,0,2.5-0.2v0c0.5-3.9,2.6-7.3,5.8-9.4C1218.5,250.4,1222.7,249.3,1223.2,255.9z"/>
	<path opacity="0.6" fill="#11122E" d="M1172.9,320.3c1-2,4.8-12.8,3.8-14.7c-1-1.9,1.2-4.4,1.2-4.4s3.4-1.5,5.5-1
		c0.2,0,0.5,0.1,0.8,0.2c0,0.1,0,0.1,0,0.1s-2.8,5-3.4,6.2c-0.6,1.2-3.2,13.9-4.6,16.7c-1.4,2.8-4.1,12.7-4.1,12.7l-0.8-0.5
		c-0.8-3-1.4-5.3-1.4-5.3S1171.9,322.3,1172.9,320.3z"/>
	<path fill="#E2B1A6" d="M1175,287.7c0,0,3.5,5.3,3.8,7.9c-1.8-0.3-2.4-0.9-2.4-0.9l-3-3C1174.2,289.6,1175,287.7,1175,287.7z"/>
	<path fill="#FCD1C6" d="M1151.4,336.3c0,0-4-6.2-3.8-11.5c0.2-5.3,1.6-11.5,1.6-11.5s-3,0.1-2.8-4.3c0.2-4.4,1.4-8.5,2.9-9.6
		c1.5-1.1,3-0.8,3-0.8s1.1-3.6,4.3-3c0,0,0.1-2.3,2.8-4.1c2.7-1.8,4.4,0.9,4.4,0.9s1.1-3.8,2.2-4.5c1.1-0.7,3-0.8,3-0.8
		s5.1-0.7,6.1,0.7c0.9,1.4,3.4,16.2,3.2,16.9c-0.2,0.7-1.4,8.4-2.2,10.8c-0.8,2.4-6.7,8.6-7.6,11.6c-0.9,3-10.4,12.5-10.5,12.5
		C1157.8,339.5,1151.4,336.3,1151.4,336.3z"/>
	<path opacity="0.6" fill="#11122E" d="M1155.1,447.2c0,0,0.3-51.5,8.8-74.3l-4.4,7.4c0,0-7.1,30.2-5.6,70.5L1155.1,447.2z"/>
	<path opacity="0.6" fill="#11122E" d="M1156.4,366.5c0,0,38.3,34.4,38.5,34.8c0.2,0.4,56-34.6,56-34.6l1.7,3.9
		c-9.7,17-21.4,36.1-21.4,36.1s0.8,6,1.9,14.2c0,0-27.6,29.5-44.8,25.7c-14.8-3.2-30.7-52.6-34.7-65.8c-0.6-2.1-0.6-4.4,0.1-6.5
		L1156.4,366.5z"/>
	<path fill="#E2B1A6" d="M1149.1,331.1c5.5-3.3,15.5-4.2,15.5-4.2l-11.6,10.2c-0.9-0.4-1.6-0.8-1.6-0.8s-1.4-2.2-2.5-5
		C1149,331.2,1149,331.2,1149.1,331.1z"/>
	
		<radialGradient id="SVGID_42_" cx="-9.2354" cy="353.0708" r="487.0083" gradientTransform="matrix(-1 0 0 1 1489.2871 0)" gradientUnits="userSpaceOnUse">
		<stop  offset="0" style="stop-color:#CED9EF"/>
		<stop  offset="0.3398" style="stop-color:#79D1EF"/>
		<stop  offset="0.4263" style="stop-color:#5398C7"/>
		<stop  offset="0.5402" style="stop-color:#22629F"/>
		<stop  offset="0.5918" style="stop-color:#074F92"/>
		<stop  offset="0.6774" style="stop-color:#214186"/>
		<stop  offset="0.7832" style="stop-color:#31459C"/>
		<stop  offset="0.8871" style="stop-color:#25336D"/>
		<stop  offset="1" style="stop-color:#2A2C75"/>
	</radialGradient>
	<path fill="url(#SVGID_42_)" d="M1219.9,345.3c5.8-7.4,13.8-13.3,21.6-18.3c7-4.5,14.7-8,18.8-5.1c9,6.2,7.1,17.7,2.9,29.1
		c-4.2,11.5-42.9,76.4-70,75c0,0-19.5-20.2-28.5-36.1c-7.5-13.3-19.8-36.3-23.5-43.1c-0.6-1.2-0.4-2.6,0.6-3.5
		c5.3-4.8,21.5-19,26.3-16.6c0,0,11,27.9,22.1,41.6l8.7,8.3c0,0,7.3-13.2,12.9-20.8C1214,352.9,1217.1,349,1219.9,345.3z"/>
	<path fill="#E2B1A6" d="M1189.1,299.8c-4.1-0.3-5.6-4.4-5.6-4.4s23-9.2,25.4-23.2c0,0,0.2,14.8-5.9,22.6
		C1197,298.1,1191.1,300,1189.1,299.8z"/>
	<path fill="#15151E" d="M1209.2,262.1L1209.2,262.1c0,0.3-1.3,0.6-2.5,0.3c-0.7-0.2-1.3-1-1.2-1.8l0-1.2c0-0.7-0.1-1.4-0.5-1.9
		c-0.4-0.6-0.8-2-0.8-5.5c0-2.8-0.6-4.9-1.5-6.3l0,0c0,0,12.9,1,23.5,0.8c-0.4,1.5-0.6,3-1,4.3c-0.9,2.9-1.9,5.1-1.9,5.1
		c-0.5-6.6-4.6-5.4-8.1-3.1C1211.8,254.8,1209.7,258.3,1209.2,262.1z"/>
	<path fill="#1E262D" d="M1190.5,551.9c0,0,0,0.1,0,0.4C1190.5,552.2,1190.5,552,1190.5,551.9z"/>
	<path opacity="0.6" fill="#11122E" d="M1210.6,655.6c-1.5-0.9-3.1-2.2-4.5-4c0,0,5-9.2,4.3-32.9c-0.3-12.1-0.6-19-0.7-22.9
		c-0.1-3-1-5.8-2.4-8.3c-3.5-5.9-10.5-18.5-15.9-33.3c0-0.1-0.1-0.2-0.1-0.3c3.9,6.8,21.5,27.9,23.8,44
		C1217.3,613.7,1212.3,645.7,1210.6,655.6z"/>
	<path fill="#1E262D" d="M1191.3,553.9c0-0.1-0.1-0.1-0.1-0.2c-0.2-0.6-0.4-1.2-0.6-1.8C1190.6,551.5,1190.9,552.3,1191.3,553.9z"/>
	<path opacity="0.8" fill="#11122E" d="M1149,389.5c-0.3,2.3,0.9,4.4,2.7,4.6c1.8,0.2,3.4-1.5,3.7-3.8c0.3-2.3-0.9-4.4-2.7-4.6
		C1150.9,385.5,1149.3,387.2,1149,389.5z"/>
	<path opacity="0.8" fill="#11122E" d="M1146.8,417.7c0,2.4,1.4,4.3,3.1,4.3c1.8,0,3.3-1.9,3.3-4.3c0-2.4-1.4-4.3-3.1-4.3
		C1148.3,413.4,1146.8,415.3,1146.8,417.7z"/>
	<path opacity="0.8" fill="#11122E" d="M1014.4,425c-0.3,2.3,0.9,4.4,2.7,4.6c1.7,0.2,3.4-1.5,3.7-3.8c0.3-2.3-0.9-4.4-2.7-4.6
		C1016.4,420.9,1014.7,422.6,1014.4,425z"/>
	<path opacity="0.6" fill="#11122E" d="M1144.4,341c0,0,35.1,75.9,51.1,78.9c16,3,59.1-52.8,59.1-52.8s0,0.1-0.1,0.2
		c-13.8,23-40.9,59.7-61.3,58.7c0,0-19.5-20.2-28.5-36.1c-7.5-13.3-19.8-36.3-23.5-43.1c-0.6-1.2-0.4-2.6,0.6-3.5
		C1142.6,342.7,1143.4,341.9,1144.4,341z"/>
	<path opacity="0.6" fill="#11122E" d="M1199,376.5c0,0,4.4,7.1,6.1,11.6l-5.3-13L1199,376.5z"/>
	<polygon opacity="0.5" fill="#0F1026" points="1066.7,520.2 1084.4,528.4 1116.6,509.7 1074.9,502.2 	"/>
	<radialGradient id="SVGID_43_" cx="1044.3008" cy="484.666" r="105.3239" gradientUnits="userSpaceOnUse">
		<stop  offset="1.612903e-002" style="stop-color:#5ABBEA"/>
		<stop  offset="0.1785" style="stop-color:#2367B2"/>
		<stop  offset="0.4839" style="stop-color:#01568A"/>
		<stop  offset="0.7312" style="stop-color:#19457D"/>
		<stop  offset="0.9247" style="stop-color:#253D8D"/>
	</radialGradient>
	<path fill="url(#SVGID_43_)" d="M1082.9,473.3h-35.6l3.3,38.6l0,0c0,2.1,1.4,4.3,4.3,5.9c5.7,3.3,14.8,3.3,20.5,0
		c2.8-1.6,4.2-3.8,4.2-5.9L1082.9,473.3z"/>
	<path opacity="0.4" fill="#10113C" d="M1082.9,473.3h-35.6l0.5,6.3c0.8,1,1.9,2.1,3.3,3c6.8,4.5,18,5.4,25.7,2.1l-1.2,28.2
		c-0.1,1.2-0.5,2.4-1.3,3.4c-1.2,1.4-3.4,3-7.7,3.9c3.2-0.2,6.2-1,8.6-2.4c2.8-1.6,4.2-3.8,4.2-5.9l2.7-30.9l0,0L1082.9,473.3z"/>
	<path opacity="0.4" fill="#10113C" d="M1077.7,480.6c-7,4-18.2,4-25.2,0c-7-4-7-10.5,0-14.5c7-4,18.2-4,25.2,0
		C1084.6,470.1,1084.6,476.6,1077.7,480.6z"/>
	<path opacity="0.4" fill="#10113C" d="M1075.9,476c-6,3.5-15.7,3.5-21.7,0c-6-3.5-6-9.1,0-12.5c6-3.5,15.7-3.5,21.7,0
		C1081.9,466.9,1081.9,472.5,1075.9,476z"/>
	<linearGradient id="SVGID_44_" gradientUnits="userSpaceOnUse" x1="1046.1641" y1="471.6182" x2="1083.9443" y2="471.6182">
		<stop  offset="0" style="stop-color:#049ABE"/>
		<stop  offset="0.1935" style="stop-color:#0359A4"/>
		<stop  offset="0.2473" style="stop-color:#045098"/>
		<stop  offset="0.3548" style="stop-color:#22376D"/>
	</linearGradient>
	<path fill="url(#SVGID_44_)" d="M1083.9,472.8L1083.9,472.8L1083.9,472.8C1083.9,472.8,1083.9,472.8,1083.9,472.8l-0.3-3.5l0,0
		c-0.2-2.6-2-5.2-5.4-7.2c-7.2-4.2-19-4.2-26.2,0c-3.5,2-5.3,4.7-5.4,7.4l0,0l-0.3,3.1c0,0.1,0,0.2,0,0.2l0,0.1l0,0
		c-0.2,2.9,1.6,5.9,5.5,8.1c7.4,4.3,19.3,4.3,26.7,0C1082.3,478.8,1084.1,475.8,1083.9,472.8z"/>
	<linearGradient id="SVGID_45_" gradientUnits="userSpaceOnUse" x1="1049.707" y1="469.6987" x2="1080.4004" y2="469.6987">
		<stop  offset="0" style="stop-color:#22376D"/>
		<stop  offset="0.3844" style="stop-color:#1F4C84"/>
		<stop  offset="1" style="stop-color:#0675BC"/>
	</linearGradient>
	<path fill="url(#SVGID_45_)" d="M1075.9,476c-6,3.5-15.7,3.5-21.7,0c-6-3.5-6-9.1,0-12.5c6-3.5,15.7-3.5,21.7,0
		C1081.9,466.9,1081.9,472.5,1075.9,476z"/>
	<linearGradient id="SVGID_46_" gradientUnits="userSpaceOnUse" x1="1048.9785" y1="469.6987" x2="1079.6719" y2="469.6987">
		<stop  offset="0" style="stop-color:#22376D"/>
		<stop  offset="0.5808" style="stop-color:#1A4989"/>
		<stop  offset="1" style="stop-color:#0359A4"/>
	</linearGradient>
	<path fill="url(#SVGID_46_)" d="M1075.2,476c-6,3.5-15.7,3.5-21.7,0c-6-3.5-6-9.1,0-12.5c6-3.5,15.7-3.5,21.7,0
		C1081.2,466.9,1081.2,472.5,1075.2,476z"/>
	<path opacity="0.4" fill="#10113C" d="M1056,464.8c6-3.5,15.7-3.5,21.7,0c0.1,0,0.1,0.1,0.2,0.1c-0.6-0.5-1.3-1-2-1.5
		c-6-3.5-15.7-3.5-21.7,0c-5.9,3.4-6,8.9-0.2,12.4C1050.1,472.4,1050.8,467.8,1056,464.8z"/>
	<linearGradient id="SVGID_47_" gradientUnits="userSpaceOnUse" x1="1049.71" y1="465.6528" x2="1088.4081" y2="465.6528">
		<stop  offset="0" style="stop-color:#22376D"/>
		<stop  offset="6.911979e-002" style="stop-color:#213970"/>
		<stop  offset="0.1405" style="stop-color:#1E3F7A"/>
		<stop  offset="0.2126" style="stop-color:#13498B"/>
		<stop  offset="0.2473" style="stop-color:#045098"/>
		<stop  offset="0.7097" style="stop-color:#0359A4"/>
		<stop  offset="0.7202" style="stop-color:#025FA6"/>
		<stop  offset="0.7558" style="stop-color:#0170AD"/>
		<stop  offset="0.7937" style="stop-color:#017EB3"/>
		<stop  offset="0.8341" style="stop-color:#018AB8"/>
		<stop  offset="0.8781" style="stop-color:#0393BB"/>
		<stop  offset="0.9287" style="stop-color:#0398BD"/>
		<stop  offset="1" style="stop-color:#049ABE"/>
	</linearGradient>
	<path fill="url(#SVGID_47_)" d="M1054.2,465c6-3.5,15.7-3.5,21.7,0c2.7,1.5,4.1,3.5,4.4,5.5c0.4-2.5-1.1-5.1-4.4-7
		c-6-3.5-15.7-3.5-21.7,0c-3.3,1.9-4.8,4.5-4.4,7C1050.1,468.5,1051.5,466.5,1054.2,465z"/>
	<radialGradient id="SVGID_48_" cx="1041.4502" cy="460.9297" r="68.8951" gradientUnits="userSpaceOnUse">
		<stop  offset="1.612903e-002" style="stop-color:#5ABBEA"/>
		<stop  offset="0.1785" style="stop-color:#2367B2"/>
		<stop  offset="0.4839" style="stop-color:#01568A"/>
		<stop  offset="0.7312" style="stop-color:#19457D"/>
		<stop  offset="0.9247" style="stop-color:#253D8D"/>
	</radialGradient>
	<path fill="url(#SVGID_48_)" d="M1078.3,462.2c-7.2-4.3-19-4.4-26.3-0.2c-7.3,4.1-7.4,10.9-0.1,15.2c7.2,4.3,19,4.4,26.3,0.2
		C1085.4,473.3,1085.5,466.5,1078.3,462.2z M1075.9,476c-2,1.2-4.4,1.9-7,2.3l-0.3-0.9c-0.1-0.4-0.5-0.6-0.8-0.6h-5.5
		c-0.4,0-0.7,0.3-0.8,0.6l-0.3,0.9c-2.6-0.4-5-1.1-7-2.3c-6-3.5-6-9.1,0-12.5c6-3.5,15.7-3.5,21.7,0
		C1081.9,466.9,1081.9,472.5,1075.9,476z"/>
	<path fill="#FFFFFF" d="M1075.9,462.8c-6-3.5-15.7-3.5-21.7,0c-3.1,1.8-4.6,4.2-4.5,6.6c0.1-2.2,1.6-4.3,4.5-5.9
		c6-3.5,15.7-3.5,21.7,0c2.9,1.6,4.3,3.8,4.5,5.9C1080.5,467,1079,464.6,1075.9,462.8z"/>
	<path fill="#FFFFFF" d="M1078.1,476.7c-7.3,4.1-19.1,4-26.3-0.2c-3.4-2-5.2-4.6-5.4-7.2c-0.1,2.8,1.6,5.7,5.4,7.9
		c7.2,4.3,19,4.4,26.3,0.2c3.8-2.2,5.7-5.1,5.5-7.9C1083.5,472.1,1081.7,474.7,1078.1,476.7z"/>
	<path fill="#28296F" d="M1066.7,478.7h-3.3c-0.2,0-0.4-0.2-0.4-0.4v-0.1c0-0.2,0.2-0.4,0.4-0.4h3.3c0.2,0,0.4,0.2,0.4,0.4v0.1
		C1067.1,478.6,1066.9,478.7,1066.7,478.7z"/>
	<linearGradient id="SVGID_49_" gradientUnits="userSpaceOnUse" x1="1062.627" y1="478.1431" x2="1067.9766" y2="478.1431">
		<stop  offset="0" style="stop-color:#22376D"/>
		<stop  offset="6.911979e-002" style="stop-color:#213970"/>
		<stop  offset="0.1405" style="stop-color:#1E3F7A"/>
		<stop  offset="0.2126" style="stop-color:#13498B"/>
		<stop  offset="0.2473" style="stop-color:#045098"/>
		<stop  offset="0.7097" style="stop-color:#0359A4"/>
		<stop  offset="0.7202" style="stop-color:#025FA6"/>
		<stop  offset="0.7558" style="stop-color:#0170AD"/>
		<stop  offset="0.7937" style="stop-color:#017EB3"/>
		<stop  offset="0.8341" style="stop-color:#018AB8"/>
		<stop  offset="0.8781" style="stop-color:#0393BB"/>
		<stop  offset="0.9287" style="stop-color:#0398BD"/>
		<stop  offset="1" style="stop-color:#049ABE"/>
	</linearGradient>
	<path fill="url(#SVGID_49_)" d="M1066.7,477.8h-3.3c-0.2,0-0.4,0.2-0.4,0.4v0.1c0,0,0,0.1,0,0.1c0.1-0.2,0.2-0.3,0.4-0.3h3.3
		c0.2,0,0.3,0.1,0.4,0.3c0,0,0-0.1,0-0.1v-0.1C1067.1,478,1066.9,477.8,1066.7,477.8z"/>
	
		<radialGradient id="SVGID_50_" cx="769.167" cy="462.168" r="139.3641" gradientTransform="matrix(-1 0 0 1 1591.4043 0)" gradientUnits="userSpaceOnUse">
		<stop  offset="6.022753e-002" style="stop-color:#60BFD4"/>
		<stop  offset="0.1744" style="stop-color:#4595BC"/>
		<stop  offset="0.3541" style="stop-color:#1B619D"/>
		<stop  offset="0.4355" style="stop-color:#074F92"/>
		<stop  offset="0.6129" style="stop-color:#214186"/>
		<stop  offset="0.8118" style="stop-color:#214287"/>
		<stop  offset="0.9946" style="stop-color:#25336D"/>
	</radialGradient>
	<path fill="url(#SVGID_50_)" d="M825.3,457.2l6,3.1l59.7-34.5c1-0.6,2.7-0.5,3.9,0.2l103,59.4c1-0.5,5.5-2.7,5.5-2.7l-2.2,5.7l0,0
		c-0.1,0.3-0.3,0.5-0.6,0.7l-62.9,36.3c-1,0.6-2.7,0.5-3.9-0.2l-105.4-60.8c-0.5-0.3-0.8-0.6-0.9-0.9l0,0L825.3,457.2z"/>
	
		<radialGradient id="SVGID_51_" cx="797.5371" cy="473.3345" r="217.2997" gradientTransform="matrix(-1 0 0 1 1591.4043 0)" gradientUnits="userSpaceOnUse">
		<stop  offset="1.612903e-002" style="stop-color:#5ABBEA"/>
		<stop  offset="0.1785" style="stop-color:#2367B2"/>
		<stop  offset="0.4839" style="stop-color:#01568A"/>
		<stop  offset="0.7312" style="stop-color:#19457D"/>
		<stop  offset="0.9247" style="stop-color:#253D8D"/>
	</radialGradient>
	<path fill="url(#SVGID_51_)" d="M826.2,458.1l108,62.3c1.2,0.7,3,0.8,4,0.2l64.4-37.2c1-0.6,0.9-1.6-0.3-2.3l-108-62.3
		c-1.2-0.7-3-0.8-4-0.2l-64.4,37.2C824.9,456.4,825,457.4,826.2,458.1z"/>
	<g>
		<polygon fill="#282567" points="863.7,449.7 936.8,491.9 940.3,489.9 867.2,447.7 		"/>
		<polygon opacity="0.4" fill="#10113C" points="858.2,452.9 944.3,502.6 947.7,500.6 861.7,450.9 		"/>
		<polygon opacity="0.4" fill="#10113C" points="852.7,456.1 938.7,505.8 942.2,503.8 856.1,454.1 		"/>
		<polygon fill="#282567" points="847.1,459.3 933.2,509 936.7,507 850.6,457.3 		"/>
		<polygon opacity="0.4" fill="#10113C" points="959,490.9 875.7,442.8 872.2,444.8 954.9,492.5 958.3,494.5 961.8,492.5 		"/>
		<polygon opacity="0.4" fill="#10113C" points="932.6,489.5 949.9,499.4 953.3,497.4 936,487.4 		"/>
	</g>
	
		<radialGradient id="SVGID_52_" cx="763.5068" cy="361.7803" r="175.9692" gradientTransform="matrix(-1 0 0 1 1591.4043 0)" gradientUnits="userSpaceOnUse">
		<stop  offset="1.612903e-002" style="stop-color:#5ABBEA"/>
		<stop  offset="0.1785" style="stop-color:#2367B2"/>
		<stop  offset="0.4839" style="stop-color:#01568A"/>
		<stop  offset="0.7312" style="stop-color:#19457D"/>
		<stop  offset="0.9247" style="stop-color:#253D8D"/>
	</radialGradient>
	<path fill="url(#SVGID_52_)" d="M825.5,455.5l13.6-81l-1.1-0.5l1.7-0.9l0,0c0.3-0.2,0.8-0.2,1.3,0.1l109.1,63
		c0.9,0.5,1.6,1.8,1.4,2.8l-13.8,81.6c-0.1,0.4-0.3,0.7-0.6,0.8h0l-1.6,0.9l-0.3-1.5l0.1,0l-108.4-62.6
		C826,457.8,825.3,456.5,825.5,455.5z"/>
	
		<linearGradient id="SVGID_53_" gradientUnits="userSpaceOnUse" x1="639.9312" y1="480.0317" x2="661.5703" y2="480.0317" gradientTransform="matrix(-1 0 0 1 1591.4043 0)">
		<stop  offset="0" style="stop-color:#22376D"/>
		<stop  offset="0.5808" style="stop-color:#1A4989"/>
		<stop  offset="1" style="stop-color:#0359A4"/>
	</linearGradient>
	<path fill="url(#SVGID_53_)" d="M949.4,438.5l1.8-0.8c0.2,0.5,0.3,0.9,0.2,1.3l-13.8,81.6c-0.1,0.4-0.3,0.7-0.6,0.8h0l-1.6,0.9
		l-0.3-1.5l0.1,0l-5.5-3.2L949.4,438.5z"/>
	<radialGradient id="SVGID_54_" cx="816.0664" cy="365.0381" r="211.5252" gradientUnits="userSpaceOnUse">
		<stop  offset="0" style="stop-color:#CED9EF"/>
		<stop  offset="0.1946" style="stop-color:#60BFD4"/>
		<stop  offset="0.2926" style="stop-color:#4595BC"/>
		<stop  offset="0.4467" style="stop-color:#1B619D"/>
		<stop  offset="0.5165" style="stop-color:#074F92"/>
		<stop  offset="0.7742" style="stop-color:#214186"/>
		<stop  offset="0.9946" style="stop-color:#25336D"/>
	</radialGradient>
	<path fill="url(#SVGID_54_)" d="M825.2,459.3l109.1,63c0.8,0.5,1.6,0.2,1.7-0.7l13.8-81.6c0.2-0.9-0.5-2.3-1.4-2.8l-109.1-63
		c-0.8-0.5-1.6-0.2-1.7,0.7l-13.8,81.6C823.6,457.5,824.3,458.8,825.2,459.3z"/>
	<g>
		<rect x="647.3" y="351.9" fill="#273675" width="1.7" height="30"/>
		<rect x="647.4" y="388.7" fill="#09A7D3" width="1.5" height="8.6"/>
		<rect x="647.4" y="404.5" fill="#09A7D3" width="1.5" height="8.6"/>
		<rect x="647.4" y="420.2" fill="#09A7D3" width="1.5" height="24.3"/>
		<rect x="647.4" y="451.7" fill="#09A7D3" width="1.5" height="8.6"/>
	</g>
	<g>
		<rect x="1383.2" y="480.1" fill="#273675" width="1.7" height="30"/>
		<rect x="1383.3" y="464.7" fill="#09A7D3" width="1.5" height="8.6"/>
		<rect x="1383.3" y="449" fill="#09A7D3" width="1.5" height="8.6"/>
		<rect x="1383.3" y="417.5" fill="#09A7D3" width="1.5" height="24.3"/>
		<rect x="1383.3" y="401.8" fill="#09A7D3" width="1.5" height="8.6"/>
	</g>
	<g>
		<rect x="857.5" y="189.2" fill="#09A7D3" width="1.5" height="30"/>
		<rect x="857.4" y="226" fill="#273675" width="1.7" height="8.6"/>
		<rect x="857.4" y="241.8" fill="#273675" width="1.7" height="8.6"/>
	</g>
	<g>
		<rect x="1328" y="202.5" fill="#09A7D3" width="1.5" height="30"/>
		<rect x="1328" y="239.3" fill="#273675" width="1.7" height="8.6"/>
		<rect x="1328" y="255" fill="#273675" width="1.7" height="8.6"/>
	</g>
	<polygon opacity="0.6" fill="#273675" points="1188.5,214.8 820.7,23.9 820,25.4 1187.7,216.3 	"/>
</g>
</svg>
